<mxfile modified="2022-07-05T12:10:07.638Z" host="app.diagrams.net" agent="5.0 (Windows NT 10.0; Win64; x64) AppleWebKit/537.36 (KHTML, like Gecko) Chrome/103.0.0.0 Safari/537.36" etag="rot_iGS9rBI0ZXQsaDin" version="20.0.1" type="github">
  <diagram id="eIo0H9kK7ql945uVP1NC" name="Page-1">
    <mxGraphModel dx="1178" dy="754" grid="1" gridSize="10" guides="1" tooltips="1" connect="1" arrows="1" fold="1" page="1" pageScale="1" pageWidth="1169" pageHeight="827" math="0" shadow="0">
      <root>
        <mxCell id="0" />
        <mxCell id="1" parent="0" />
        <mxCell id="5WwUB0t59IE9ERpQd4V4-1" value="&lt;font style=&quot;font-size: 15px;&quot;&gt;Splunk&lt;/font&gt;" style="shadow=0;dashed=0;html=1;labelPosition=center;verticalLabelPosition=top;verticalAlign=bottom;align=center;outlineConnect=0;shape=mxgraph.veeam.3d.datastore;gradientColor=none;sketch=0;" vertex="1" parent="1">
          <mxGeometry x="1000" y="470" width="70" height="70" as="geometry" />
        </mxCell>
        <mxCell id="5WwUB0t59IE9ERpQd4V4-2" value="Kubernetes Cluster" style="swimlane;fontStyle=0;horizontal=1;collapsible=0;startSize=28;swimlaneLine=0;swimlaneFillColor=none;fillColor=none;rounded=0;whiteSpace=wrap;html=1;absoluteArcSize=1;arcSize=12;strokeColor=#417CB9;fontColor=#417CB9;verticalAlign=top;align=center;spacingLeft=5;dashed=0;strokeWidth=2;" vertex="1" parent="1">
          <mxGeometry x="360" y="340" width="530" height="362" as="geometry" />
        </mxCell>
        <mxCell id="5WwUB0t59IE9ERpQd4V4-37" value="" style="sketch=0;html=1;dashed=0;whitespace=wrap;fillColor=#2875E2;strokeColor=#ffffff;points=[[0.005,0.63,0],[0.1,0.2,0],[0.9,0.2,0],[0.5,0,0],[0.995,0.63,0],[0.72,0.99,0],[0.5,1,0],[0.28,0.99,0]];shape=mxgraph.kubernetes.icon;prIcon=api;fontSize=15;" vertex="1" parent="5WwUB0t59IE9ERpQd4V4-2">
          <mxGeometry x="50" y="100" width="50" height="48" as="geometry" />
        </mxCell>
        <mxCell id="5WwUB0t59IE9ERpQd4V4-60" value="Consumer" style="sketch=0;html=1;dashed=0;whitespace=wrap;fillColor=#2875E2;strokeColor=#ffffff;points=[[0.005,0.63,0],[0.1,0.2,0],[0.9,0.2,0],[0.5,0,0],[0.995,0.63,0],[0.72,0.99,0],[0.5,1,0],[0.28,0.99,0]];shape=mxgraph.kubernetes.icon;prIcon=job;fontSize=12;labelPosition=center;verticalLabelPosition=bottom;align=center;verticalAlign=top;" vertex="1" parent="5WwUB0t59IE9ERpQd4V4-2">
          <mxGeometry x="430" y="130" width="50" height="48" as="geometry" />
        </mxCell>
        <mxCell id="5WwUB0t59IE9ERpQd4V4-129" style="edgeStyle=orthogonalEdgeStyle;rounded=0;orthogonalLoop=1;jettySize=auto;html=1;shadow=0;fontSize=12;" edge="1" parent="5WwUB0t59IE9ERpQd4V4-2" source="5WwUB0t59IE9ERpQd4V4-61" target="5WwUB0t59IE9ERpQd4V4-36">
          <mxGeometry relative="1" as="geometry" />
        </mxCell>
        <mxCell id="5WwUB0t59IE9ERpQd4V4-61" value="Producer" style="sketch=0;html=1;dashed=0;whitespace=wrap;fillColor=#2875E2;strokeColor=#ffffff;points=[[0.005,0.63,0],[0.1,0.2,0],[0.9,0.2,0],[0.5,0,0],[0.995,0.63,0],[0.72,0.99,0],[0.5,1,0],[0.28,0.99,0]];shape=mxgraph.kubernetes.icon;prIcon=job;fontSize=12;labelPosition=center;verticalLabelPosition=bottom;align=center;verticalAlign=top;" vertex="1" parent="5WwUB0t59IE9ERpQd4V4-2">
          <mxGeometry x="175" y="130" width="50" height="48" as="geometry" />
        </mxCell>
        <mxCell id="5WwUB0t59IE9ERpQd4V4-68" value="" style="sketch=0;html=1;dashed=0;whitespace=wrap;fillColor=#2875E2;strokeColor=#ffffff;points=[[0.005,0.63,0],[0.1,0.2,0],[0.9,0.2,0],[0.5,0,0],[0.995,0.63,0],[0.72,0.99,0],[0.5,1,0],[0.28,0.99,0]];shape=mxgraph.kubernetes.icon;prIcon=ns;fontSize=12;" vertex="1" parent="5WwUB0t59IE9ERpQd4V4-2">
          <mxGeometry width="50" height="48" as="geometry" />
        </mxCell>
        <mxCell id="5WwUB0t59IE9ERpQd4V4-130" style="edgeStyle=orthogonalEdgeStyle;rounded=0;orthogonalLoop=1;jettySize=auto;html=1;entryX=0.005;entryY=0.63;entryDx=0;entryDy=0;entryPerimeter=0;shadow=0;fontSize=12;" edge="1" parent="5WwUB0t59IE9ERpQd4V4-2" source="5WwUB0t59IE9ERpQd4V4-36" target="5WwUB0t59IE9ERpQd4V4-60">
          <mxGeometry relative="1" as="geometry" />
        </mxCell>
        <mxCell id="5WwUB0t59IE9ERpQd4V4-36" value="Kafka Stream" style="sketch=0;points=[[0,0,0],[0.25,0,0],[0.5,0,0],[0.75,0,0],[1,0,0],[0,1,0],[0.25,1,0],[0.5,1,0],[0.75,1,0],[1,1,0],[0,0.25,0],[0,0.5,0],[0,0.75,0],[1,0.25,0],[1,0.5,0],[1,0.75,0]];outlineConnect=0;fontColor=#232F3E;gradientColor=#945DF2;gradientDirection=north;fillColor=#5A30B5;strokeColor=#ffffff;dashed=0;verticalLabelPosition=bottom;verticalAlign=top;align=center;html=1;fontSize=12;fontStyle=0;aspect=fixed;shape=mxgraph.aws4.resourceIcon;resIcon=mxgraph.aws4.managed_streaming_for_kafka;" vertex="1" parent="5WwUB0t59IE9ERpQd4V4-2">
          <mxGeometry x="292" y="115" width="78" height="78" as="geometry" />
        </mxCell>
        <mxCell id="5WwUB0t59IE9ERpQd4V4-119" style="edgeStyle=orthogonalEdgeStyle;rounded=0;orthogonalLoop=1;jettySize=auto;html=1;fontSize=12;shadow=0;" edge="1" parent="5WwUB0t59IE9ERpQd4V4-2" source="5WwUB0t59IE9ERpQd4V4-83" target="5WwUB0t59IE9ERpQd4V4-36">
          <mxGeometry relative="1" as="geometry" />
        </mxCell>
        <mxCell id="5WwUB0t59IE9ERpQd4V4-83" value="Analytics" style="aspect=fixed;perimeter=ellipsePerimeter;html=1;align=center;shadow=0;dashed=0;fontColor=#4277BB;labelBackgroundColor=#ffffff;fontSize=12;spacingTop=0;image;image=img/lib/ibm/analytics/analytics.svg;" vertex="1" parent="5WwUB0t59IE9ERpQd4V4-2">
          <mxGeometry x="301" y="240" width="60" height="60" as="geometry" />
        </mxCell>
        <mxCell id="5WwUB0t59IE9ERpQd4V4-131" style="edgeStyle=orthogonalEdgeStyle;rounded=0;orthogonalLoop=1;jettySize=auto;html=1;entryX=0.9;entryY=0.2;entryDx=0;entryDy=0;entryPerimeter=0;shadow=0;fontSize=12;" edge="1" parent="5WwUB0t59IE9ERpQd4V4-2" source="5WwUB0t59IE9ERpQd4V4-90" target="5WwUB0t59IE9ERpQd4V4-37">
          <mxGeometry relative="1" as="geometry" />
        </mxCell>
        <mxCell id="5WwUB0t59IE9ERpQd4V4-90" value="Web Application&lt;br&gt;" style="aspect=fixed;perimeter=ellipsePerimeter;html=1;align=center;shadow=0;dashed=0;fontColor=#4277BB;labelBackgroundColor=#ffffff;fontSize=12;spacingTop=0;image;image=img/lib/ibm/users/browser.svg;" vertex="1" parent="5WwUB0t59IE9ERpQd4V4-2">
          <mxGeometry x="350" y="40" width="50" height="50" as="geometry" />
        </mxCell>
        <mxCell id="5WwUB0t59IE9ERpQd4V4-40" value="&lt;font style=&quot;font-size: 12px;&quot;&gt;Logging API&lt;/font&gt;" style="sketch=0;html=1;dashed=0;whitespace=wrap;fillColor=#2875E2;strokeColor=#ffffff;points=[[0.005,0.63,0],[0.1,0.2,0],[0.9,0.2,0],[0.5,0,0],[0.995,0.63,0],[0.72,0.99,0],[0.5,1,0],[0.28,0.99,0]];shape=mxgraph.kubernetes.icon;prIcon=api;fontSize=15;labelPosition=center;verticalLabelPosition=bottom;align=center;verticalAlign=top;" vertex="1" parent="5WwUB0t59IE9ERpQd4V4-2">
          <mxGeometry x="60" y="112" width="50" height="48" as="geometry" />
        </mxCell>
        <mxCell id="5WwUB0t59IE9ERpQd4V4-64" style="edgeStyle=orthogonalEdgeStyle;rounded=0;orthogonalLoop=1;jettySize=auto;html=1;exitX=0.995;exitY=0.63;exitDx=0;exitDy=0;exitPerimeter=0;entryX=0.023;entryY=0.438;entryDx=0;entryDy=0;entryPerimeter=0;fontSize=12;" edge="1" parent="5WwUB0t59IE9ERpQd4V4-2" source="5WwUB0t59IE9ERpQd4V4-39" target="5WwUB0t59IE9ERpQd4V4-61">
          <mxGeometry relative="1" as="geometry" />
        </mxCell>
        <mxCell id="5WwUB0t59IE9ERpQd4V4-39" value="" style="sketch=0;html=1;dashed=0;whitespace=wrap;fillColor=#2875E2;strokeColor=#ffffff;points=[[0.005,0.63,0],[0.1,0.2,0],[0.9,0.2,0],[0.5,0,0],[0.995,0.63,0],[0.72,0.99,0],[0.5,1,0],[0.28,0.99,0]];shape=mxgraph.kubernetes.icon;prIcon=api;fontSize=15;" vertex="1" parent="5WwUB0t59IE9ERpQd4V4-2">
          <mxGeometry x="70" y="120" width="50" height="48" as="geometry" />
        </mxCell>
        <mxCell id="5WwUB0t59IE9ERpQd4V4-128" style="edgeStyle=orthogonalEdgeStyle;rounded=0;orthogonalLoop=1;jettySize=auto;html=1;entryX=1;entryY=0.5;entryDx=0;entryDy=0;fontSize=12;fillColor=#dae8fc;strokeColor=#330000;" edge="1" parent="5WwUB0t59IE9ERpQd4V4-2" source="5WwUB0t59IE9ERpQd4V4-58" target="5WwUB0t59IE9ERpQd4V4-90">
          <mxGeometry relative="1" as="geometry">
            <Array as="points">
              <mxPoint x="420" y="65" />
              <mxPoint x="420" y="65" />
            </Array>
          </mxGeometry>
        </mxCell>
        <mxCell id="5WwUB0t59IE9ERpQd4V4-58" value="" style="sketch=0;html=1;dashed=0;whitespace=wrap;fillColor=#2875E2;strokeColor=#ffffff;points=[[0.005,0.63,0],[0.1,0.2,0],[0.9,0.2,0],[0.5,0,0],[0.995,0.63,0],[0.72,0.99,0],[0.5,1,0],[0.28,0.99,0]];shape=mxgraph.kubernetes.icon;prIcon=user;fontSize=12;" vertex="1" parent="5WwUB0t59IE9ERpQd4V4-2">
          <mxGeometry x="430" y="40" width="50" height="48" as="geometry" />
        </mxCell>
        <mxCell id="5WwUB0t59IE9ERpQd4V4-69" value="Control Plane" style="swimlane;fontStyle=0;horizontal=1;collapsible=0;startSize=28;swimlaneLine=0;swimlaneFillColor=none;fillColor=none;rounded=0;whiteSpace=wrap;html=1;absoluteArcSize=1;arcSize=12;strokeColor=#417CB9;fontColor=#417CB9;verticalAlign=top;align=center;spacingLeft=5;dashed=0;strokeWidth=2;" vertex="1" parent="5WwUB0t59IE9ERpQd4V4-2">
          <mxGeometry y="282" width="220" height="80" as="geometry" />
        </mxCell>
        <mxCell id="5WwUB0t59IE9ERpQd4V4-75" value="" style="sketch=0;html=1;dashed=0;whitespace=wrap;fillColor=#2875E2;strokeColor=#ffffff;points=[[0.005,0.63,0],[0.1,0.2,0],[0.9,0.2,0],[0.5,0,0],[0.995,0.63,0],[0.72,0.99,0],[0.5,1,0],[0.28,0.99,0]];shape=mxgraph.kubernetes.icon;prIcon=deploy;fontSize=12;" vertex="1" parent="5WwUB0t59IE9ERpQd4V4-69">
          <mxGeometry x="130" y="20" width="50" height="48" as="geometry" />
        </mxCell>
        <mxCell id="5WwUB0t59IE9ERpQd4V4-76" value="" style="sketch=0;html=1;dashed=0;whitespace=wrap;fillColor=#2875E2;strokeColor=#ffffff;points=[[0.005,0.63,0],[0.1,0.2,0],[0.9,0.2,0],[0.5,0,0],[0.995,0.63,0],[0.72,0.99,0],[0.5,1,0],[0.28,0.99,0]];shape=mxgraph.kubernetes.icon;prIcon=rs;fontSize=12;" vertex="1" parent="5WwUB0t59IE9ERpQd4V4-69">
          <mxGeometry x="50" y="20" width="50" height="48" as="geometry" />
        </mxCell>
        <mxCell id="5WwUB0t59IE9ERpQd4V4-86" value="" style="endArrow=none;dashed=1;html=1;dashPattern=1 3;strokeWidth=2;rounded=0;fontSize=12;fillColor=#60a917;strokeColor=#2D7600;entryX=0.418;entryY=-0.023;entryDx=0;entryDy=0;entryPerimeter=0;" edge="1" parent="5WwUB0t59IE9ERpQd4V4-69" target="5WwUB0t59IE9ERpQd4V4-69">
          <mxGeometry width="50" height="50" relative="1" as="geometry">
            <mxPoint x="90" y="-92" as="sourcePoint" />
            <mxPoint x="40" y="60" as="targetPoint" />
          </mxGeometry>
        </mxCell>
        <mxCell id="5WwUB0t59IE9ERpQd4V4-124" value="" style="sketch=0;html=1;dashed=0;whitespace=wrap;fillColor=#2875E2;strokeColor=#ffffff;points=[[0.005,0.63,0],[0.1,0.2,0],[0.9,0.2,0],[0.5,0,0],[0.995,0.63,0],[0.72,0.99,0],[0.5,1,0],[0.28,0.99,0]];shape=mxgraph.kubernetes.icon;prIcon=rs;fontSize=12;" vertex="1" parent="5WwUB0t59IE9ERpQd4V4-69">
          <mxGeometry x="50" y="20" width="50" height="48" as="geometry" />
        </mxCell>
        <mxCell id="5WwUB0t59IE9ERpQd4V4-125" value="" style="sketch=0;html=1;dashed=0;whitespace=wrap;fillColor=#2875E2;strokeColor=#ffffff;points=[[0.005,0.63,0],[0.1,0.2,0],[0.9,0.2,0],[0.5,0,0],[0.995,0.63,0],[0.72,0.99,0],[0.5,1,0],[0.28,0.99,0]];shape=mxgraph.kubernetes.icon;prIcon=deploy;fontSize=12;" vertex="1" parent="5WwUB0t59IE9ERpQd4V4-69">
          <mxGeometry x="130" y="20" width="50" height="48" as="geometry" />
        </mxCell>
        <mxCell id="5WwUB0t59IE9ERpQd4V4-87" value="" style="endArrow=none;dashed=1;html=1;dashPattern=1 3;strokeWidth=2;rounded=0;fontSize=12;fillColor=#60a917;strokeColor=#2D7600;" edge="1" parent="5WwUB0t59IE9ERpQd4V4-2">
          <mxGeometry width="50" height="50" relative="1" as="geometry">
            <mxPoint x="60" y="280" as="sourcePoint" />
            <mxPoint x="30" y="190" as="targetPoint" />
          </mxGeometry>
        </mxCell>
        <mxCell id="5WwUB0t59IE9ERpQd4V4-88" value="" style="endArrow=none;dashed=1;html=1;dashPattern=1 3;strokeWidth=2;rounded=0;fontSize=12;fillColor=#60a917;strokeColor=#2D7600;exitX=0.649;exitY=-0.013;exitDx=0;exitDy=0;exitPerimeter=0;" edge="1" parent="5WwUB0t59IE9ERpQd4V4-2" source="5WwUB0t59IE9ERpQd4V4-69">
          <mxGeometry width="50" height="50" relative="1" as="geometry">
            <mxPoint x="120" y="270" as="sourcePoint" />
            <mxPoint x="170" y="190" as="targetPoint" />
          </mxGeometry>
        </mxCell>
        <mxCell id="5WwUB0t59IE9ERpQd4V4-41" style="edgeStyle=orthogonalEdgeStyle;rounded=0;orthogonalLoop=1;jettySize=auto;html=1;exitX=0.995;exitY=0.63;exitDx=0;exitDy=0;exitPerimeter=0;entryX=0;entryY=0.792;entryDx=0;entryDy=0;entryPerimeter=0;fontSize=12;" edge="1" parent="1" source="5WwUB0t59IE9ERpQd4V4-38" target="5WwUB0t59IE9ERpQd4V4-40">
          <mxGeometry relative="1" as="geometry" />
        </mxCell>
        <mxCell id="5WwUB0t59IE9ERpQd4V4-79" style="edgeStyle=orthogonalEdgeStyle;rounded=0;orthogonalLoop=1;jettySize=auto;html=1;entryX=0.005;entryY=0.63;entryDx=0;entryDy=0;entryPerimeter=0;fontSize=12;" edge="1" parent="1" source="5WwUB0t59IE9ERpQd4V4-44" target="5WwUB0t59IE9ERpQd4V4-38">
          <mxGeometry relative="1" as="geometry">
            <Array as="points">
              <mxPoint x="250" y="443" />
              <mxPoint x="250" y="500" />
            </Array>
          </mxGeometry>
        </mxCell>
        <mxCell id="5WwUB0t59IE9ERpQd4V4-44" value="" style="dashed=0;outlineConnect=0;html=1;align=center;labelPosition=center;verticalLabelPosition=bottom;verticalAlign=top;shape=mxgraph.weblogos.java;fontSize=12;" vertex="1" parent="1">
          <mxGeometry x="125.6" y="410" width="34.4" height="65" as="geometry" />
        </mxCell>
        <mxCell id="5WwUB0t59IE9ERpQd4V4-80" style="edgeStyle=orthogonalEdgeStyle;rounded=0;orthogonalLoop=1;jettySize=auto;html=1;entryX=0.005;entryY=0.63;entryDx=0;entryDy=0;entryPerimeter=0;fontSize=12;" edge="1" parent="1" source="5WwUB0t59IE9ERpQd4V4-52" target="5WwUB0t59IE9ERpQd4V4-38">
          <mxGeometry relative="1" as="geometry">
            <Array as="points">
              <mxPoint x="250" y="538" />
              <mxPoint x="250" y="500" />
            </Array>
          </mxGeometry>
        </mxCell>
        <mxCell id="5WwUB0t59IE9ERpQd4V4-52" value="" style="shape=image;html=1;verticalAlign=top;verticalLabelPosition=bottom;labelBackgroundColor=#ffffff;imageAspect=0;aspect=fixed;image=https://cdn0.iconfinder.com/data/icons/long-shadow-web-icons/512/python-128.png;fontSize=12;" vertex="1" parent="1">
          <mxGeometry x="110" y="508" width="60" height="60" as="geometry" />
        </mxCell>
        <mxCell id="5WwUB0t59IE9ERpQd4V4-81" style="edgeStyle=orthogonalEdgeStyle;rounded=0;orthogonalLoop=1;jettySize=auto;html=1;entryX=0.005;entryY=0.63;entryDx=0;entryDy=0;entryPerimeter=0;fontSize=12;" edge="1" parent="1" source="5WwUB0t59IE9ERpQd4V4-53" target="5WwUB0t59IE9ERpQd4V4-38">
          <mxGeometry relative="1" as="geometry">
            <Array as="points">
              <mxPoint x="250" y="634" />
              <mxPoint x="250" y="500" />
            </Array>
          </mxGeometry>
        </mxCell>
        <mxCell id="5WwUB0t59IE9ERpQd4V4-53" value="" style="shape=image;html=1;verticalAlign=top;verticalLabelPosition=bottom;labelBackgroundColor=#ffffff;imageAspect=0;aspect=fixed;image=https://cdn0.iconfinder.com/data/icons/long-shadow-web-icons/512/nodejs-128.png;fontSize=12;" vertex="1" parent="1">
          <mxGeometry x="110" y="604" width="60" height="60" as="geometry" />
        </mxCell>
        <mxCell id="5WwUB0t59IE9ERpQd4V4-78" style="edgeStyle=orthogonalEdgeStyle;rounded=0;orthogonalLoop=1;jettySize=auto;html=1;entryX=0.005;entryY=0.63;entryDx=0;entryDy=0;entryPerimeter=0;fontSize=12;" edge="1" parent="1" source="5WwUB0t59IE9ERpQd4V4-57" target="5WwUB0t59IE9ERpQd4V4-38">
          <mxGeometry relative="1" as="geometry">
            <Array as="points">
              <mxPoint x="250" y="355" />
              <mxPoint x="250" y="500" />
            </Array>
          </mxGeometry>
        </mxCell>
        <mxCell id="5WwUB0t59IE9ERpQd4V4-57" value="" style="shape=image;verticalLabelPosition=bottom;labelBackgroundColor=default;verticalAlign=top;aspect=fixed;imageAspect=0;image=data:image/png,iVBORw0KGgoAAAANSUhEUgAABLAAAASwCAYAAADrIbPPAAAABGdBTUEAALGPC/xhBQAAACBjSFJNAAB6JgAAgIQAAPoAAACA6AAAdTAAAOpgAAA6mAAAF3CculE8AAAABmJLR0QA/wD/AP+gvaeTAACAAElEQVR42uzdd3hUVeL/8c+5M+mUUKRJkyJoCio2BJW1rW3tUURAdF1dC6Cu237b2O/2FWm2RV11VRDBXrG7CiggggEEpFhAegkQ0mbmnt8foAuShJQp9868X8+zz7Mkk8mZz7mZ5H4891wjAACAJFHUd1LztLJQruO4uQqomWOVYa2auXLTHGOaW9l0yckxcrOtlCFrmklK03efU46Rso2UIUmuTKaRzdr3e1jJMVLzar59E0lp3/tYSFJpNY8t2fNU+z6vKXdkK/Z+j0orlUnabWSqjFRirQ3L2J1GqrRyyiR3t5GpslYlRiZsjHa6RpWKaKfrOiWh7LSS6fNv2MFRAQAAkoEhAgAA4CVDC+/McdyMdhHZtla2paRcY5Rr5OTKKNfK5spVroxyjZRrpRba879c/rY5gGukEiuVGGm7lUpkVSJHJUZmz/+X3W73+f+ucTcETHjj48U/3018AADAK/gjDwAAxFxRv7FZaaWmfdBxOlhrWsja9taog5VtYazTXsbtIGtaSOqgPUUUEq9C0nbtKb7WyWi9ZLcb66yTcdcbOdsj1q5zg8763gu2bhit0S6RAQCAWKHAAgAAjTI87952IYU6yZiOxlFnI9NJUkdrbSdJXSQdIimdpJJalaRNkr42xqyRtFauvrYm8rWxwbUB66x9dMnNG4gJAAA0FAUWAACo0fV9J2WXhyq6Wdd0MbKdJHV0HXU2Vp0lddz7vwySQh1USnvKLWvsGsfV15LWWpk1xrFfVeREVk3/8PZyYgIAANWhwAIAIMUN7/pIpm2+vbvrOkdaOd0k281K3YzUTVJXSQ4pIU62G2m1lVktuatl9JlrzZJQeuZKNqQHACC1UWABAJACivLGtswMOD2tdXpYqbuR7WlluhvZHtpziR/gdZutzEoZu1LWrJTsSsfYVRURd8X0JbdvIx4AAJIbBRYAAElkcMF9LaRQN8fYPFkdaYzJs1ZHas9qKiBZbZexn8maJTL6zLFmiRuOLHli6W3riQYAgORAgQUAgA8NLrivRdAJ5VlXR1rZbhRVQLUOKLbCiqyesui21UQDAIC/UGABAOBhRXmj09OcFgWO0dFydbSM8mSVJ6PWpAM0kNUWGbPYyi5xrF1gHbugMrJj8fQlo6sIBwAAb6LAAgDAI67t9Y+m4czMPtbVka6xeUbqK2v6SsokHSDmwpI+t0bzjTTfsWaJQs6Cx5bdspVoAABIPAosAAASYPhR43Jd6+S7Vn2t1NdY9ZXUW9zxD/Ca9cZovpXmG5n5gUhg3qNLbt5ALAAAxBcFFgAAMVaUd2+TDFN1rDXOiZJONNKxkg4lGcC3vpHMPCs7x1j3o0qb/vH0JTeXEgsAALFDgQUAQJQNLhjXzTFmgJX67r0M8DhJ6SQDJK2IpOXfXn7oWs08fNH2BaM12iUaAACigwILAIBGKOo7qXlWVeVxrrEDjNTXWvWT1IpkgJS3S8YWW2m+YzVTJuO/jxffuIlYAABoGAosAADqYWj+uCOsCZwi2ZMlnSipO6kAqOOf3isl+5GRPgjLef/JRSOWkQkAAHX8LUoEAADUbHDBuG4BOWe4RgMcawZa2U6kAiA67CZjzFxrzUxX9i0uOwQAoGYUWAAA7FVUNC2Q/fna3q4b6G9lzpDsaeJyQADxs8tKc4zMW45jZ5WHt8+dvmR0FbEAAECBBQBIYdf3nZS2u6LqeMe4p1hjT5bMAElNSQaAR+yUNNNKHxir99e23j73vfdGh4kFAJCKKLAAACnl20sC966wOktSc1IB4BO7rfShkXnLlX1ryqKRn0jGEgsAIBVQYAEAktqVfce0DlYFf2BlzpDRD2XVhVQAJIkNkvnAyL4VCjovT10wYh2RAACSFQUWACCpDBw4Oth5e4sTXdeeb2TOsNLRkhySAZACPpPsS46ct5xdTWc++uU1FUQCAEgWFFgAAN+7quDuAmPdH8roTEknS8oiFQAprkzS+5LeDDiR1//z6e1LiAQA4GcUWAAA3xne9ZFMt+muAa7cMyRzsaTDSQUAav2r/ytZvW6MeTm3TG/cvXJkJaEAAPz1qwwAAB+45uiJh4Qi7jmyzvmS/aGkZqQCAA1SZqXZxuhlx0SefuzT278hEgCA11FgAQA86+o+Y/MibvB8GfdHsqaf2MsKAGJhz95Zjnn5sU9HzuLOhgAAL6LAAgB4RlG/sVlZpcH+EeP+yFhziaSOpAIA8WQ3WWNed6x9Ka2qcsbDy3+5i0wAAF5AgQUASKjr+07KLg9Vnu7KFhmriyU1IRUA8IRyY/S2lZ1emZb1wvT5N+wgEgBAolBgAQDibnDBfS0cU/UjI1Nkrc6UlEEqAOBplVb6wBi9bJT+5OPFN24iEgBAPFFgAQDi4sq+Y1oHQsFz95ZWP5SURioA4EsRGfuRZKYr5E57Yult64kEABBrFFgAgJgZlH9XpzQTPEdGP7JWZ0sKkgoAJBVXxn4o67wUsHr6P4tHriISAEAsUGABAKJqWN6Ezm7AXGFce5k1Oo7fNQCQMqykOdbap+U4T00uHrmWSAAA0cJJBQCg0b7d08paM9RIp0lySAUAUtqelVky09MCZsojC0ZuJhIAQGNQYAEAGmR410cyI812nWmthkr2QknppAIAqEbESu8aYx+vjKQ9O33JzaVEAgCoLwosAECdFRVNC2Qt2/CDiLHDjNVFkpqSCgCgHsol87IxejwrLWPGA/NvCBEJAKAuKLAAAAc1uGBCX2PsMGPNFZLakggAIAonIttco1cC1jz22KIRb0vGkgoAoJbfGwAAHGhYn3sOdyPu1XLsVbLqQiIAgFix0peO1WRrI48+seT2lSQCAPg+CiwAwHeK+o3Nyix1zndlrjfS6fyeAAAk4ARlvqQH0qoqnnx4+S93kQgAQJyYAACkPZcIOtL1kgZLakIiAAAPKJfMy470AJcYAgAosAAgRQ3rM/ZQ1w0OkXSdZHuQCADAw76W7JPBgP3Xowtv+5I4ACD1UGABQAoZ0WNiRkmWe4GMGWatzpYUJBUAgI+4VnrHGPt4dlrW0w/Mv6GMSAAgNVBgAUAKGNZn4tFuxF4noysltSARAEASnMhsszJT5OqhJ5aM/JREACDp3/cBAMno29VWezdkP4NEAABJfFIzX9IDWemZT7AqCwCS9r0eAJBMBh81oacTsT+WNT+WUWsSAQCkkB2Sngo4kYn/+fT2JcQBAMmDAgsAkkBR0bRA1rINP7DGjrJW5/H+DgDgTMfOMlYTstKznn9g/g0hAgEAn7+tEwEA+Nego+/uEAzboZK9SVJnEgEA4AAbJPsfNxy8f8rSW74iDgDwJwosAPCZ0RrtrC5oeZorXS/Zi8WdBAEAqAvXSu84sg9U9O7w7PTpl0eIBAD8gwILAHziqh4Tm5lse42sRkjqTiIAADT4NGiljL0nvbLi4YeX/3IXeQCAD965iQAAvG1wwbhujsz1krleUgsSAQAganZJejIiZ9yTi0YsIw4A8C4KLADwqGF9JgxwXTOSywQBAIg51xi9aqyZ8NiiEW9LxhIJAHgLBRYAeEhR3uj0TCf3QivzM0knkAgAAHE/Q1porO6vaBJ5fPqHt5cTCAB45e0ZAJBwQwvvb2Nt6BrJjpB0KIkAAJBodpOkRxzHvfuxT2//hjwAILEosAAggQbnjTvKcZwbJQ2VlEUiAAB4TpVkXjDGvevx4lvnEAcAJAYFFgAkwLA+EwZYq19aq/NJAwAAv5w92VlGzj8eLx7xMvtkAUCc34KJAADiY7RGO6sKW55nrf2N2N8KAAA/n0UtlOy4yl4dJk+ffnmEQAAgHm+9AICYKsobnZ4RyB1krPm1lXqTCAAASWO1jCZW5kQeYMN3AIgtCiwAiJFre/2jaVVG5rWy+rnYmB0AgCRmN8mY+12bNmHKopu2kwcARB8FFgBE2dDC+9tYVd0kq5GSWpAIAAApY5c19pGAcf/JnQsBILoosAAgSgYXjOtmjBllrPmJuKMgAACprMoaPWVk//JE8a3LiQMAGo8CCwAa6eo+Y/MikcBvZXS5JIdEAADAXhEjPSXr/vnxxbctJQ4AaDgKLABooKv7jM0L28AvjdVgSQESAQAANXCN0avGmN8/9unIBcQBAPVHgQUA9TS0cEK+K/2C4goAANSTa4xetXL/8ETxbZ8QBwDUHQUWANTRPsXVVeJSQQAA0HDWGL1CkQUAdUeBBQAHcVXB3QVG9neSvYz3TQAAEEXWGL0SsRo9ZdGo+cQBADXjRAwAajAsf3yha5zfUlwBAIAYs8boFbnOHx9fPOJj4gCAA3FCBgDfM6Rw3DFyndEyOp/3SQAAEEfWSi9a1x09ZcltC4kDAP6HEzMA2Gv4UeO6hiPOryVdJ/a4AgAAiWMl87QbsL+ZsnDUCuIAAAosANBVhRM7Gmt/J+laSUESAQAAHhGyRlPTHPf3jy687UviAJDKKLAApKxhve9p5aaFfy6ZkZKySAQAAHhUlaRHjUn/3ePFN24iDgCpiAILQMoZWnhnjrUZt0j215KakwgAAPCJUsnea8udv05eOXIncQBIJRRYAFJGUd7o9EynxXAr/VFSOxIBAAC+ZLVFxowJ7mo64dEvr6kgEACpgAILQNIbrdHOqoLcS63M3yV1IxEAAJAcJ3NmjWT/vKbV9offe290mEQAJPd7HgAkscEFEy50pL9JOoI0AABAkvpMxv76ieJbXyQKAMmKAgtAUhpcMKGvIzNGsgNJAwAApMTJndG7Vu4dTxTf9glpAEi69zgiAJBMhvUZe6jrBn4v6ceSAiQCAABSjJXM08FA5BePLrztS+IAkCwosAAkhX3uLPhbSU1IBAAApLgyyd7NHQsBJAsKLAC+NlqjnZWFuUNkzT/EnQUBAAD2Z7VFjv5c2av9PdOnXx4hEAB+RYEFwLeGFUw8w5W9S1IhaQAAANRqqbX2F5MX3/oyUQDwIwosAL4zNH/cEdY4d0o6jzQAAADqzkpvBaz92WOLby0mDQB+QoEFwDeGFt7fxrpVf5HRNWKDdgAAgIaKSPp3WtD89pEFIzcTBwA/oMAC4HkDB44Odtra4lor/VVSKxIBAACIihIZjV7bcvu97703OkwcALyMAguApw0tmHiqlZ0o9rkCAACI1UnhMmvtyCcW3/omaQDw8HsVAHjPoKPv7hCIuH83VkN4rwIAAIjDyaHRyyaimx9bMupr0gDgufcoIgDgJdf3nZRWFqq4SVZ/ktSURAAAAOKqTEZ3tigzf7t75chK4gDgFRRYADxjWMHEM9w9lwseQRoAAAAJPVVcaWRHPb5o1KtkAcAT70pEACDRrs6f2D1i9DfJFpEGAACAh04YjV6OWHfUlEW3rSYNAAl9PyICAIlyfd9J2eWVFf/PGv1MUiaJAAAAeFKFkf1nRRP379M/vL2cOAAkAgUWgIQYWjDhXFe610hdSQMAAMAXvpDRTU8Uj5pBFADijQILQFwNz7u3XSgQ/qexGkoaAAAAPjyJNHrZlblxcvHItaQBIG7vPUQAID6sGVI4YaixZpyVWpIHAACAr+2Q0R8qe7W/Z/r0yyPEASDWKLAAxNyw/PGFrjGTJJ1IGgAAAEl1SvmJK3v9lEWj5pMFgJi+2xABgFi5vu+k7LJQxS9k9WtJ6SQCAACQlMLW2PuqImm/mb7k5lLiABALFFgAYmJI/sTzrLH3sEk7AABAyvjCyrl58qIRrxEFgGijwAIQVUOOGNfepjn/YJN2AACAFD3JNHo55IZvmrr4Z2tIA0DU3luIAEB0WDO0YOJNVvqrpGbkAQAAkNJ2GKtfPb545CTJWOIA0FgUWAAabXDBuG6OzIOSOY00AAAA8B2rmU4g8OPHPr3lc8IA0BgUWAAabLRGO6sKWlxnpbskNSERAAAAVKNcMn+s7N1uzPTpl0eIA0BDUGABaJCr8yd2jxj7b0mnkgYAAAAOxsp86Mpc++SiEctIA0B9UWABqJeBA0cHO25rcbOs/iopm0QAAABQDxWSGc1qLAD1RYEFoM6GFk7It1YPSzqONAAAANCIM9GFjjHXPvbpyAWEAaBubxsAcBADB44Odtza8meS/aOkDBIBAABAFIQkO7bSLfn99CWjq4gDQG0osADUalj++EJrzMNW6ksaAAAAiIFiV7p2yqJR84kCQE0osABU6/q+k9J2V5X/3sj8UlIaiQAAACCGQkb2b1npWX9+YP4NIeIA8H0UWAAOMDR/3BEyzuOsugIAAECcFTvWDn1s8a3FRAFgXwEiAPA/1gwtaHm9NeZZSV3IAwAAAHHW1hpzTWHbc8OXbDrhw/f0niUSABIrsADsNeSIce0VdB6SdC5pAAAAINGs9JaMuWZy8ci1pAHAIQIAQwvGF5mgs1iUVwAAAPAII51hrF08tGDC9aQBgBVYQAobftS43HDEuUfSVaQBAAAAD5+6TndCzo2PLbtlK1kAKfouQARAaroqf+JZxtiHJR1KGgAAAPCBDbLmuicWj3yFKIDUQ4EFpJiifmOz0nc7fzfWjOA9AAAAAD5jJT1oTNXtjxf/fDdxAKmDk1cghQwtHH+Cdc3jMupJGgAAAPCx5cY6Qx5fPOJjogBSQ4AIgFRgzZDClqNkzRQZtSEPAAAA+FxrGXttYbtzApdsPPH99/SeJRIgubECC0hyQwvvb2Nt1X8knU0aAAAASEJvK+wOfWLpbeuJAkheFFhAEhtWMPEMV/YxSe1JAwAAAElss5GGP75o1KtEASQnCiwgCQ0cODrYcVuL38rqd5IcEgEAAEAKsNbYu6siJT+fvmR0FXEAyYUCC0gyw48a1zUUCUwxsv1IAwAAAKnHfizXvfKJJbevJAsgebAyA0giQwvGF4UjzgLKKwAAAKQuc6ycwCdX5Y8fQhZAEv1kEwHgf9f2+kfTqvTMMZKuJw0AAABgD2v0eFUkeNP0JTeXkgbgbxRYgM8NKRx3jFxnqox6kgYAAABwgOWOY6587NORC4gC8C8uIQR87Kr8CSNknQ8prwAAAIAa9XJd++FVheNvIgrAv1iBBfhQUd69TTJM+EEZDSINAAAAoM4nwFMq3OANXFII+PLnF4CfXFlwd29H9mkjm0caAAAAQL0tN0aXPV48ajFRAP7BJYSAjwwpmHhVQO7HlFcAAABAg/WyVh8OKZx4JVEA/sEKLMAHRvSYmLEt2/2nsWYkaQAAAABR80Clu33E9CWjq4gC8DYKLMDjhuVN6Ow6mibpBNIAAAAAon5SPF/GKXq8eMQXpAF4F5cQAh42JH/iedbRAlFeAQAAADFhpb7WuvOuKrj7HNIAvIsVWIAHFRVNC2QsX/87Wf1OFM0AAABAPFjJ/rOyd4ffTJ9+eYQ4AG+hwAI8Znjeve3CTuRJyQ4kDQAAACDu3jYmffDjxTduIgrAOyiwAA8ZUjjuGFnnOUmdSQMAAABImG9cx1wy5dORc4kC8AYuTQI84qr88UNknZmivAIAAAAS7VDHte8PKZhwDVEA3sAKLCDBBg4cHey4NffPkvklaQAAAACe80B2euYtD8y/IUQUQOJQYAEJdGXfMa0DVcGnJHMaaQAAAACe9b4x6UXsiwUkDgUWkCCD88YdZRznOSN1JQ0AAADA6yfPZo2sueTxxSM+Jg0g/tgDC0iAoYUTBjmOM4vyCgAAAPAHK9vJGveDIYXjh5EGEH+swALiqKhoWiBj2bq/sN8VAAAA4GsPrG21/eb33hsdJgogPiiwgDgpyhvbMsMJTJV0JmkAAAAA/mated2a4JVTFt20nTSA2KPAAuLgyoK7ewfkPi+pF2kAAAAASWOVMbro8eJRi4kCiC32wAJibEjhhLMDcueI8goAAABINt2t1YdDCyf+iCiA2AoQARA7QwonjJLVfyRlkQYAAACQlNIlXV7Y9tzK4k2vzSIOIDa4hBCIgYEDRwcP3dpivJFuJg0AAAAgVU6wzYNZ6Rk3PzD/hhBpANH++QIQVdf2+kfTqvTMqZLOJQ0AAAAgtVjprbSAW/TowttKSAOIHgosIIoGF4zr5sh5WdIRpAEAAACkKKsVTiBw/mOf3vI5YQDRwSbuQJQMyZ9wkiPzoSivAAAAgNRm1NN1I7OHFkw8lTCA6KDAAqJgaOGEQTJ6WzJtSAMAAACApFZW9vUhheOHEQXQeNyFEGgUa4YUthwtq7slBckDAAAAwD6Ckrm4oN3ZLS/deOIb7+k9SyRAw7AHFtBAw7s+khluuuNhyVxJGgAAAABqZfVMdkbmsAfm31BGGED9UWABDXBl/vi2AaOXJXMsaQAAAACooznGpF/wePGNm4gCqB8KLKCers6f2D0i+5qMepIGAAAAgHr6wnECZ3OHQqB+2MQdqIfBfSYeHzH2Q8orAAAAAA10mOtGZg/Jn3ASUQB1R4EF1NGQwvEXOK59V9IhpAEAAACgEVrJ6I2r8sefTxRA3VBgAXVwVf7Ea2XNM5KySQMAAABAFOQYY54fmj/hp0QBHBwFFlAra4YUThhtjP23pCB5AAAAAIiigDW6f0jB+L9Llj2qgVrwAwLUYODA0cFOW1veZ2V/QhoAAAAAYuw/2emZP3lg/g0hogAORIEFVKMo794mGU74KUnnkgYAAACAOHnTlpvLJq8cuZMogP1RYAHfMzzv3nYRJ/yylfqSBgAAAID4sh9HrM5/cvGtG8kC+B8KLGAfQwrH95I1r0k6jDQAAAAAJMgqN6BzpiwctYIogD0osIC9hhSOO0bWmSHpENIAAAAAkFh2k+M4Zz/26cgFZAFwF0JAkjS4YPwpss47orwCAAAA4Ammjevad4f1mTCALAAKLEBD8iee58jMkNScNAAAAAB4SHPX1etXFdx9DlEg1VFgIaVdVTBhsIx9TlIWaQAAAADwoGwj98WrCidcTRRIZQEiQKoaUjjxRiM9JClIGgAAAAA8zDHShYXtzikp3jhjDnEgFVFgISUNKZj4S8mOEzcyAAAAAOAPRtLZhW3PzireNOMt4kAq/gAAKcSaIYUT/ymrO8gCAAAAgD/PauzEycWjbpWMJQ2kCgospIyiommBjOXrJ8nqx6QBAAAAwNeseWxt620/fu+90WHCQCqgwEJKKMobnZ7htJgs6TLSAAAAAJAMrPRC2q5mgx798poK0kCyo8BC0htaeGeOtekvSDqdNAAAAAAkmTey0zMvfmD+DWVEgWRGgYWkNrTwzhwp/SVr9QPSAAAAAJCUrGamhyrOfXj5L3cRBpIVBRaSVlHfSc3TqypfM7L9SAMAAABAkptty805k1eO3EkUSEYUWEhKw48alxuOODOM0QmW+3IAAAAASI0T/PkmFPjhY8tu2UoaSDYOESDZDC64r0XEBt7IaZZxQpPcLBmHnhYAAABA8rNSXzct8uaVfce0Jg0kG87skVSGFt7fRgq9mdM8ozAtLSBJCoddle6okHVZigUAAAAgJXwWdIOnP7rk5g1EgWTBCiwkjSvzx7eVCb3dJDfzu/JKkoJBR02aZ7ISCwAAAECqODLihN8ddPTdHYgCyYIzeiSF4Xn3trPp7ts5zTKODASq72VZiQUAAAAgxXzuOJHTHvv09m+IAn5HgQXfG5Y3obPJCLzTpHlGd8fUfkhTYgEAAABIJVb60jHOaY8Xj/iCNOBnFFjwtcFH3NMlM8e8m90s47C6HsyUWAAAAABS7Mz/q4BrTv/P4pGrCAP+PYwBnxqSN7ZHRk7Gu1lNMjrW90CmxAIAAACQYr4OWHMaJRb8igILvjQsb0Ln9Cbp72flpHVp6HNQYgEAAABIrQLArIkoMnDKottWkwb8hrsQwncG5d/VKaNp+n8bU15J3J0QAAAAQGqxsp0cOe8OP2pcV9KA33DmDl8Z1mfsoRnZ2R9kZgUPi9ZzshILAAAAQIpVASsdJzyQuxPCV0ctEcAvhhbe3ya7mfPf9PRA72g/NyUWAAAAgJRitUIR99Qnlt62njDgB1xCCF+45uiJh8SqvJK4nBAAAABAijHqqaDz7vC8e9sRBvxxyAIe9+N+D7XMSLPvBoKmMNbfi5VYAAAAAFJMsRMKnPbYslu2EgW8jAILnnbjgPtaOMHgO47jHBWv70mJBQAAACDFmoGFlZHI6dOX3L6NMOBVXEIIz7rxvMktAmlpb8WzvJK4nBAAAABAirE6KsMJvjm44L4WhAGvosCCJ/3ign83DZaVvWqMOSYR358SCwAAAEBqsccYhV+5ttc/mpIFvIgCC54zumhak/LdmiFjTkzkOCixAAAAAKQSI9uvKiPjtaK8e5uQBryGAgueMnr4I5nbtu16Udae5IXxUGIBAAAASCnW9M9wws+P6DExgzDgJRRY8Ixp05akl6w3T1lrf+ClcVFiAQAAAEgxp2/P0tSBA0cHiQJeQYEFT3j3XRv88NG5j0RC4Qu8OD5KLAAAAACpxV7UcWuLhyTLSRA8IUAESPjborWB+0Y9cXdVWehaL4/TcYyC6QGFqiKSZd4AAAAAJL2jCtp91GLRxhkziAKJRoGFhLLWBn950eS/VZRWjvLDeCmxAAAAAKQSI3NCnzbnVBVvmjGTNJBIFFhIGGtt4HdXTL2jtKT8D34aNyUWAAAAgJRidHphu3NKijfOmEMYSBQKLCSEtTbwxyFP3bB98+67JPnummpKLAAAAAAp5qzCdueuKN742mKiQCKwGRvizlob+Mt1zw7e+OX2h2Xl67tahMOuSndUyLq0WAAAAACSXkjWXPzE4pGvEAXijbsQIq6stYGxt7x0zsavSv7l9/JK4u6EAAAAAFJKmoydPrhg/ClEgXijwELcWGsD9/z8jVO/XL55slybnSyvixILAAAAQArJcmReGlwwoS9RIJ4osBAX1trAI39854TPF66dJtc2S7bXR4kFAAAAIIU0c2RfHXzUhJ5EgXihwELMWWsDr01e0OvT2V9NlmtbJevrpMQCAAAAkDpMGyei14fn3duOLBAPFFiIKWut8/Eri7q88dinU92w2zXZXy8lFgAAAIAUcljECb9clHdvE6JArFFgIWastc7az7e2n3LvJ/+OhCMFqfK6KbEAAAAApMx5n9Q3wwlNGzhwdJA0EEsUWIjNm5i1TmmpWk+849W7wpXhgan2+imxAAAAAKQOc07HrS0ekSwnQIiZABEg2qy1RlKr0YOn/LZsZ+WPUzUHxzEKpgcUqopIluMCAAAAQFIrLGw3R8UbZ7xHFIgFCixE1d7yquUfhj517c7NZb9N9TwosQAAAACkkIEF7c7evGjjjHlEgWhjeR+iZm951eIfP33h/HUrt/zbWnEN9F7hsKvSHRWyLi0WAAAAgKQWcaVLpywa9QJRIJrYAwtR8W15de8vZpz4zaqt91Ne7Y89sQAAAACkiIAjTRlWMK4fUSCaKLAQLc2nj5nd6/MF6/4j12YTx4EosQAAAACkiGzXOi8O63PP4USBaKHAQqNZa5u/NX1Rp1lvLJtsXduaRGpGiQUAAAAgJRi1dt3Ia1fmj29LGIgGCiw0irW26cr5a1q/+u+PH3cj9jASOThKLAAAAAApolvAmOeL+o3NIgo0FgUWGsxam1NermaT/vDuXeGQ24dE6o4SCwAAAECKODGjNPCYZDn5QaMEiAANYa3NkpT7hyun/Lp8V+UwEqk/xzEKpgcUqopI3JwQAAAAQPI6sk/bj0zxphnvEQUaigIL9WatzZTU8s9XTy/avmn370mk4SixAAAAAKQGc0qfNuesLt40o5gs0KDzZyJAfVhrMyS1uOeO147ftG7XP0mk8bicEAAAAEAKMNbooaEFE08lCjQEBRbqzFqbJqnlU2Nndfn80/UPybXppBIdlFgAAAAAUkC6lX1mSN7YHkSB+qLAQp1YawOSWs2asbzZh6+veFSubUUq0UWJBQAAACAFtJITeHH4UeNyiQL1QYGFg7LWOpJabV9fkf7M3R8+6IYjvUglNiixAAAAAKSAI8IR56mBA0cHiQJ1RYGFWllrjaSWkoJ/++n0P4UrIieTSmxRYgEAAABIAWd13NLifmJAXXEXQtRon/Iq4w9XTr2+dHvFKFKJD+5OCAAAACDpGR3Tp82524s3vTaHMHDwwwWogbU2V1L2P2568bRvPt/8qCyFZ7yFw65Kd1TIurRYAAAAAJJSxBhz8ePFI18iCtSGSwhRLWttM0nZD/3xnd7rVmz5F+VVYnA5IQAAAIAkF7DWPnF1n7F5RIHaUGDhANbaHElN3n9lRfPFs7/6t3VtDqkkDiUWAAAAgCTXLOIGXhrW+x7udo8aUWBhP9baTEnNt20rD7x436x73LDblVQSjxILAAAAQJI7zE2LPFlUNI2rf1AtCix8x1qbJqmFJI257tnfVFVETiMV76DEAgAAAJDkzsxctv7PxIDq0GxCkmStDUhqLcn58/BnLt6+qfT3pOI93J0QAAAAQJLr36fdOcuLN85YTBTY73yYCGCtNZJaSXIm/eaNvE1rd9xJKt7FSiwAAAAAScxYq4cHF0zoSxTYFwVWittbXrWUFHz3mc9aLJ33zUOyNotkvI0SCwAAAEASy3KMnrnm6ImHEAW+RYGF5pIy1q/fHnzp3/MedCNuZyLxB0osAAAAAEnLqkso7E4dOHB0kDAgUWCl9vuBtU0lZUvShBtf/mO4MtyPVPyFEgsAAABA8jKnddza4p/kAIlN3FOWtTZbe1Zf6S/Dn7msZPPuX5OKP7GxOwAAAIAk1q+gzblrFm16bQFRpDaWbaQga2269mzabu79xRvHLF+w9hm5Np1k/C0cdlW6o0LWpcUCAAAAkFQqXMecOuXTkXOJInVxCWGKsdYGtGfTdvPqowvbrFiw9iHKq+TA5YQAAAAAklRmwNXTQwvvb0MUqYsCK4Xsc8dBZ9u28sBb0xdOdF3blmSSByUWAAAAgKQ8n5XtJFVNLSqaxlZIKYoCK7W0kJQmSWOuf/aX4YrIyUSSfCixAAAAACQja/WDjGXr/0ASqYkz3JT5QbfNJeVI0j9++sIZ36zY8ijzn9zYEwsAAABAEnKtnPMnLxrxGlGkFlZgpYC9dxzMkaTp4z7s+M3qLeNFeZX0WIkFAAAAIAk5Ru7koYV3H0YUKTbxRJDc9t5xsLkkbVhWkj779eUPKqIWJJMaKLEAAAAAJKEWct2pI3pMzCCK1EGBlcSstUHtveOgJI395Yt/ioQihSSTWiixAAAAACTd+a7R8duzNIYkUgcFVrL+MO9zx0FJ+ss1z15UURoaQjKpiRILAAAAQBKe+d4yNH/CUHJIDRRYyStXUlCSHvrjG703ri25k0hSGyUWAAAAgGRjje67Km/ikSSR/CiwkvEH2NqmkrIkaeH7q3MWz173L7k2m2RAiQUAAAAgyTQxjn322l7/aEoUyY0CK8lYazMlffeDO2XM7L+54UhPksG3KLEAAAAAJJleVWmZDxBDcgsQQfLYu2l7K+3dtP0PV077cWlJ2c0kg+9zHKNgekChqohkyQMAAACAzxnlF7Y7d1Pxxtc+JoxknWIkBWutI6m19u579a/fzCj4bO66F+XadNJBTcJhV6U7KmRdWiwAAAAAvlfpOKbfY5+OXEAUyYdLCJNHC+0trz77cFX2so/X30t5hYPhckIAAAAASSTDjdin2A8rOVFgJQFrbTNJGd/++5G/f/g3N+x2JxnUBSUWAAAAgKRh1DOUnjmeIJIPBZbP7d20vcm3//7LNc9cUFlaeRnJoD4osQAAAAAkzXmydO2QgolXkURyocDy8w/lnk3bW3z77+ljZnfZtHbHP0kGDUGJBQAAACCJzpj/NfioCT3JIXlQYPn1R9FaI6ml9m7Ev319RfDDt5bfa13Ltb5oMEosAAAAAEmiiRPR5KK80ewNnSQosPwrV3s3bZekf9709G/CIfdoYkFjUWIBAAAASBLHZTi5/0cMyYECy4estU0kZX3773/e/OIPdu+s/AnJIFoosQAAAAAkB/PzIfnjzyQH/6PA8hlrbbqk7y4TnPHk4tbrVmwdq72XEgLRQokFAAAAIAk4MnpieN697YjC7xMJ37DWOtqzabuRpPJt5c6bT8y/2424bUgHsUCJBQAAAMD/TJuQiTwqWU5sfCxABP6wd9P2VpLSvv3Y/w1/+uaynZVDSAex5DhGwfSAQlURyZIHAAAAAP8xRj0K2ny0a9GmGR+Shk/nkAj8wVrbTFKTb/99/69eP3rpx2ufl/3fRu5ALIXDrkp3VMi6tFgAAAAAfKnKWKf/44tHfEwU/sMlhD5grc3UPuXVyvlrspZ/8s1EyivEE5cTAgAAAPC5dBn38ev7TsomCv+hwPI4a21AUu6+H5v0p/f+4EZsN9JBvFFiAQAAAPD1ObbUu7yq4u8k4T8UWF7+wdqz71WLfefpzptfOrVyVxX7XiFhKLEAAAAA+PpcW7rlqoK7zyEJf6HA8rZmktK//cf7r6xo/s2KzXeJvcuQYJRYAAAAAHzMGLkPFeWNbUkU/kGB5VF7973K2fdjL/1r9j/ciG1POvACSiwAAAAAPtYhPeA8SAz+QYHlQdXte/WXYc9cVlkW/hHpwEsosQAAAAD4lbHmkqGFEwaRhD9QYHnM3n2vWu47Ny8/8FG7jetL/o904EWUWAAAAAD8ew6u+4flTehMEt5HgeU9TSWlffuP8m3lzjvPL5soV82JBl5FiQUAAADAp3Ijjv4tWU5mPC5ABN5hrc3Q9y4d/PO1z1xXtrNyGOnA6xzHKJgeUKgqIlnyAAAAAOAPRupW0GbO1kWbZswlDQ+fcxKBN1hrHUkt9v3YI396t+f2zWW/Ih34BSuxAAAAAPiRMfrn1X3G5pGEd1FgeUeLfedj/frtwUWzvhqvPXcjBHyDEgsAAACAD2VG3OBj1/edlEYU3kSB5QHW2iaSMvb92MQRr9weDkWOIh34ESUWAAAAAB+enR9TFqr4DTl4EwVWon88rE3Tno3bv/Pg794+cndJ5c2kAz+jxAIAAADgv5N0/WZI4bhjCMJ7KLAS+XNhrdGeSwe/O8Nfv3578LO5a8bKKkhC8DtKLAAAAAB+O42RdR7mUkLvocBKrFxp/6LqnpEzRkbCkQKiQdK8+1NiAQAAAPCXPmWh8p8Tg7dQYCWItTZbUta+H3vkT+/23FVSPoJ0kGwosQAAAAD466Td/J67EnoLBVYifg6sDUhqtu/HvrvroGvTSQjJiBILAAAAgI9kRNzAv4uKpgWIwhsosBIj9/vZ3z9qxo3cdRDJjhILAAAAgI+ckLF0/W3E4A0UWHFmrW0iKWPfjz3xt/92L9lexg8FUgIlFgAAAADfMPrz0PxxRxBE4lFgxZG1Nk1S030/Vr6t3Pnk/S/HyN2/1AKSGSUWAAAAAJ/IcE3g36M1mv4kwZiAOLHWGu25dHC/M/a/3/zCdeGq8PEkhFRDiQUAAADAD4xsvxX5LW4micSiwIqfZpLS9v3AU2Nndd6+pYxbcyJlUWIBAAAA8ANj9Per8yd2J4nEocCKA2tthqScfT9Wvq3cmfvWynFybTYJIZVRYgEAAADwgWzXsQ9KlhOXBKHAijFrraM9lw7u5+8jXxoaqgyfSEIAJRYAAAAAP5zf6wdXFUy4jiQSgwIr9ppLCuz7gVcfXdhm+8bSXxEN8D+UWAAAAAC8zsjcOejouzuQRPxRYMWQtTZTUtb3P/7u04v+LNc2IyFgf5RYAAAAADyueTAcGUMM8UeBFSM1XTr4j5tePK2yvOo8EgKqR4kFAAAAwNvMlUPyJ3JeH2cUWLHT/Pv5rpy/Jmv9yq1/IRqgdpRYAAAAALzMGnvP0MI7c0gifiiwYnEgW5ulai4d/Pdf3r/DjbidSQg4OEosAAAAAF5lpK7Wzfh/JBE/FFhRZq0NaM/qq/089Md3eu/eWcHdCoB6oMQCAAAA4FnG/mJI3sQ+BBEfFFjRd8Clg+Xbyp3PPvz6n7IKEg9QP5RYAAAAALx6uiLHThqt0XQrcUDIUWStzZaU+f2P/3PES8PCoUhfEgIa+FuBEgsAAACAN52woiD3x8QQexRYUbL30sFm3//4q48ubLN1U+kvSQhoHEosAAAAAF5kZO4ccsS49iQRWxRY0dO8ujzfeab4T3JtM+IBGo8SCwAAAIAn+4CgcycxxBYFVhTsvevggZcO3vziD6rKQueTEBA9lFgAAAAAPOiqIfnjzySG2KHAaiRrraNq7jq4cv6arHUrtv6VhIDoo8QCAAAA4DnGua+o39gsgogNCqzGq/bSwYf/9v5IN+J2Jh4gNiixAAAAAHiL7ZFeGvw5OcQGBVZjDk1rMyQd0K5OHzO7S+mOihtICIgtSiwAAAAAXmJkfzW08O7DSCL6KLAayFprJOVW97k57638P7nKICUg9iixAAAAAHhIlqvIGGKIPgqshmsmKfD9D95580unVpWHziAeIH4osQAAAAB4hbHmkiGFE84mieiiwGoAa226pJzvf3z9FyVp36zY/GcSAuKPEgsAAACAZ7iaOKLHRK7MiiIKrHqq7dLB+3716o1uxHYjJSAxKLEAAAAAeIJRz22Z7i0EET0UWPXXRFLw+x98/v457Xduq+DgBBKMEgsAAACAFxhj/jDo6Ls7kER0UGDVg7U2qD0F1gFmv7r899a1OaQEJB4lFgAAAAAPaBqIuH8nhuigwKqf5pIOOCO+547Xjq8oC/2IeADvoMQCAAAAkGjGasjggvGnkETjUWDVkbU2W9IBG7CtX789uHLRhr+qmmILQGJRYgEAAABIMOPIjC8qmhYgisahwKoDa60jqVl1n7v/Z28Md8PuEaQEeBMlFgAAAIAEOzpz6fqfEEPjUGDVTfPqsprx5OLWJZt3/4x4AG+jxAIAAACQUEZ/ubLvmNYE0XAUWAdhrc2QlFXd5955csEv5dpmpAR4HyUWAAAAgESxUstAZdofSaLhKLBqO8CsNdqz+uoA//7Dm0dUlFVdQUqAf1BiAQAAAEgYoxuu7jM2jyAahgKrdk0kBav7xGcff/M7WbEJG+AzlFgAAAAAEiQQcQP/IIaGocCqgbU2oD0F1gHG3PTiaaGKyKmkBPgTJRYAAACABDlvSP74M4mh/iiwatZc0gFnt9u2lQfWrtr2G+IB/I0SCwAAAEBCGHNnUdE0ruiqJwqsauzduD2zus/dM+KlwW440puUAP+jxAIAAACQAH0ylq0fRgz1Q4H1PXs3bs+t7nML31+ds23z7ttJCUgelFgAAAAAEuDPQwvvzCGGuqPAOlATqfrN2adN/OgWN+K2ISIguVBiAQAAAIizDlbpPyeGuqPA2oe1NqgaNm5/+YGP2pWWVPyElIDkRIkFAAAAIK6sfjEo/65OBFE3FFj7q3bjdkl6/+WV/0/WZhERkLwosQAAAADEUVbQBP9IDHVDgbWXtTZTUkZ1n3vgd2/mV5RVXkxKQPKjxAIAAAAQR1cPLpjQlxgOjgJL323c3qymzy+fv+53smQFpApKLAAAAABx4gSM7iSGOgRFBJKkHEnB6j7x9+ufOTtUGR5AREBqocQCAAAAEA/W6gdD8ieeRxK1czhQrCOpaXWf27atPLDhq12/4jABUhMlFgAAAIB4sEb/KCqaFiCJmrECq5aN2+8e9XKRG470JCIgdVFiAQAAAIg1I5uXuXT9YJKoWUoXWNbadEnV3lnwq+KNGds3lt7OIQKAEgsAAABArLlG/zeix8QMkqheqq/AqnHj9of/9u4wN+IeyiECQKLEAgAAABBbRupakmWvI4nqpWyBZa3NlpRe3ecWvr86p2RL2S0cHgD2RYkFAAAAIJas7O+v7fWPpiRxoJQssKy1RrWsvpp+95wbrGtbc3gA+D5KLAAAAACxY9qE0jJZUFONVF2B1aSm1/7Gc8UtS0vKr+fQAFATSiwAAAAAsWKNflGUN7YlSewv5Qosa21Aewqsar37WPEI61qW6wGoFSUWAAAAgBjJzXQCPyeG/aXiCqxmkqo943z5gY/a7d5VNYzDAkBdUGIBAAAAiAUrjRrWZyw3lttHShVY1to0SVk1ff79V1beIWszOSwA1BUlFgAAAIAYyHIjgf9HDP+Taiuwaty4/cl/zOpWubuyiEMCQH1RYgEAAACIOqOfXJ0/sTtB7JEyBZbds7Iqo6bPz5+56pfWKsghAaAhKLEAAAAARFlaxNg/EsMeqbQCq8bVV//6zYyCqrLQeRwOABqDEgsAAABAlF15VcHdBcSQIgWWtTZHqnl11cpPN92hGjZ2B4D6oMQCAAAAEEWOse4fiCEFCixrrZHUtKbPP/C7N/OrykOncygAiBZKLAAAAABRY3TJsPzxhakeQyqswGpS2+tc/sn6n4nVVwCijBILAAAAQJQY1zi/TfUQkrrAstY62lNgVWvSb97IC1WEzuRnAUAsUGIBAAAAiA57Waqvwkr2FVhNVcvqqpWfbrxdrL4CEEOUWAAAAACiwLjG/CaVA0jaAstaG5SUXdPnH/rjG70rK6rO4mcAQKxRYgEAAACIgstS+Y6EybwCq9bVV8s/3nCHbGrchRFA4lFiAQAAAGgkxzE2ZVdhJWWBY61Nk5RV0+cf/r+3e1WWh37IsQ8gniixAAAAADSGtbZoaOGE/FR87cm6AqlZbZ9cOnfdz1h9BSARKLEAAAAANIJjrf1/KfnCk+0FWWszJGXU9PmH/+/tXpUVVedwzANIFEosAAAAAA1nrkjFVVjJuAqp1tVXn8375nZWXwFINEosAAAAAA3kyOrXqfeik4i1NlNSWk2ff+iP7x1eVR46l2MdgBdQYgEAAABoCCtdcWXB3b1T6TUn20qkprV98vOPv76N1VcAvIQSCwAAAEADBAJyf5tKLzhpyhxrbZZqWX01fczsLhXlofM4xgF4DSUWAAAAgAYYNCRvbI9UebHJtBqp1tVXH3+w+mZZBTi+AXgRJRYAAACAegrIBG5LlRebFAWWtTZbUrCmz7/8xIJDyssqL+PYBuBllFgAAAAA6sXo2uF597ZLhZfq+wLLWmt0kNVXs5777Hq5yuDIBuB1lFgAAAAA6iEzYsK3pMILTYYVWNlSzZcGzpqxvGnZjoqhHNMA/IISCwAAAEBdWaNbivpOap7sr9PXBdbe1VdNanvM6w9/Mtza2ldoAYDXUGIBAAAAqKPmGZUVP0n2F+n3FVi1rr7asKwkfWdJxbUcywD8iBILAAAAQJ0Y/Wx410cyk/kl+rbAqsvqqwf+9MYVbsRtw5EMwK8osQAAAADUQbtIkx1XJfML9PMKrFpXX23bVh7Ytrn0Bo5hAH5HiQUAAADgYKwxPx+t0U6yvj5fvrC6rL66/2evnudG7GEcwgCSASUWAAAAgIPotSq/5UXJ+uL82szVuvpKkras33Ujxy6AZEKJBQAAAKA21thfJetr891Z0N7VV21US4F1580vnbpm2aYpHLpINllN0mVM8pQXZbsqmdQGCIddle6okHUtYXhURlaagmne/W9EFWUhRcIuExVDOc0yCAG+UrE7pEjEm+8L6RlBBdMDTBLA3/moI9fVaVOWjHo32V5X0IdjPujqq/VfbL2ZQxbJaPTkK5TVJD1pXs9jf31PH7+9iomt7xv33pVYlFjedfX/G6iTLzzCs+Mbf+srmv8OP3ux9K+ZbMMJf/nrj5/V0nlrPTm2y289ST+86igmCfCRoYUTCSGBjDG/lJR0BZavLiGs050Hf/dmfrgy0p9DFvC+S2/pp6a5WQTRAFxOCAAAAKA6xtgfXlVwd0GyvS6/7YGVpYOsvlqxcONPOFwBf8hplqGLfno8QTQQJRYAAACA6hjjjkq21+S3AqtpbZ+c8eTi1pUVlT/iUAX847gze+iI4zoSRANRYgEAAAA4gNWQK/PHt02ml+SbAstae9DVVx88Wzxcrtg1FfCZK27rr4ysNIJoIEosAAAAAN+TETDm+mR6QX5agVXr6qsNy0rSS3dUDuEYBfynZdsmOufqowmiESixAAAAAOzP3jKix8SkWeTjiwLLWpupg9wx8YG/vnGxjbiHcIAC/jTw0nx17tWaIBqBEgsAAADA/5g2JZn28mR5NX5ZgdXkYA/YvqnsxxycgI/fjByjwXecrEDQIYxGoMQCAAAA8C1rzK1Jc87o+bCtzZCUXttjxo98+aRIKJLHoQn4W4duLfWDy/IJopEosQAAAADsYY8ZUjjx5GR4JX5Y6nDQ1VdrV2+7joMSSA7nDj9GbTvnEkQjUWIBAAAAkCQr99ZkeB2eLrCstWlS7XcVfGrsrM5VFaEzOCSB5BBMC+iKW/vL0Ls0PktKLAAAACDlGWsuHFwwrpvfX4fXV2AddPXVwve/+rGsAhySQPLo0aedTjj7cIKIAkosAAAAIOUFHDk3+/1FeLbAstYGJWXV9pi5by9rUlZafgXHIpB8Lr7xBDVvlU0QUUCJBQAAAKS8n1zVY2IzP78AL6/AyjnYA155aOGV1qopxyGQfLJy0nXxTScQRJRQYgEAAAApramTqeF+fgGeLLCstY6kWpdelG8rd0q2ll3DMQgkr2MGdlNB/y4EESWUWAAAAEDqsrK3SNa3JwNeXYGVI6nWUO/+3Zun2ojlzBZIcpePOklZOekEESWUWAAAAECKMuo5JH+Cb2+C57kCy1prVIfLBzd+WTKMow9Ifs1bZeu8a/sSRBRRYgEAAACpyTr6qV/H7sUVWNkHG9fz989pH6oMnc6hB6SGky88Qt3y2xJEFFFiAQAAAKnHWHPBsD5jD/Xj2L1YYB109dXcd1YOkVWAQw9IkTdZY3TlzwYomMaPfTRRYgEAAACpdxrgRgLX+XHgniqwrLWZkoK1PWb9+u3B3SVVgzjmgNTStnOuzhhUSBDR/u1FiQUAAACkFqPrr+87Kc1vw/baCqwmB3vAo79974fWddtxxAGp54dDjlK7LrkEEWWUWAAAAEBK6VBWVXae3wbtmQLLWpsu6aC3Gtu8fsfVHGtAagoEHQ2+42QZQ9ESbZRYAAAAQOqwNuC7zdy9tALroHtfTf3H+13DlZGTONSA1NX1yDbqf34vgogBSiwAAAAgNRhjzxp81ISefhqzJwosa21AUubBHrfwwzXDJXFmBaS4C64/XrmH5BBEDFBiAQAAACnBmIh8tZm7V1Zg5eggxdSKRV9nlu+uLOIYA5CZnaYrbu1PEDFCiQUAAAAkP2N17fCuj2T6ZbwJL7CstUZS9sEeN/XOuRdY1+ZyiAGQpLwTO+moU7oSRIxQYgEAAABJzqh1uOmuS/0yXC+swMqqyzi2b9o1jKMLwL4uG3GSsptmEESMUGIBAAAASc5a32zm7oUC66Ab2Tz4u7ePDIfcozmyAOyrWcssXXDdsQQRQ5RYAAAAQBIzGnBVwd0FfhhqQgssa22GpLSDPW5F8bqhHFUAqtPvvN46/OgOBBFDlFgAAABA8jLW/bEfxpnoFVgHXX31VfHGjIqyqgs5pABU+2ZrpMtvPUlp6QHCiCFKLAAAACBZT6o0ZESPiZ7fmyVhBZa1NiDpoLvdPzFu1jly1ZwjCkBN2nRsrh8OOYogYowSCwAAAEhKrbZnu+d7fZCJXIGVU5cHbdu06wqOJQAHc8agQnXs0YogYowSCwAAAEhC1lzj9SEmpMCy1hpJ2Qd73PP3z2kfqgz350gCcNA3s4CjQbf3l0OxEnOUWAAAAEDS+eGgo+/29ObCiVqBlVWX7z3v3dVXyIqNbQDUSedeh+iUi44kiDigxAIAAACS7E/8sPX0DfQSVWAddPVVeblMaUn55RxDAOrj/OuOVat2TQkiLr/hKLEAAACA5GGvlaxn/7iPe4FlrU2TlH6wxz3w65dOtBHbhQMIQH2kZwRVNOokgogTSiwAAAAgaRw+JH9iP8+eeyTge9Zp8/ZvVpeweTuABjny+I7qe1p3zX9nFWHE4xfJ3hKrdEeFrGsJBPCBbRtL9ZdrniEIfKdk827Pju35f83VjMcXMkkJVnBSZ137+9M8O755b63UlDEzmSig8a6RNNuT5x3x/GbWWkd79r+q1cL3V+dUlofO5bgB0FCX3XKiln/yjUpLKggjHr9MKLEAX3Ejrjat3UEQ8IXSHRUq3cHv80Tbua3c0+OrKAtpy7qdTBTQWEaDivLuvW36kptLvTa0eF9CmC3poNeZvPjAxxdY1+Zw5ABoqJzmmbrohuMJIo64nBAAAADwvSYZgdAlXhxYIgqsg9qxtYzLBwE02vFn9VTvYw8liDiixAIAAAB8zjrXeHFYcSuwrLUZqsMli5Pv/OCwUFXkWI4YANEw6LYBSs8MEkQcUWIBAAAAfmZPvTp/YnevjSqeK7DqtPpqyZw1l6sOlxkCQF20bNdE5ww7hiDijBILAAAA8C3jGneY1wYVlwJr7+btmQd7XHm5TNnOyos5VgBE0w+K8tXp8NYEEWeUWAAAAIA/WZmrJOupP+TjtQIrS3VYVfXgb14+3o24nThUAET1jc4xGnzHyQoEHcKIM0osAAAAwJe6X1V49wmeOq+L0/ep0+WDa1dtv4hjBEAsHNq9pQZemkcQCUCJBQAAAPiRe6WXRhPzAstamy4p7WCPW79+e7CyLHQuBwiAWDn36r465NBmBJEAlFgAAACAvxirQQMHjvbMHbHisQKrTquvHv+/mada17JJDYCYScsIaNDPBsjQoSQEJRYAAADgJ6bNoVtanuaV0cS0wLLWGu3Z/+qgNn9TchEHB+BPqxdv1LrV23wx1p592uv4s3oyaQlCiQUAAAD4iPHOZYSxXoGVrTps3r5y/pqsqvLQDzkyAH96+u4Pdc/PX1M4FPHFeC++8QQ1bZHFxCUIJRYAAADgD0bmkqJ+Yz1x8hTrAqtOL3Lq3XPPtq7N4dAA/KlpiyyVllSoeOZXvhhvdtMMXXLTCUxcAlFiAQAAAL7QLLPUOd8LA4lZgWWtDUpKr8tjS7bsvohjAvCvb1czffDiUt+Mue9p3VVwUmcmL4EosQAAAADvszKeuIwwliuw6rR5+9svfJZbVRE+lUMC8K9mewusVcUbtO6L7b4Z92Uj+ikjO40JTCBKLAAAAMDzzivKG9sy0YOIZYFVp8sHZ01b/CNZyxkk4GNNW/7vx33WS8t8M+4WbZro/Gv6MoEJRokFAAAAeFp6pnEuTvQgYlJgWWszJQXq8tiS7WUXcywA/rbvhujz3lyh8tIq34z9lIuPVNcj2zCJCUaJBQAAAHiXNRqc6DHEagVWnVZfPXPPrA7hqshxHAqAv+1bYFWUhXy1F5YxRoNuH6BA0GEiE4wSCwAAAPDsmdPAYX3GHprIEUT9jM1a60jKrMtjP5215kJZcdYI+Ny+BZYkvTt9kaoqwr4Zf4fDWuj0KwqZSA+gxAIAAAA8ybGuc3lCBxCD58ySVKczj9LtFedzDAD+17TF/p317p2V+ui1z331Gs4eepTads5lMj2AEgsAAADwHitzWSK/fywKrDrdffD5++e0D4cifTgEAP9r0jxTTmD/t5O3nypWJOz65jUE0wK64rb+MnQm3pgPSiwAAADAa/oNyr+rU6K+eVQLLGttUFKd7ig4//0vzlcdV2oB8DZjjHKaZez3se2bd2vemyt99Tp6FLZTv/N6M6EeQYkFAAAAeOvUL2gCFybqm0d7BVZ2XR+4u6TyXOYeSB5Ncw/c+m7G4wsUqor46nVceP1xat4qmwn1CEosAAAAwEucSxP2naP8fHW6++DLTyw4JBwK92XigeSRmZN+wMe2bSzVBy985qvXkZWTrktv6ceEegglFgAAAOAV9uShhfe3ScR3jlqBZa1NlxSoy2Pnz1h5jmzdHgvAH6orsCTpjcmfqmxXpa9ey1GndFXhgC5MqodQYgEAAACeEHBtZUIuI4zmCqw6X3Ozc1vZecw5kFyyaiiwynZV6q0ni333ei4feZKymqQzsR5CiQUAAAB4gE3MZYRRKbCstUZSZl0e++4zn7UIV4VPZMaB5JKVU/P9G/773BJt31Tqq9fTrFW2fnTdcUysx1BiAQAAAIlljD2tKG9sy3h/32itwMqo63N98Nzis61VkCkHkktmds2rlUJVEb0waZ7vXlP/83upe0E7JtdjKLEAAACAhEpLDwR+FO9vGq0CK6uuD9y5vYy7DwJJKLOWFViS9Ml7q/XZnDW+ek3GGF15xwClpbNln9dQYgEAAAAJPFdyFffLCBtdYNXn8sFZ737RtKrSPZmpBpJPTZu47+uZez9SqCriq9fVpmNznTm4DxPsQZRYAAAAQIIYnXVVj4nN4vkto7ECK0tSnc4e3n10/lmyNo2ZBpJPVh0KrM3f7NRbU/23oftZg/vo0O4tmWQPosQCAAAAEiLDybZxvcIuWgVWnezYWs7lg0CSysyuWzf95pRPtWnNDl+9NifgaNBtA+RQkngSJRYAAAAQf9bG9zJCp3GDtY72bOB+UCvnr8mqrAidyhQDySmzSXqdHhcORTRtwmxZ66/X1+WIQzTgwiOYaI+ixAIAAADi7pyifmOz4vXNGrsCq84Dnf7gx6fI2izmF0hOtd2F8Ps+X7BOc2Z87rvXeMF1x6lVu6ZMtkdRYgEAAABxlZO+yzk9Xt+ssQVWZl0fWLJ+9+nMLZC8MrKC9Xr885PmaufWMl+9xvTMoC4dcSKT7WGUWAAAAEAcOea8uH2rhn5hfS4fLC+XqSgLUWABSSwYDNTr8WW7KvX0PR/67nXmn9hZxwzsxoR7+likxAIAAADiwVhdINm4/OHdmBVYdb4c8NE/vlFoXbcdUwskr0Ba/d9OFr7/pT794Evfvdaikf2U0zyTSfcwSiwAAAAgLjoMzhvfJx7fKC4F1prVW89gToHkFgg07O1k+sTZKttV6avXmtM8Uxf+5Dgm3eMosQAAAIA4nAs6gfPj8X0adMa59/LBOu/YXLGzgssHgWR/00prWIG1c1u5Xnhgnu9e7wlnH65ex3Rg4j2OEgsAAACILSsbl32wGroCq86rr159dGGbcMgtZEqB5FbfPbD29dFry7X8k3W+er3GSIN+NkDpmUEm3/PHJiUWAAAAEEPHX5k/vm2sv0nMC6w5by8/UxJnDUCSC6Y3/Ipka6Wpd81UVUXYV6+5VbumOnvo0Uy+H45PSiwAAAAgVpygcc6J+Tep/4lm/S4f3L29kssHgRRgjJHTiHJg64Zdeu2xT3z3uk8rylennq04AHyAEgsAAACIDWttzPfBasiSiTqvvtqwrCQ9VBkewFQCqaGh+2B9693pi/X18i2+es1OwNHgn58iJ+BwAPgAJRYAAAAQA0Y/HNFjYkZMz70a8DV1vnf8fya+P8C6NoeZBFKlHAg06utd12rKmA8UCbu+et2Hdm+pgZfkcQD45jilxAIAAACirMn2TPeUWH6DehVY9b18cNs3O89gDoHU0dgVWJK0bvU2vTNtke9e+7nXHKPWHZpxEPgEJRYAAAAQbSamdyOs79lmhuqxIXtleeg0JhBIoVIgLRCV55nx+AJtWrPDV689PSOoy0edxEHgp+OVEgsAAACIHqMfxfLp61tg1Xn/q4f++E5vN+J2YgYB1FeoKqInx86Utf4ad+9jD9VxZ/ZgAn2EEgsAAACImm5D88cdEasnr3OBZa012rMCq07WfLZpIHMHpBbXjV7jtKp4g2a/ssx3GVxy04lqmpvFweAjlFgAAABAdFjHOStWz12fFVj1unywtLTiFKYOSLE3Kze6S6ZemDRXJZt3+yqDnGYZuvimEzgYfIYSCwAAAIjGSaHOjNVT16fAqvPdB78q3pgRqnSPZ+aA1OJGucCqKAvpqfGzfJfDsad3V36/zhwQPkOJBQAAADTawBE9JmbE4oljUmA98+C842Ut19AAKSbaK7AkaclHa7TgvS98l0XRyH7KyErjoPAZSiwAAACgUXJKsnRiLJ64TgWWtTZd9Si7Nq/bweWDQAqKRYElSdMmzlZpSYWvsmjRponOHX4MB4UPUWIBAAAAjTkxtDG5jLCupVRmfZ60vLSKAgtIQW6MCqzdOyr0/KS5vstj4KV5OuzINhwYPkSJBQAAADSYPwqsN54rbulG3COZLyD1xGoFliTNfWOFls5b66s8jDG64vYBCgQdDg4fosQCAAAAGnBeaNS3KG9sy2g/70HPqqy1QUnBuj7hvBdXniIrztaAFOTGsMCSpKfGzVJlechXmXQ4rIVOu7yAg8OnKLEAAACAegukB4KnRftJ61I01evywR1bd3P5IJCirI1tgbVtY6leeWS+73I5Z9jRats5lwPEpyixAAAAgPoxMdgHK+oFVlVF+GSmCkhNbsTG/Hv899nP9MWSjb7KJZgW0BW39peh//AtSiwAAACg7qx0VrSfs9YCy1rrSEqv65M98qd3e7oRtwNTBaTom5S1cfkeU8fNUiTs+iqbHn3a6cRzenGQ+BglFgAAAFA3Ruo6JG9sj2g+58FWYGXU58m+/Gwzlw8CiLn1X2zXm09+6rtxX/TT49W8dTYT6GOUWAAAAEAdBYJRvYzwYAVWvS4f3L2rggILQFy8/sRCrf9yu6/GnJWTrktuOpHJ8zlKLAAAAKAOorwPVtRWYG1fXxEMVYZPYIYAxEMk7GrKmA9ifufDaDv61MNU2L8LE+hzlFgAAADAQf1g4MDRwWg9WY0FlrU2XXXb5F2SNHnMe0dZ1zZlfgDEy1dLN2vmC0t9N+7LR52krCbpTKDPUWIBAAAAtcrtsL3lMdF6stoKqnrtf7VpzfZ+zA2AeHvxoXnaun6Xr8bcrFW2zr/2WCYvCVBiAQAAADVzIjZqW03VVmDVb/+r3VVcPggg7qoqwpo2Ybbvxj3ggt7qlt+WCUwClFgAAABAjWJbYFlrHUlpdX2S9eu3B8NVEZYTAEiIpfPWat5bK301ZmOMBt9xstLSA0xgEqDEAgAAAKo78dEpRUXTonLSU9MKrHpdPvjsuDn57H8FIJGevfcj7Sop99WY23RqrjOu7MPkJQlKLAAAAOAAzdM++6YgGk9UU4FVr8sHN369ncsHASTU7p2VevbeOb4b91mD+6h91xZMYJL4tsQSHRYAAAAgSQqYQFQuI4zKCqzdu0InMiUAEm3+O6u0aNZX/nozDzoafMfJMobGI1kEg47S0rg0FAAAAJAkKxubAstam6baN3ffT/m2cicUCh3HlADwgmkTZqu8tMpXY+5yxCEacEFvJi+JcBkhAAAA8O0fxzpFso3+A7m6oqpelw8+MW52b0XE9S8APGHH1jK9/PDHvhv3j647Ti0OyWECAQAAACSbQ67Ku/uIxj5JdQVWen2eYM3KrVw+CMBTZr64TKsWbfDVmDOz03TFbf2ZPAAAAABJxzGNv4xwvwLLWmtUzwKrfFc5BRYAT7HW6skxMxWqivhq3Eee0ElHn3oYEwgAAAAguc7Rol1gaU95VefrEsvLZaqq3OOZCgBes2ntDr3+xELfjfvSW/opu2kGEwgAAAAgiZiBjX2G7xdY9Tprmjrm3R424h7CRADworemFmvtyq2+GnOzllm68HruiwEAAAAgqbQfkje2R2OeoFEF1tfLt57AHADwKjfiavKdH8iNuL4a94nn9NLhx3RgAgEAAAAkDWuCjbqM8LsCy1rrSEqrzxeX7iynwALgad+s3Kr3nl3iqzEbI11xa3+lZQSYQAAAAABJwTRyH6x9V2DVe9OVcEW4L1MAwOtefeQTbf5mp6/GfMihzXT2kKOZPAAAAADJol9jvrjBBdaMJxe3jkTcLuQPwOuqKsOaetdMWeuvcZ9+RYE69mjFBAIAAABIBj2H9b6nwSc4DS6wij9YzdIAAL6x4tP1mjPjc1+N2Qk4GnR7fzmOYQIBAAAA+J2JpNnjG3x+JEnW2oCkem22UrJp1zFkD8BPnrt/jnZsKfPVmDv3OkSnXpLH5AEAAADwPWPcBu+l/u0KrHrvf1VZFqbAAuAr5bur9My9H/pu3Odd21et2jdlAgEAAAD4m1WjC6z0ep0Ebit3wlXhPiQPwG8Wvv+lPv3gS1+NOT0jqMtHncTkAQAAAPC7E0drtNOQL2zQCqzJd39wuLViOQAAX5o+cbbKdlX6asxHHNdRx57enckDAAAA4Ge5ywtaHd6QL3Qasv/VuhUlbOAOwLd2bivXCw/M8924L72ln5rmZjGBAAAAAHzLaeA+WI7qefmgJO3eVUWBBcDXPnptuZZ/ss5XY85plqGLfno8kwcAAADAt4yrBhdY9d/AvSLUl8gB+Jm10tS7ZqqqIuyrcR93Zg8dcVxHJhAAAACAPxmd2JAvq/cKrLlvL2viRtyeJA7A77Zu2KUZjy3w3bivuK2/MrLSmEAAAAAAflRYlHdvk/p+kSMpWJ8v+PClVX1k67dnFgB41TtPL9aaz7f4aswt2zbROVdzJTcAAAAAXwqkOaFj6vtF9b514dZ1O48hawDJwo24mnznB4qEXV+Ne+Cl+ercqzUTCAAAAMB3AjL1voyw3gVWWVmI/+wPIKmsW71N70xf5KsxO47R4DtOViDoMIEAAAAAfMU1tt4budf7zCdUGelD1ACSzWv/WaCNX5f4aswdurXUDy7LZ/IAAAAA+IpjnePq/TX1efCMJxe3tq7bjqgBJJtwKKKp42bJWn+N+9zhx6ht51wmEAAAAIBvWNlOV/YdU689UepVYBXPXF1AzACS1ariDZr9yjJfjTmYFtAVt/aXMcwfAAAAAP9Iq0o/qj6Pr1eBVbp5N9eqAEhqL0yaq5LNu3015h592umEsw9n8gAAAAD4hmtUrz3W61VglZWHKLAAJLWKspCeGj/Ld+O++MYT1LxVNhMIAAAAwB+sG7sCK1wVocACkPSWfLRGC977wldjzspJ18U3ncDkAQAAAPAFIxObAmvWjOVN3YjbmYgBpIJpE2ertKTCV2M+ZmA3FfTvwuQBAAAA8DwrHV6Ud2+Tuj6+zgXWvNeX58nWb8UWAPjV7h0Ven7SXN+N+/JRJykrJ50JBAAAAOB1TpZTVeebBda5kNq2sZzLBwGklLlvrNDSeWt9NebmrbJ13rV9mTwAAAAAnhcxdb+MsM4FVkVpFQUWgJTz1LhZqiwP+WrMJ194hLrlt2XyAAAAAHiacWNQYFVVhimwAKScbRtL9coj8/31S8AYXfmzAQqmBZhAAAAAAB4+d1F0C6wNy0rS3Yjbk2gBpKL/PvuZvliy0Vdjbts5V2cMKmTyAAAAAHiWlfKv7zsprS6PrVOB9ex/5vSWVZBoAaTkm6q1mjJmpsKhiK/G/cMhR6ldl1wmEAAAAIBXZVRUlh9RlwfWqcDavHYHlw8CSGkbvy7RW1OLfTXmQNDR4DtOljGGCQQAAADgSRGnbvtg1anAKt9VmUekAFLd608s1Povt/tqzF2PbKP+5/di8gAAAAB4kmPtUXV6XF0eFKpyexMpgFQXCbuaMuYDua711bgvuP545R6SwwQCAAAA8BxXpk5X/dWpwAqHIocTKQBIXy3drJkvLPXVmDOz03TFrf2ZPHyHq0oBAADgmb9NpTpd9XfQAmvGk4tbW9e2JFIA2OPFh+Zp6/pdvhpz3omddNQpXZk8SJIyc9JlHFosAAAAeEL7oryxB+2dDlpgLfvwS1ZfAcA+qirCmjZhtu/GfdmIk5TdNIMJhAKOUZPmmZRYAAAA8IR0pR30ToQHLbB2bC2jwAKA71k6b63mvbXSV2Nu1jJLF1x3LJMHSVIw6FBiAQAAwBucyJEHfcjBHlBWWkWBBQDVePbej7SrpNxXY+53Xm8dfnQHJg+SKLEAAADgDY7U+AIrxAbuAFCt3Tsr9ey9c3w1ZmOky289SWnpASYQkiixAAAAkHhW5qAbuQcP9gDuQAgANZv/ziodM/AwFfTv4psxt+nYXD8ccpRefng+E4g9fwzsLbFKd1TIupZAUkBaRlB5J3YiiBTx5WebtHtnJUEAALzsoCuwai2w3niuuKVc24ocAaBm0ybMVo8+7ZXVJN03Yz5jUKEWvv+l1q7cygRizx8ElFgppXmrbP3qgYsJIkX89cfPaum8tQQBAPCyQwcX3NdiyqKbttf0gFovIVz63696kSEA1G7H1jK9/PDHvhqzE3A06Pb+crhsDPvgckIAAAAk7BzFhmq9E2GtBda2LeVcPggAdTDzxWVatWiDr8bcudchOuWiI5k87IcSCwAAAAnh1H4ZYa0FVmVpVU8SBICDs9bqyTEzFaqK+Grc5193rFq1a8oEYj+UWAAAAIj/SVUjCqxQKMwlhABQR5vW7tDrTyz01ZjTM4IqGnUSk4cDUGIBAAAgzmq9E2GtBVY4ZFmBBQD18NbUYt9tjH7k8R3V97TuTB4OQIkFAACAeJ6a1PbJGgust1/4LNdG3EPIDwDqzo24mnznB3Ijrq/GfdktJ6pJbiYTiANQYgEAACBOOhb1ndS8pk/WWGAtm7W2G9kBQP19s3Kr3nt2ia/GnNM8UxfdcDyTh2pRYgEAACAe0qoqetT0uRoLrO0bdx5GdADQMK8+8ok2f7PTV2M+/qye6n3soUweqkWJBQAAgFgz1ta/wCorD3UlOgBomKrKsKbeNVPW+mvcg24boPTMIBOIalFiAQAAIKYcU/8CK1wR6UJyANBwKz5drzkzPvfVmFu2a6Jzhh3D5KFGlFgAAACIFWNV492lai6wqsJdiQ4AGue5++dox5YyX435B0X56nR4ayYPNaLEAgAAQIw0oMCKuF3JDQAap3x3lZ659yNfjdlxjAbfcbICQYcJRI0osQAAABAD9buEcNaM5U3l2lbkBgCNt/D9L1Q88ytfjfnQ7i018NI8Jg+1osQCAABAlLUfWnhnTnWfqLbA+vS/X3IHQgCIomkTZ6tsV6Wvxnzu1X11yKHNmDzUihILAAAAUWSMm1btZYTVFljbN5R2JTMAiJ6dW8v04oPzfDXmtIyABv1sgAy9BA6CEgsAAADRYuVUexlhtQVWRVmoK5EBQHR9+OpyLf9kna/G3LNPex1/Vk8mDwdFiQUAAICoMLbuBVZlOQUWAESbtdLUu2aqqiLsq3FffOMJatoiiwnEQVFiAQAAoNHnTTXcibDaAisSdrsQGQBE39YNuzTjsQW+GnN20wxdctMJTB7qhBILAAAAjVSPAisUYRN3AIiRd55erDWfb/HVmPue1l0FJ3Vm8lAnlFgAAABoMKO6XUK4cv6aLNe1bUgMAGLDjbiafOcHioRdX437shH9lJGdxgSiTiixAAAA0CBWnYZ3fSTz+x8+oMB67+UVXSTx1yYAxNC61dv0zvRFvhpzizZNdP41fZk81BklFgAAABrAiTQpOeDKwAMKrK3rd3UkKwCIvdf+s0Abvy7x1ZhPufhIHZbXlslDnVFiAQAAoN4C5oD9Sw4osCpKqzqQFADEXjgU0dRxs2Stf8ZsjNEVt/VXIOgwgagzSiwAAADUh7Wm0/c/dsAZSGUlBRYAxMuq4g2a/coyX425w2EtdPoVhUwe6oUSCwAAAHVlrD14gRWutBRYABBHL0yaq5LNu3015rOHHqW2nXOZPNQLJRYAAADqwqoOK7DC4QgFFgDEUUVZSE+Nn+WrMQfTArritv4y9BCo77FDiQUAAICDO/geWDbsUmABQJwt+WiNFrz3ha/G3KOwnfqd15vJQ71RYgEAAOAgal+BVV4uE7G2PTkBQPxNmzhbpSUVvhrzRTccr+ats5k81BslFgAAAGrRSbL7/aG4X4H17lMLD5Fr08kJAOJv944KPT9prq/GnJmdpktv7sfkoUEosQAAAFCDrCv73tVq3w/sV2B98dkGLh8EgASa+8YKLZ231ldjPuqUrioc0IXJQ4NQYgEAAKA6aeH0/S4j3K/A2rWtjAILABLsqXGzVFke8tWYLx95krKasIAXDUOJBQAAgO8Lu3a/jdz3K7B27646lIgAILG2bSzVK4/M99WYm7XK1o+uO47JQ4NRYgEAAGBfjmzNK7DCFWFWYAGAB/z32c/0xZKNvhpz//N7qXtBOyYPDUaJBQAAgG9ZmZoLrFDYpcACAC+8WVurKWNmKhyK+GbMxhhdeccApaUHmEA0GCUWAAAAJMl8bwVWcN9/uKEIBRYAeMTGr0v01tRinT30aN+MuU3H5jpzcB+9+ugnTCAa7NsSq3RHhaxrCSQGQpURfb5gHUGkiN07KwgBAOA/RvvtgbV/geXa9iQEAN7x+hML1efkrmrftYVvxnzW4D769IMv9c2qbUwgGowSK7Z2bN2tv1//HEEAAADvsjVcQlheLuO69hASAgDviIRdTRnzgVwfncA7AUeDbhsgh0vA0EhcTggAAJDS2kr2uz8EvyuwPnr1s1zZ/VdkAQAS76ulmzXzhaW+GnOXIw7RgAuOYPLQaJRYAAAAKStj+FHjm3/7j+8KrC8/29iabADAm158aJ62rt/lqzFf8JPj1KpdUyYPjUaJBQAAkJpcm9bm2///XYG1c2spBRYAeFRVRVjTJsz21ZjTM4MqGnUSk4eooMQCAABIPa512377/78rsEp3VLH/FQB42NJ5azXvrZW+GvORx3fUMQO7MXmICkosAACA1GKlAwusqooIBRYAeNyz936kXSXlvhpz0ch+ymmeyeQhKiixAAAAUol74CWEoVCISwgBwON276zUs/fO8dWYc5pn6sKfHMfkIWoosQAAAFKDY6tZgRWucimwAMAH5r+zSotmfeWrMZ9w9uHqdUwHJg9RQ4kFAACQ/FxjDlyBFYm4XEIIAD4xbcJslZdW+Wa8xkiDfjZA6ZlBJg9RQ4kFAACQ3Ex1K7BshBVYAOAXO7aW6eWHP/bVmFu1a6qzhx7N5CGqKLEAAACS2oEFluuKAgsAfGTmi8u0atEGX435tKJ8derZislDVFFiAQAAJKtqLiF0XUuBBQA+Yq3Vk2NmKlQV8c2YnYCjwT8/RU7AYQIRVZRYAAAASXnWs/8KrLlvL2sia7MIBgD8ZdPaHXpj8kJfjfnQ7i018JI8Jg9RR4kFAACQdJpe33dStrS3wPpqwTau5wAAn3rzyWKtXbnVV2M+95pj1LpDMyYPUUeJBQAAkFyqImVtpL0F1uaNO7h8EAB8yo24mjp2llzX+mbM6RlBDbq9vwwdA2KAEgsAACB5VNnA/wqs0t2hlkQCAP719fLN+u+zS3w15sOP7qBjz+jB5CEmKLEAAACSg3FNK2lvgRUqDTUnEgDwt1cenq8t63b6asyX3HSimuayBSNigxILAADA/4yxudLeAqsyFGEjEgDwuarKsJ68a6asf64kVE6zDF180wlMHmKGEgsAAMD3cqW9BVYkQoEFAMlgxcL1mvP6574a87Gnd1d+v85MHmKGEgsAAMDP3BbS3gLLDUW4hBAAksRz983Rji1lvhpz0ch+yshKY/IQM5RYAAAA/mStaS59W2C5lhVYAJAkyndX6Zl7P/LVmFu0aaJzhx/D5CGmKLEAAAD8x+x7CSEFFgAkl4Xvf6HimV/5aswDL83TYUe2YfIQU5RYAAAAfmP2uYTQdXMJBACSy7SJs1W2q9I/v5aM0RW3D1Ag6DB5iClKLAAAAD/Z5y6EkTArsAAg2ezcWqYXH5znqzF3OKyFTru8gMlDzFFiAQAA+EautLfAkhUFFgAkoQ9fXa7ln6zz1ZjPGXa02nbOZfIQc5RYAAAAfrDvJYTW5S6EAJCErJWm3jVTVRVh34w5mBbQFbf2l6FTQDyON0osAAAAr5/U5EqSU14uI6smJAIAyWnrhl2a8dgCX425R592OvGcXkwe4oISCwAAwMOMciVrnE8++qKJrAIkAgDJ652nF2vN51t8NeaLfnq8mrfOZvIQF5RYAAAA3v1TrSjvvhxnQ/E3uWQBAMnNjbiafOcHioRd34w5Kyddl9x0IpOH+P1lRIkFAADgSemBSK6zZVMZG7gDQApYt3qb3pm+yFdjPvrUw1TYvwuTh7ihxAIAAPAga1o4ocpIDkkAQGp47T8LtPHrEl+N+fJRJymrSTqTh7ihxAIAAPAWY92mTkVlFRuMAECKCIcimjpulqz1z5ibtcrW+dcey+QhriixAAAAvMMxJtsJVUSyiAIAUseq4g2a/coyX415wAW91S2/LZOHuKLEAgAA8AbXuNlOJGQziQIAUssLk+aqZPNu34zXGKPBd5ystHRumov4osQCAABIPOsqy4lEWIEFAKmmoiykp8bP8tWY23RqrjOu7MPkIe4osQAAABLLGJPtuGFRYAFAClry0RoteO8LX435rMF91L5rCyYPcUeJBQAAkDhGynZclxVYAJCqpk2crdKSCt+MNxB0NPiOk2UMJQLijxILAAAgMawx2Y7rsgcWAKSq3Tsq9Pykub4ac5cjDtGAC3ozeUgISiwAAID4s1ZZjnVdCiwASGFz31ihpfPW+mrMP7ruOLU4JIfJQ0JQYgEAAMSXI5vluBHLJYQAkOKeGjdLleUh34w3MztNV9zWn4lDwlBiAQAAxI9rbLbjumziDgCpbtvGUr3yyHxfjfnIEzrp6FMPY/KQMJRYAAAA8WFck+3IsgILACD999nP9MWSjb4a86W39FN20wwmDwlDiQUAABB7xijbibhiDywAgKy1mjJmpsKhiG/G3Kxlli68/jgmDwlFiQUAABDjcxUpy7FyWYEFAJAkbfy6RG9NLfbVmE88p5cOP6YDk4eEosQCAACIHWtNtiPXUGABAL7z+hMLtf7L7b4ZrzHSFbf2V1pGgMlDQlFiAQAAxOpvfpvtWNeyeQgA4DuRsKspYz6Q61rfjPmQQ5vp7CFHM3lIuG9LLAAAAESTzXKsbBpBAAD29dXSzZr5wlJfjfn0KwrUsUcrJg8JFww6hAAAABBNxgQdYwx/ZQEADvDiQ/O0df0u34zXCTgadHt/OVy+BQAAACQXq4BjrWXTEADAAaoqwpo2Ybavxty51yE69ZI8Jg8AAABILkHHWhskBwBAdZbOW6t5b6301ZjPu7avWrVvyuQBAAAAySPgGHEJIQCgZs/e+5F2lZT7ZrzpGUFdPuokJg4AAABIHgFHEpcQAgBqtHtnpZ67b46vxnzEcR117OndmTwAAAAgGRgFHbEHFgDgID5+e5UWzf7aV2O+9JZ+apqbxeQBAAAAfmcVcCx3IQQA1MHTE2ersizkm/HmNMvQRT89PiHf23AjRAAAACCaAqzAAgDUyfbNu/XiQx/7aszHndlDRxzXMQHfmQYLAAAAiB4bcKzEXQgBAHUy88WlWr14o6/GfMVt/ZWRlRbX78kKLAAAACCKf1/LBB1JXEIIAKgTa62mjPlAoaqIb8bcsm0TnXP10fH+DQsAAAAgWuchey4h5C6EAIC627Rmh96YvNBXYx54ab4692odt+9nWIIFAAAARFPAkaHAAgDUz5tPFmvtyq2+Ga/jGA2+42QFgvFZdEx/BQAAAERV0DHWcgkhAKBe3IirqWNnyXWtb8bcoVtL/eCy/Lh8L1ZgAQAAAFEVcCyXEAIAGuDr5Zv132eX+GrM5w4/Rm0758b+G9FfAQAAANEUYPUVAKDBXnl4vras2+mb8QbTArri1v4xv8TP0GABAAAAUeUYowgxAAAaoqoyrCfvminrnysJ1aNPO51w9uGx/Sb0VwAAAEA0RRxrjEsOAICGWrFwvea8/rmvxnzxjSeoeavsmD0/W2ABAAAAURVxZFmBBQBonOfum6MdW8p8M96snHRdfNMJMfwONFgAAABAFIUdcQkhAKCRyndX6Zl7P/LVmI8Z2E35/TrH5LlZgQUAAABEVcSRxCWEAIBGW/j+Fyqe+ZWvxnzFbf2VlZMe9ed1I5YDAgAAAIgSI0UcI4WJAgAQDdMmzlbZrkrfjLd5q2ydd23fqD9vqIrFzQAAAEC0WNmwI2P4KxsAEBU7t5bpxQfn+WrMJ194hLrlt43qc4ar+G9DAAAAQPSYiGOs5RJCAEDUfPjqci3/ZJ1/fhUaoyt/NkDBtEDUnpMVWAAAAEBURViBBQCIKmulqXfNVFWFf1Yhte2cqzMGFUbt+UIhfrUCAAAAUWP2bOLOX9kAgKjaumGXZjy2wFdj/uGQo9SuS25UnivMCiwAAAAgeqzCjhWXEAIAou+dpxdrzedbfDPeQNDR4DtOljGm0c/FJYQAAABAVEUcYww7zQIAos6NuJp85weKhP3z30m6HtlG/c/v1ejnYQUWAAAAEFURx7AHFgAgRtat3qZ3pi/y1ZgvuP545R6S06jnYAUWAAAAEFVhx3IXQgBADL32nwXa+HWJb8abmZ2mK27t37jfrhRYAAAAQPQYRRwjEyIJAECshEMRTR03S9b6Z8x5J3bSUad0bfDXswILAAAAiCJrw45xTCVJAABiaVXxBs1+ZZmvxnzZiJOU3TSjQV8bqmJ7SQAAACB6TLkjx5YTBAAg1l58YJ52bCnzzXibtczSBT85rkFfG6pkBRYAAAAQLdaaMsfIocACAMRc+e4qTR0301dj7nduLx1+dId6f11ZKYubAQAAgGgxxpY5jhEFFgAgLpZ8tEafvLfaR78opctvPUlp6YF6fV15aRWTDQAAAERPmWMcU0EOAIB4mT7xQ5WW+OdXT5uOzXXm4D71+pryXRRYAAAAQNRYlTuOwwosAED87N5RoecnzfXVmM+8so/adcmt8+O5hBAAAACIHuvYMscJGAosAEBczX1jhZbOW+ub8QaCjq64rb+MqdvjI2FXVRXciRAAAACIBseaMkeBAAUWACDunho3S5XlId+Mt3tBO5149uF1fnzZLlZhAQAAANHgypQ7QcMeWACA+Nu2sVSvPDLfV2O+8Ibj1TQ3q06PLWMjdwAAACAqjLVljnEcCiwAQEL899nP9MWSjb4Zb3bTDF104/F1eiwrsODpPwIdI+MYggAAAP7428Wo3HGCbOIOAEgMa62mjJmpcCjimzEfd0YP9e576EEfV06BBS//ESijJs0zKbEAAIA/zhukMifAHlgAgATa+HWJ3ppa7KsxD7p9gNIzg7U+hksI4XXBoEOJBQAAfMFaW+YE01mBBQBIrNefWKj1X273zXhbtmuiswb3qfUxXEIIP6DEAgAAfuA4TpkTzAiyBxYAIKEiYVdTxnwg17W+GfMZgwp1aPeWNX6+nBVY8AlKLAAA4HXGqtzJzEgvIwoAQKJ9tXSzZr6w1DfjdQKOikaeJGOqP+kv3cF/H4J/UGIBAAAvc60tczKy0kuJAgDgBS8+NE9bN+zyzXi75bdVv/N6Vfu5HVv570PwF0osAADgVcbRTqdV66wdRAEA8IKqirCmT5jtqzFfeP1xat4q+4CP79hCgQX/ocQCAABeZExku9O2V6udRAEA8IrP5q7VvLdW+ma8WTnpuvjGEw74+I6tu5lM+BIlFgAA8BprIyXOMaf2KpVRhDgAAF7x7L0faVeJf26Se8wPuqn3sYfu97Fd28p9tSk9sC9KLAAA4CGhx4t/vtvJypI1xuwiDwCAV+zeWann7pvjqzFfctOJCgSd7/7tulal28uZTPgWJRYAAPCIEklyJMkxhn2wAACe8vHbq7Ro9te+GW+7Lrk65aIj9/sYG7nD7yixAACAB2yX9hZYciiwAADeM238LJXvrvLNeM+9+hg122dDdwosJANKLAAAkEjG7rsCyzFs5A4A8JwdW8v08r/n+2a8GdlpuuC6Y7/7904KLCQJSiwAAJAo1uxXYDmswAIAeNLMF5dq9eKNvhnvcWf2VKfDW0tiBRaSCyUWAABIkBJpb4FlAqzAAgB4k7VWU8Z8oFCVP26Ya4x00U+Pl0SBheRDiQUAABJwRvC/PbCCFFgAAA/btGaH3pi80Dfj7dmnvY48oZN2buUuhEg+lFgAACDOSqRvLyFMC3IJIQDA096aWqx1q7f5ZryX3HiCjji+IxOHpESJBQAA4sXKlEh7C6xAQKzAAgB4WiTsasqYmXJd64vxtunUXCdfeAQTh6RFiQUAAOLB2fcuhGlpAQosAIDnfb18s/777BKCADyCEgsAAMScs6fACkpSenZGCYkgLSOgw45sq+4FbdW2S67adGyu3NY5CqQ5yspJV6gyoqrKsEpLyrVl3S5tXFOir5dv0YqF67VrO/u8AIiPVx6er4KTOqt1h2aEAXjAtyVW6Y4KWZ+skAQAAD5i9mziHpSkJk2CJSSSon90pgWU36+Tjj+rp3r1PVRp6YEaH5uWEVBaRkA5zTLUtnOu8k7sJEmyVlq3epvmvbVSH7+9Sju56xaAGKqqDOvJu2bqljHnyrDoA/DG3xOUWAAAIEYicv5XYLVom72FSFJLRlaaBlzQW6ddXqCmuVmNei5jpEO7t9Sh3Y/XBT85Tp+8u1pvTF6oDV+VEDSAmFixcL3mvP65Tjz7cMIAPIISCwAAxORvjLDdIO0tsPr077j5w9dWkkoKMEY64YeH68Lrj1NO88yoP7/jGB17enf1Pa2b5r25Si9MmqtdJVxeCCD6nrtvjo44tqOat84mDMArf2BSYgEAgCgrbxbZLO3dxP3Ift3L5Biu+0pyLds20S13navBPz85JuXVvowxOv6sHvrNo5fq+LN6ED6A6P8i212lZ+79iCAAj2FjdwAAEEU7p394e7m0t8CSJMcYLiNMYj37tNfP7rtAPfu0j+v3zW6aoSG/PFVDf3Wq0jOCTASAqFr4/hcqnvkVQQAeQ4kFAACiwmrjt//3fwWWIwqsJDXgR71185hzGr3XVWMcd2YPjRh7rrKbZjAhAKJq2sTZKttVSRCAx1BiAQCAKKimwAoGNpNL8hnwo94qGtVfjgf+eOzS+xDdNvF8NW/FfjUAomfn1jK9+OA8ggA8iBILAAA0hnXspm////8KrIBDgZVkTjp/T3nlpdvMt+2cq5v+ebZymrESC0D0fPjqci3/ZB1BAB5EiQUAABrKuObAFViBNG0lmuRRcFJnXT6yn6fKq2+179pCP/3bD5WRncZEAYgKa6Wpd81UVUWYMAAPosQCAAAN4ujAFVjp6WmswEoS7bu20NW//YGcgOPZMXbpfYiG/XqgJws2AP60dcMuzXhsAUEAHkWJBQAA6u9/K7C+uy1cZmYam7gngbT0gIb9v4G+uONfwUmddfJFR+r95z5j4gBExTtPL9bRAw9Tp8NbEwZQi6Yts3Tzneck5HtbaxUJu5JlHvykZMtu/ev/vUEQAIC4Mq4OLLCym1FgJYPzru2rQ7u39M14L7rheC2b9402rd3B5AFoNDfiavKdH+jn91+oQNAhEKAGaekB9TqmA0GgzvhbDQCQCCZQzSbuuYc05xJCn2vXJVenXpznqzEH0wIqGnUSkwcgatat3qZ3pi8iCACIJlbMAQASIGx04Cbuhx3VngLL5y766Qm+XHHQ65gOKujfhQkEEDWv/WeBNn5dQhAAECXW0mABAOLPlFZzF8LjTuu5U8aEiMefDu3eUkcc19G34z9n2NFs6A4gasKhiKaOmyXOtwAgOng/BQAkQMXklSN3fvuP7wqsrCxZxzGswvKp068o9HUB1LFHKx1+NHtxAIieVcUbNPuVZQQBAFHACiwAQNztc/mgtE+BJUmOY9aTkP9kZqepz4Cuvn8dJ55zOJMJIKpemDRXJZt3EwQANBL9FQAg/r989PW+/9yvwAqmOd+QkP8cdephSssI+P51FPbvqqycdCYUQNRUlIX01PhZBAEAjT6JoMECAMSXkdbs++/9CqxAWmAdEflPQb/OSfE60jIC6tX3UCYUQFQt+WiNFrz3BUEAQCNwCSEAIO6/e2RrLrDSM9IosHzGGKNuBe2S5vX0PKodkwog6qZNnK3dOyoIAgAaehJBfwUAiDMjU3OBldkkSIHlM+275iqnWUbSvJ4ehe2ZVABRt3tHhZ6fNJcgAKCBKLAAAHFnTM17YOW2akKB5TPturRIqtfTplNzBYIOEwsg6ua8vkLLPmarRwBoCOvSYAEA4isSidS8AqtT/iEUWD5zSMdmSfV6AkFHLds2YWIBxMTUsTNVWR4iCACoJ/bAAgDEWzCSVnOBdfqlR2+Ro0pi8o/mrXOS7jW1aEOBBSA2tm0s1auPfkIQAAAAgLeVPbbslq37fmC/AisrS9YYs4Gc/CMjM5h8ryk7jYkFEDPvPbNEXyzZSBAAUA+swAIAxNma73/ggM2GAsEAlxH6SFpGEhZYSVjKAfDWSdhT42YpEnYJAwDq+t7JWyYAIL6+/v4HDiyw0gLscOuzE7Fk40b4L3wAYmvdF9v15pOfEgQApPDfnAAA7zJ1WYGVlmZYgeUjocpw0r2mqoowEwsg5l5/YqHWf7mdIACgDqivAABx/b1j6lBgZWRmsALLRyp2J9/dtMp3VzGxAGIuEnY1ZcwHcrk1PADU4UyC90oAQPwY1x68wMppls4KLB/ZumFX0r2mLet2MrEA4uKrpZs188WlBAEAB2Ep+wEA8fy9U5c9sHLbZlJg+UiylT1VFWHt3FbGxAKImxcfnJeU/zEAAKJ6IkF/BQCIo4gJHHwF1sDzj/hKXObuG2tWbE2y17OFP5AAxFVVRVjTJ8wmCACoBX+fAQDiyG1dbr/4/gcPKLB69O1U7jhmE3n5Q8nm3dq2oTRpXs+KheuZVABx99nctfr47VUEAQA14C6EAIC4MVpz98qRld//sFPdYwNpgS9IzD8+X5g8V32uWECBBSAxnrnnQ+0qKScIAKgGBRYAIH6/dLSyug9XW2AF05wvScw/FryXHH3jjq1lWrVoAxMKICF276zUc/fNIQgAqP5kAgCAeP3SqXuBlZ4Z+IrA/GP5/G+0a7v/Vw3Mf3sVt7MHkFAfv71Ki2Z/TRAA8P1TCVZgAQDixTjV7u1RbYGVnZPJJYQ+4rpWs15exmsAgCiYNn6WyndXEQQA7IP+CgAQt985bj1WYLVon/0lkfnLf59doqqKsG/H/8m7q7X5m51MJICE27G1TC//ez5BAMC+JxM0WACAeDFO3QusgpMP+5LE/GX3zkp98MJSX449Enb1+hMLmUQAnjHzxaVavXgjQQDAt+ivAABx+o3jmIrV1X2i2gKr/9m9dskxW8nNX2Y8sUA7tpT5btzvTFukjV+XMIEAvPNb01pNGfOBQlURwgAAiX1KAQDxsv7x4p/vru4TTk1fEQxwJ0K/qSwL6dn7PvLVmLes28nqKwCetGnNDr0xmfcnANiDAgsAEBcra/pEjQVWICPIRu4+tOC/X+jD1z73xVjDoYge+dO7qqoMM3EAPOnNJ4u1diULkgGALbAAAPFgGlJgpacHviI6f3rm7g/1zaptnh/n03d/qDWfb2HCAHiWG3E1dewsLp0BkPIosAAAcfl9Y+yqmj5XY4GVnZ3+JdH5U1VlWP/69evaumGXZ8f46qOfaPYry5ksAJ739fLN+u+zSwgCQGqfUFDkAwDiwTX1X4HVsn0TLiH0sR1by3TfL2Zox1bvber+zrRFmvH4AiYJgG+88vB8bVm3kyAApCzLEiwAQDw4bv0LrMP7daLA8rnN3+zUuJEveeqk662pxXp+0lwmB4CvVFWG9eRdM7mEBgAAAIgda8sC9S+wTr/wyBITcDaTn79t21Cqibe/qq+XJ3avqVBVRE/eNVMvPjiPSQHgSysWrtec1z8nCAApib0AAQBx8M3klSNrXIETrO0rA0HzeTiiQ8jQ30o279b4US/rkptO0IALjoj799+ybqce+b93tGYFd/Jq9An0p+uVkZVGEECCPP+vuWrWIkuBtICvX8eukgomM8aWf7KOEHzEWqtI2JXoaGqU6P8YCg/87thermUff+PZ8a3/YjuTBPj+97GpdeNZY63tUNMnf3XRE38u21V5DTEmj55Htdflo05S2865Mf9ekbCrmS8u1cuPzFdlWYjwAQCAZ4XDrkp3VLBZOQAAiTPuiUWjbq/pk7WuwMpqkvF52a5KIkwiKxau1z9/+rxOvThPPyjKV9PcrKh/D2utFvz3C732nwXa+HUJoQMAAM8LBh01aZ5JiQUAQKIYfVbr7+raPpnbOnPF1vXcdSnZhCojemtqsd5/7jOdeM7hOuHsw9WpZ6tGP++uknItePcLvf/CZ9q0ZgdBAwAAX6HEAgAgcRzr1noJYa0F1hGndlm+atEmUkxSVZVhvf/8Z3r/+c/Urkuu8vt1Vs+j2qtbfts67bPkRlx9s2qbVixcr+WfrNPyT9bJjbgECwAAfIsSCwCAxAgrY1ltn691DyxJGnXmw59a17YmytRhjJTbOketOzRT0xZZymySLscxcl2ryrKQKsqqtGnNDm3bWLpnw1MAAIBk+yOaPbEAAIinb55YNKpjbQ8IHuwZAv+fvfsOj6O62z5+n9ldSaveXOTeGy7YYHABU0wLvfc3oRMgmBJaQmhJSMiThISQACGhmxYDIaE3AzamGWPce++yrC6ttO28f8jU2Fi2Zldbvp/ryvW+j5HOzPzO7OzMrXPO+DzLws1hAqw0Yq1UtbVBVVsbKAYAAEhLjMQCACCuFuzqB5xd/UBGhrOEOgIAACDdfBliGcdQDAAAYsjILtzVz+wywPLnZC6jlAAAAEhHhFgAAMReVGp7gFXYwc8ILAAAAKQtQiwAAGIs6ml7gDVw/96MwAIAAEBaI8QCACB2ggot2tXP7DLAOuqsoRXGMZWUEwAAAOmMEAsAgJjYOGXBtbvMnZzWtOT1eZZSTwAAAKQ7QiwAANxlW7H+ldTKAMuX4SympAAAAAAhFgAAbnJk57fu51ohOzdzPiUFAAAAWhBiAQDgEms+b82PtSrA6tgznwALAAAA+AZCLAAAXOBodut+rBVOuGjMYhkToqoAAADA1wixAABokya/L2tJa36wVQFWWe/CkMfrsJA7AAAA8B2EWAAA7LF5D866tFUDppzWtujL8DCNEAAAANgBQiwAAPbI7Nb+YKsDrKwcFnIHAAAAdoYQCwCA3WNsDAKsjl3zCLAAAACA70GIBQDAbnCs+wHWAccPXCCjKNUFAAAAdo4QCwCAVon4ff55rf3hVgdYe0/o0+A4Zg31BQAAAL4fIRYAALu09MFZlza29oed3WnZl8lC7gAAAEBrEGIBALBzZjcWcJd2M8DKys4gwAIAAABaiRALAIAdszaGAVZ+ae48SgwAAAC0HiEWAAD/yzoxDLBGHNaTAAsAAADYTYRYAAB8W9QXmrM7P79bAdYRJw2vNI6zmTIDAAAAu4cQCwCAr6x9etZ1FbvzC87ubiEj0/sFdQYAAAB2HyEWAACSrGbu7q/sdoCVleOdTaUBAACAPUOIBQBIe475ZLd/ZXd/obQsdxaVBgAAAPYcIRYAIM19vLu/sNsB1uFnDJljjMLUGgAAANhzhFgAgDQVNmr+fHd/abcDrCFj+zYar7OUegMAAABtQ4gFAEg/Zu4Tc69v2N3fcvZkUxmZvs8pOAAAANB2hFgAgLRi7cd78mt7FGDl5GeykDsAAADgEkIsAEDacOwne/Rre/JLXft1YAQWAAAA4CJCLABAOnCMN34jsM654eBlckwtZQcAAADcQ4gFAEhlRqp8fM4Vy/bkd/cowPL7ZX0Zni8oPQAAAOAuQiwAQKqysp9Ixu7J7zp7utHMbC/TCAEAAIAYIMQCAKQkaz7Z01/d4wCrsDSfAAsAAACIEUIsAECqMZ49ewOh1IYAa/RhfT+XZCk/AAAAEBuEWACAFGIj0YxP9/SX9zjAOuSUIVWO11lD/QEAAIDYIcQCAKSIxU/Nu7xqT3/ZacuWMzJ9s6g/AAAAEFuEWACAZNeygPuea1OAlZO/50O/AAAAALQeIRYAIJkZmWlt+f02BVi9Bnf+mC4AAAAA4oMQCwCQrDy2HQOsH908YbnjccrpBgAAACA+CLEAAElo02PzJ61oSwNOW/fAm+lhGiEAAAAQR4RYAIBkYqR329pGmwOsnLxMphECAAAAcUaIBQBIFraN619JLgRYPfoXE2ABAAAA7YAQCwCQDIyNtO/XY3gAAIAASURBVH+AdfZNhy+WR1V0BwAAABB/hFgAgAS39Yn5Vy9uayNtDrD8ftmMDB/rYAEAAADthBALAJDA3peMbWsjjht7kpOXwTRCAAAAoB0RYgEAEpG1muZGO64EWJ17Fn9ClwAAAADtixALAJBojDWJE2CdccOB841RHd0CAAAAtC9CLABAAqnqt6BynhsNuRJgFRf7I75Mz0z6BQAAAGh/hFgAgMRgpt+u26NutOS4tUv+3EymEQIAAAAJghALANDerI1Oc6st1wKssh6FH9E1AAAAQOIgxAIAtCuXFnCXXAywTrp2zBzjGNbBAgAAABIIIRYAoJ1UB4d0+dytxtwbgVVWFPZmeD6mfwAAAIDEQogFAIg3a+zUKVNOj7jVnuPmzuXk+6fRRQAAAEDiIcQCAMSTEzVvudqem431HdqZAAsAAABIUIRYAIB4cZTAAdaPbp6w3PE4G+gmAAAAIDERYgEAYs1Kqx+bP2mFm206bu9kpt87na4CAAAAEhchFgAglozsG2636XqAVViSzTRCAAAAIMERYgEAYsboLbebdCRF3WxwzDGDp8m42yYAAAAA9xFiAQBiINIcib7rdqOOpKCbDR5yypAqj8ezgP4CAAAAEh8hFgDAZZ9NWXBtpduNuh5gSZI/z8c0QgAAACBJEGIBANxiZd+KRbsxCbA6dM0nwAIAAACSCCEWAMANVopNgGWMCba0754zrz7wEzmmkW4DAAAAkgchFgCgjRpC0eqPY9Hwl28hbHaz0bLehSGvz/Mp/QYAAAAkF0IsAMCeMkbvTllwezAWbX8ZYLneeG5+BtMIAQAAgCREiAUA2CNR81asmo7JCCxJ6jWk43v0HAAAAJCcCLEAALvLOtE3YtW2I0nGmJCkqJsNX3DrxCXGY9bQfQAAAEByIsQCAOyGFZPnXr0kVo073/j/uz6NMDsn8x36DwAAAEhehFgAgFb6bywb/2aA5fo0wpJuuQRYAAAAQJIjxAIA7IoxzsuxbD+mAda5Vxz0oRxTTzcCAAAAyY0QCwDwPWqbIts+iOUGvgqwjDFhubwOVudBhcHMLO90+hEAAABIfoRYAICdeH3KgtuDsdyA853/2/VRWLmF/rfpRwAAACA1EGIBAP6Hsa/EehMxD7D2P3rw2zLujuwCAAAA0H4IsQAA3xA1ynw91huJeYB11FlDK7weZy79CQAAAKQOQiwAwHYfPzH3svKYf+988/8wxkSsteHv/ntb+Quy3qrb1rg3fQoAiIeMLK9KuuSpoNiv3KIs5Rf7lVOQqawcn3wZHmVm+5Tl98nxGIWCEYWCka9+15fhkS/D89X/3VgfVDgUUag5oqaGkIJNYdVWBlRf3aT6qibVVTepqrxBwUCYwgNIO1+GWPU1TbJRS0EAIB3FYfqgtOOgqlkuB1g9B5a+Pf/DtdfTqwAANzmOUYfu+erat0hd+xWrQ9c8lXTNU2Fpdtz3pa4yoK0b67RtY70qNtZp06pqbVheqaaGEB0FIKURYgFAmt+TR/VyPLbzP+N9rbVZkord3EggIPOzEx6eGY3YMroWALCnPF5H3foXq+/wTuo9rIO69y+RL9OTsPtrrVS5uV4bVlRq/dJKrZpfrk2ramQtD3gAUk84HCXEAoA0Y2TWPTHvyp6SifnFf2cjsKx2EG7tKb9fNsPvfaepPnQu3QsA2B3Z+ZkaPLqLBu/XRX1HdFJGljdp9t0YqaQsVyVluRp+QA9JUqA+qFXzt2rFvC1a9vlmbdtUTycDSAmMxAKA9GOtfSke4ZW0gwDLGGOttUFJmW5uqLRr4dvrl2wlwAIA7FJWjk/DD+ihYQd2V68hHeSk0ALB/twMDRnTVUPGdJUkbVlbo0WfbtTCjzdo44pKMTgLQDIjxAKA9GKMXonbtnb0j9baXEn5bm5o+ax1/r/c+NY8WeuniwEA//vlZ9R3REftM7G3Bu/f9VsLqaeL6opGzXl/jWa/u0Zb19dyUgBIWkwnBIC00NCcG+kw5aNrA3F5XtjRP1prfZI6uL2x64994sHmQPAY+hgA8KUMv1ejDu2lscf0V2mXPAqy3fpllZr97hrNfHOFIuEoBQGQdAixACDl/WvyvKvOiNfGdriQiDEmZK2NSnLc3Fhhh5xXt6wlwAIASHlFWTrwpEHa9/A+yvR7Kch3dOtfrG79i7X4sw2qLm+kIACSDtMJASDFWT0f1++V7/lvTZJcfQ/54ecOeXvyXTOaFXV3fS0AQPLILcjS+BMGaOyx/dNymiAApBNCLABIWU0ZoabX4rnB7xth1ez2xvabOKg+I9M3nX4GgPSTle3TkT8cruv+cYwmnDyI8AoA0sSXIZZJoRdyAADM6w8vubEurt8n3/PfmiRZ7WSdrD1VUJz9ytYNNYfR2QCQHhyPo30O663DztpLuYVZFAQA0hAjsQAgtVgbfT7e29zpCCxjjJUUdHuDh507/HUZE6K7ASD19RhYoivuPlwnXrYP4RUApDlGYgFAyghZk/FKvDe6q0XaXZ9GOPaIAbW+TM9H9DcApC5fpkdH/nC4Lv7toercs4CCAAAkEWIBQGqwbz817/KquH+H7OK/N0nKd3uj+UU5r2zbVDOBTgeA1NNvRCedfOVoFZRmUwwAwP8+gDCdEACSmonz2we/9L0jsIwxYUlhtze6z1F935BRhG4HgBR6IPG1jLo67/YJhFcAgO//zmAkFgAkq4jX5/y3PTbstOJnXJ9GeOy5I7f6Mrwz6XcASA0duuXrsj8cpgknD5IxPIwAAHaNEAsAktJ7j8yetLVdvjda8TNNknLc3nBugf/VqvK6MfQ9ACS3vcZ206mT9lOG35tw+xYKRrR1fZ0qNtSqtjKgmq2Nqq9pVqA+qGBTWKHgjgcD+zI88mV4JEnZ+ZnKKchUdl6GcvIzlV+SreLOOSopy5XX5+EEAIC2PIwwnRAAkosxz7fXplvztBGUZCW5+qeR0Yf0eOXNZxfc4Xa7AID4cByjw84ZqgknD1YiDLqKhKPasLxS65ZWat3SbVq/rFLV5Y2yNjYPRMYYFXbIVkmXXHXqUaBuA4rVY2CpCjswfRIAduuBhBALAJJFNOwx/2m374tW3KBba22zJFfff37sJWM2T31h0exwKDqKcwAAkosv06Mzrx+rQft2adf9qK0MaNEnG7Tsiy1aMXeLgoFw3LZtrVVVeYOqyhu0/IstX/17XlGWuvUvVp9hnTRgVGeVds3jhAGAXT2UEGIBQDKY8czsKze223dFK3+uSS4HWJKUW5j1cvXWRgIsAEgieUVZ+n83H6iu/YraZfuB+qDmTFujeTPWa83CipiNsNpTdVVNWvTpRi36dKNeeUgq6pijAfuUacA+ndVvRCemHQLAzh5MCLEAILEZPd+em9+dAMt1+x7e/8W3n57zC9lWLSYPAGhnpV3zdN5tE1TUMSfu216zqEKfvrFCCz5cv9O1qxJRVXmDPnltuT55bbn8uRkaOr67RkzooV5DSlnwHgC++3BCiAUAiSrqmMhz7bkDrb5zttaWSMp0eweuPfqx58LN4bGcCwCQ2Dr1KND5dxykvKKsuG0zGrVa+PF6TX9xidYvrUypehaUZmufib01+sg+yi/27/Tnfn/Jy6oub+QEBJBWwuEoIRYAJBArvf3kvKsOb8992J1XRjUpBgFWQbH/xW2b6giwACCBdeyeH9fwylppyayNemvyfG1eXZ2SNa2paNTUZxfovSkLNWCfMo09tr/6jejEyQYAYiQWACQaIz3V7t8Nu/GzTZIK3N6BQ84a+dJzf57+K0VtBqcEACSezr0KdeGvDlZ2Xnwu0yvnl+u1h7/QxpXVaVHfaNRq8cyNWjxzo7r1L9YhZwxp98XxASAREGIBQMJo8nqi/27vnWj12lPGmIikkNs7MOGY/jW+DO97nA8AkHgKSrP1/35xQFzCq9rKgJ675xM9fMt7aRNefdf6ZZV64tcf6P4b3tbizzZyAgJIe1+GWMZhzUAAaDdWrzz6xTXtfoPu3c2fb5Lkc3snSjvlvLhpTfURnBUAkDiy8zN1wR0HqbA0O7bfh1b67K2Veu2RL9QcCFN4SeuXtgRZvYZ0UHMjNQGQ3hiJBQDtzLFPJ8Ru7ObPx+RthKddsd+bxjENnBUAkBh8mR798OYDVNo1L6bbqalo1KN3vK8X7/uM8GoHVi/cqkB9kEIASHuMxAKAdlPbnBN9NRF2ZLcCLGNMSJLrTxj99ukeyPRnvM55AQCJ4fhL91H3gSUx3cbyOVt033Vva/kXWyg4AGCXCLEAoF08P+WjawOJsCPOHvxOTEZhlXTLf5HzAgDa3wEnDNSoQ3vFrP1o1OrNJ+bp0dvfV311EwUHALQaIRYAxJcj81Ti7Mvui0ny9sNbDpxmPM5WTg8AaD/99u6kI380PGbtBwNhPfnbGXr/+UWyLGMCANgDhFgAEDebA4M6v5soO7PbAdb2aYQRt3ekrKwo7M/2vsL5AQDtI7/ErzOuHSMnRg8EtdsC+vvPpmrxTN6uBwBoG0IsAIg9I/vMlCmnRxJlf5w9/L2YjMLq0qfji5wiANAOX07G6NRJ+yk7PzMm7VeVN+gfN7+rzaurKTYAwBWEWAAQWxHHeTqR9mdPA6yYLFpy8Z1HfuZ4nLWcJgAQXwefNlh9R3SKSdtb1tTo7ze+o8rN9RQaAOAqQiwAiJkVT825cmYi7dAeBVjGmKBiMI3Q75fNzs94kfMEAOKn24BiHXrGkJi0XbGhTg/f9r7qqlisHQAQG4RYABADRpMlk1Cr1jpt+N2YTCMcNqbbM5JY2hcA4sDjdXTyT0bL8Tiut11V3qCHb+NNgwCA2CPEAgBXWU/UPJFoO9WWJ5aYPJGcdd1Ba7yZnk85XwAg9g4+bbA69Shwvd3mQFhP/PoD1VQ0UmQAQFwQYgGAW+y7j82ftCLR9mqPA6xYTSOUpMLS7Gc5YQAgtjr3KtRBpwx2vd1oJKqn7pqhLWtrKDIAIK4IsQCg7azVI4m4X22dMxKTaYSnXrbPS3IMq/0CQIwYIx1/6Sh5vO5PHXzloS+0fM4WigwAaBeEWADQJrU5mf4XEnHHEjLAGjK2b2OW3/cK5w0AxMbwA3uo5+BS19ud98E6ffzqcgoMAGhXhFgAsMeeeXDWpQm5DkibAixjTEhSOBY71q1fEdMIASAGfBkeHfnD4a63u21Tvf79t5kUGACQEAixAGD3WWMeSdR9c2PuSExGYU26+9hPHK+zgtMHANx10KmDVVCa7WqbkXBUT//fh2oOhCkwACBhEGIBwG5Z8uTcKz9J1J1L2ABLkvIK/c9x/gCAe7LzMzX+uAGutzv12YXatKqaAgMAEg4hFgC0kjEPScYm6u45bT8+E5YUisXO7T+x179kYvOmQwBIRwefOlgZfq+rba5fVqlpLyymuACAhEWIBQC7FFYoMjmhr+UutROQ5HN75469ZMzmqS8umR5uDh/MuQQAbZNf7Nd+R/Z1tc1oJKoX75+laCRKgRH/mxifR/klfuUUZCozyyvjGPkyPAo2fT2V1ThGWdk+RSJRBQNhRSJR1W4LqLYyoFAzfyMD0uqasT3Eqq9pko1aCgIA32T12uRF12xK6Ou4S+0EJOXHYgdLOuU+u2Vt9cGcTQDQNgedMli+TI+rbX70ynJtWllFcREzxkglXfLUfUCxuvYtVlGnHOWX+JVf4lduQVab2m6sbVbNtoBqtjWqfG2t1i7ZpnVLtqm+uonCI+U4HkcFpX6VdM5VQWm2Mv1eZWb7lJHV8jgQao4oHPp2qBuNWtVXNal6a6OqKxpUV9mkSDi5/2BBiAUAO2alRxJ9H10bQ2utLZGU6fYOblpV7bvrkhc+t1FbzCkFAHsmOy9DN/zzOFcDrNptAf3pJ68pyMLtcPMh2zHqOaRUfYZ1VPcBJeo+oERZOb647kNVeYPWLt6mVfPLteDjDWqsbaZjkoAxRiVluSrpkquiTjny52R8Fc58KRyKqKGmJbjcsqZGVVvqZVMww/BletRrSAf1HtpBZb2LVFKWq8IO2fJ427Z6iLVWFRvqtGbxNq1dVKE1iytUsaEuKWsUDkcJsQDga9uKAqbrvcsnJfRNj5sBVrakwljs5E0nPnFnY13wPM4pANgzh56xlyaetZerbT7/l0/1+dTVFBdt5jhG3QeWaNj47ho6rpvyiv0Js2/RqNW6Jds0f8Y6zZ2+TvU1jM5KJAWl2dprbFcNGFWm7gNLlJW9e2FnMBDWumXbtGz2Zi35bJPK19UmZR2MkboPLNXAfTqr99CO6ta/uM1hVWvVVzdp/ofrNXf6Wq1dXJFUgSAhFgB85U+T5111bcJ/37nVkLXWkdTJzTa/9NBtbw2e88HatzmnAGD3+TI9uu7BY9o83eqbNq+u1t+ufUtRbvrRBmW9CzXm6H7aa2w3+XMzEn5/I+GolszapA9eXKI1iyrSpp/OvH6sK+2Ur6vV1GcWtLkdj9fRXmO6af+j+6rn4A4yLt15Vpc36veXvJxUfVNQmq2RB/fUqIm9VVKW2+77U13eqC+mrdFnb61U1ZaGpKghIRYASMZo2BNzr5qf6Pvpde+ATdRa2ywpy+2dvPCOwxdde9Sjs8KhyD6cWgCwe4aO6+5qeCVJbzw+l/AKe3q/oL7DO2rscf01cJ8uroUP8eDxOhqyf1cN2b+rNq6s1ocvLdGc99em/Gdh2PjurrSzcn55m37fcYxGHNRTh509VIUdstP5IUODRnfRmKP7q++IjjIJ9CEq7Jitg08drAknDdTc6ev03nOLtHV9Yo9qY00sANC0ZAivJBcDrO0aFYMAS5JKOuc9vmVdNQEWAOym/Y7s42p7G1dUadnszRQWu8XjdTT6iD4ad9yAhBgp0lZd+hTq1Kv218GnDdHUZxZo7vS1KbmWUqLo2q9IJ10xWmW9C9O6DgP3LdNhZw1Vl75FCb2fjsfR3gf31IiDemj+h+v17r8WasuamsR9ICLEApDOjHkgWXbV6+5xmyZrbVSS65PuL7xp4n9/c+ULtypqSzjDAKB1OnTLV49Bpa62+c7TC3hQx27pN6KTjrlopDp2z0+5YyvtkqfTrx2j/Y7qq5cenK3Nq6vpcBc5jtFhZw/VgScNlONx0rYO/Ud21mFnD1W3/sn1TiNjjIaN7669xnTVB/9ZqqnPLFAoGEnMhyJCLADpyKqiKKAXkmV3vTFoMyApx+1GOw8qDObmZT5XX9N0KWcZALTO/kf1dbW9TauqtWTWRgqLVunQLV/HXLi3+o/snPLH2mtIB/3kT4drzvtr9cpDs9VYF+QEaKPsvAydcd1Y9RvRKW1rkFuYpeMuGamh47on9XE4HkcTTh6kYQd013/un5Wwo3gJsQCkG2P0z0R/8+C3vk9i0GZjrHZ25Ljej8koymkGAK24wDtGww5w96Hno5eXMfoKu5Tp9+rEy/fVVfcemRbh1dc3gUZ7H9xTV917lAaM6syJ0AYFpdm69HcT0zq8GnlIT13916OSPrz6pqKOOTrvtgk66Sej5cvwJOQ+fhliGcfwQQSQ6qyNRh5KquebGNy8hSSFYrGzp103bo030zOD8wwAdq3P8I7KLXRvWcLG2mbNnb6WwuJ7dRtQrCvuPkKjj+iTUItLx1NuYZZ+eMsEHXvRSHm8DifFbiopy9Wldx2q0i55aXn8+SV+/ejWCTr1qv2T4u2ce2Lfw3rr4t8cooLSxFyMnxALQHqwr09ecO3yZNrjWN1VBWK1wx065z3BiQYAuzb8gB6utjfzrZUJu3YJEuCGYvsUoUt+c2hKLNLeVsZIY4/tr/PvOEj5JX5OkFYqKM3WBb88OGGDjVjrPrBEl//h8LQYwde1X7F+cvfh6js8MUfZEWIBSP2bFT2QbLscqwArZtMIz/v1oW8Yx+H1VwDwPTxeR0PGdHW1zc+nrqaw2KGijjm6+DeH6MgfDmfE0Xf03quDrrj7cPUe2oFi7EJ2XobOv32CCjukZ3g18pCeuujXByuvKCt9+jw/Uz+69UCNmNAjIfePEAtAClvfPLDLK8m20zG5yzTGRCU1xaLtsrKicG5h5tOcbwCwc72GdHB16snaJdtUsaGOwuJ/dOtfrB//fqJ6DOQlwTuTW5Cl826b4HqonEocj6OzbxyvDt3y0+7YjZEOPXMvnXrV/vL6PGl3/B6vo1Ov3l97H9QzIfePEAtAKrIy/5gy5fSkm1oRyz+Txmwa4ehD+z5pjMKcdgCwY25PP/ni3dUUFf9j8P5dddGdhyi3IIti7Ooh2OfRWdeP1chDelGMHfjB+SPScpSax+vozOvHaeKZe6V1/zuO0SmTRrs+9d21zy8hFoDUEvY44YeSccdjGWA1SbF5Y+CJl+2/yZfle4fzDgB2bMA+Za61Za3Vwk82UFR8y76H99HZN4xN2DeJJeRNl8fRKZNGa/QRfSjGNwwZ01Xjju2fdsft9Xl09o3jNHRcN06C7Z+P067ZT3uNTcx6EGIBSBlW/3l8zrVJeXPvjVXDxhhrrW2UFJOVXDv3Lnh87cKKIzn7AODbCjtkq2N396bhrF5QobqqJgqLrxx+7jAdfOrghNmfUDCicDAiG7VqDoR38GBslFfsl5MAD57GGJ1w2b6KRqxmvbMq7c+l7PxMnfDjfdLuuB3H6LRr9tOg0V24oHzrs+rotKv31+bV1dq2qT7xHpy2h1j1NU2yUUuHAUjOa60xDyTrvntj3H7MAqwr7jhi2s/OemZ1NBztxSkIAF9zexrOgo/XU1R8ZczR/dotvIpGotq4slqrF2zVxpVVqipvVFV5g+oqd71qgcfrKL/Yr6KOOSrpmqdeg0vVa68O7bJguDHScZeM0oYVVdq8ujqtz6fjLxml3ML0moJqjHT8j/fR0HHd477tmopGbV5do4qNdarcXK+GmmaFQxGFmr+9DIo/N0P5JX4Vd85V175F6tK3KG4vaPBlenTylaP1z5vfk7WJFxIRYgFIcksfn3flO9KkpNz5mAZYxpiwtTYoKcPttv3F/mh+SfYj1Vvq7+AcBICv9RzsboC17HNe/IoWfYZ11NEX7B3XbQYDYc37cJ3mfbBOaxZVKNi0Z0tgRsJRVZU3qKq8QSvnl2vmGyskSQWl2Rq8fxeNOqSXuvYrjttx+TJb1sT620/f2uNjSnZ9R3TSsAPcD3GstWpqCH31f2dm+xJi9N2Xxp8wMG7TSCPhqJbN3qzFMzdq5bzyPR7V5Mv0qMegUg0/oLv2GtvN1ZeE7EivIR10wIkDNP3fSxLzAYoQC0DSsvdKJmkvXN44bKNRMQiwJOnYC0c88+RvZ1xnrfI4EQHgyxv/UtfaqqloVMVG3j4Iqahjjs66fmzcRmGsWrBVM99YoYUfb1AoGLuX5NRUNOrjV5br41eWq0O3fO0zsbf2P6qvMvyxv0Uq7ZqnEy/fV/+6++O0O58cj6NjLty7ze1UlTdo9YKtWrN4mzauqFRtZZMaqpsU/U6okFfsV6fu+ercq1Dd+hdr0H5d2mX9tj5DO+rI/zcs5tvZtqleH72yTHOnr1VDTXOb2ws1R7RizhatmLNFLz04W0PHddNBpw52dbr6dx129lAt+3yzNq+pScyHKEIsAMmnujnqezSZDyAeAVZAUoEk1//0td/EQfUv3Dvrmca6pos5FwGgZT2Z0q7uPVAs/2ILRYUysrw69+YDlJ2fGfNtrZxfrqnPLNCq+Vvjfpxb19fq9cfmaNq/F+uAEwZo7DH9lZEV21ulERN6fBXWpZO9D+qhTj0K9uh3mxpC+uL9NZrz/hqtXbKtVb9TVxlQXWVAy+ds+eqcHrxfF+19cC/1H9lZJg4DtApKs3XG9WPkeJyYnsPvTVmkuR+sUzQSk3cpKRyKtNR/2loNHddNR503IiZTcb0+j066YrQeuPFt2QTNhwixACQVo39OWXBFfTIfQswDrO2LuQckxWSRidGH9Hzo/ZeWXCArXoMEIO116VPo6oPY6oVbKSp00k/2VeeeBTHdRvm6Wr3098+1cn55ux9vY22z3nxinmb8d6l+cN7eGnlIz5hu75gL9tayzzepemtjWpxPjmN00Cm7v45asCmsj19drmkvLFagPtimfQg2hTVn2lrNmbZWXfsV66gfDVdxp9yYHbPH6+iMn45RbkFs1vsKNUc07d+L9f5zixQJR+PSj9ZazZuxTotnbtShZ+6lA04c6PpUzW4DijX8wB6aM21t4j5MEWIBSA4RI+e+pL+HiNe9YKwaPuWqA9Zl+n1vcj4CgFTWu9DV9tYtraSoaW7YAd01/IAeMWs/Golq2guL9bdr30qI8OqbGmqa9dw9n+jRO6apuiJ24ZIv06NjLxqZNufU0HHdVdp191Z/mPfBOv3h0lf0xuNz2xxefdeG5ZV66Jb39GwMp3Ieff7e6jm4NCZtr5q/Vfdc+bqmPrMgbuHVN4WCEb3x+Fw9evs0NdY2u97+ET8cLl9mYv+d+ssQyyTQWmsA8G3mhSfmXpn0rz+OS4BljAlKCsWq/W59ix7ihAQAqXPPQtfaCtQHVbGhlqKmsZyCTB17ceyClYoNdfrbT9/WG4/PVTgUSdg6LJu9WfdOekMLP94Qs20M3r+rBo3ukhbn1X4/6Nvqn21qDOnp//tQz/zhI1fWcvo+axdXxKTdXnt10P5H93O9XWulD/6zRA/f9r6qyhvavV9XzN2iv133ljatqna13cLSbB144qCEP68JsQAkMhs196TCcThx3FbM/nR51Z+P+8jrc+ZwWgJId517uTfNa9Pq6oRddwTxcdzFo2I25WnZ7M26/4a3tXl1dVLUoqkxpKd+N0PvPLMgZp+L4y8dlfAjTdqqQ7d89RrSujelVpU36O83vqP5H65P2uP1ZXh00uX7ur7GViQc1b/u/livPTInZmtd7Ynq8kY9dMt72riiytV2DzxpoPKK/Qnf34RYABKRkWY9ueDKGalwLPEOsGL2KFTcKfcRTk0Aaf3lZKSSLu69lLV8bQ1FTWN7je2mYQd0j0nbH/xniR7/1XQ1NYSSqibWSlOfWaDn/vxJTKZqFZRm65DTh6T0eTXykJ6tCnO2rK3RAze8o/J1yT0K9KBTB+/2dMldCYcievr3H2nu9MRcFypQH9TDt72vjSvdC7Eysrwad1z/pOhzQiwACXf/IvOnVDmWuAVYxhirGI7CuvD2w190PE45pyeAdJVX7Hf1tfDl6+ooaprKyvbp+EtHxaTtd55e0DJqJIkXO/7i/TV67s+fxuQYxh03QPlJMNJkT+01ptsuf6amolGP/XK66qubkvpYO/Us0IST3Z36FglH9eRdH2rRJxsS+tgD9UE9edcMNQfCrrW53xF9leH3JkXfE2IBSCAbm6OVU1LlYJw4by9mAVZZ78JQTkHWE5yfANJVUcccV9ur2EiAla4OPm2Icgvdnzo4479LNfXZBSlRo7kfrNUL9850fTqhL8OjA08alJLnVcdu+bscjdQcCOvh295XTUXyv5HxxMv2kcfr7q32fx6YpaWzNiXF8VeXN+qVh2a71l5Wjk+jD++TNP1PiAUgEVij+6YsuD2YKscT1wDLGBOSFLPiHXL60MfkqJnTFEA6Ku7s7ivgq7Y0UNQ0VNQxR2OPdX/B6Y9eXqZXH/4ipWo1+93VeuvJea63O/qIPsorykq5c6s1oeh//z5LFRuSPzwfNLqLegxy962DU59doFlvJ9cLpGa9vcrVwG388QNcDwVjiRALQDsLRH2hv6fSAbXHN0DMnogOO23Ytix/xoucpwDSUUGJe9OOrJVqtwUoaho67Oyh8vrcXUh8w/IqvfZoar5rZdrzi7V64VZX2/RlenTACQPT7tyb+8FaffHemqQ/DmOkw87ay9U2F3+2UVOfSc7Ri6889IVra8YVlGZrr7Hdkur4CbEAtNv3kczkp2ddV5FKx9QeAVaTpJi9LqXvsE4PcaoCSEfZ+ZmutVVf3aRwKEJR00xx51wNP9DdhdtDzRH96+6PY7LoeSKw1urff/1MoWZ3Py/7/6BfzN4AmYiCgbBefTg1Qs6h47qrrE+Ra+3Vbgvo+b/MTNq3wlZsrNMnr61wrb2RB/dMuhoQYgFoj1sUGfuXVDuouAdYsV7M/dI7j1jgy/JO43wFkG5yCtwLsBprmY2djg4+dbAcj7u3Bi89+HnKr6dWsbHO9dExvkyP9j2iT9qce+88s0B1lck/6tNxjA49073RV9ZaPXv3x0l/TZ767AIFXVrQve+ITq5+38ULIRaAOHvtiblXzU+1g2qvSeQxXZmzW7/iv3G+Akg3OS6OwGqsD1LQNJOdl6HhE3q42uaSzzZp1jur0qJ+H/x3qcrX1bra5qhDe8mkwbPutk31+vjV5SlxLEPHd1fH7vmutffpGyu1esHWpK9LoD6omW+tdKUtj9fRsPHdk7IOhFgA4iUq+7tUPK52CbCMMWEpdoutX3PPcR94fc7nnLYA0klWts+1tpoIsNLOqIm95ctwb+2rSDiacou2f++NYiSqN5+Y62qbJWW56jmkQ8rX7s0n5qbMlOUxR7v3AoT66ia9NXleyvTzjP8udW0q8fADeyRtHQixAMSasfr0qXlXp+SstPZ8jUd9LBvv0LXwAU5dAOnE63Pvkh4Ksv5VWt3omJY337n6sPrS0pSfOvhdiz7dqJXzyl1tc5+JvVO6ZlvX12rBRxtS4lg69ShQz8HuvXnwtUfmKJBCf0yoqWjUwo/d6eseg0pVWJqdvN/XhFgAYihi9JtUPbZ2C7CMMc2SwrFq/+rfH/Wa4zErOX0BpAuvq6NnLAVNI32Hd1JplzzX2quvbtJ7/1qYlrV0e8TMsPHdleH3pmy93n9+kaxNjeuNm2uWbVlboznT1qZcf3/xvjtvmTRG6j2sY3J/ZxNiAYgBIy0eMK/qpVQ9Pqedt98Qq4b9xf5oQaccRmEBSBu+DPceciNhRmClk9FH9nW1vfefX6TmQDgta7l2yTatmLvFvc91pkd7jemakrWq3tqoudPXpcj11+Pq2/HeeXpBygR737Rs9mbXFqTvO7xj0teDEAuA+8zvbtft0VQ9uvYOsBolxay4l9185BTHMVs4iQGkA8fj4g2w4WY6XWTnZWjwfl3c+2KvC+qzt1aldU0/esXdBckHjCpLyTp99tZK19ZEam97jesmf26GK21tXlOjhR+vT8k+j4SjWuDSNMI+wzqmRE0IsQC4aH1TtPKplH7eac+NG2OspJi9M7nzoMJgQYn/n5zHANJBNOreX+u9XoeCpokh+3eVx8X+/uiVZQo2hdO6pos/3ajKze4t9dlv784yKRYqW2s1e+rqlDmeES4uKv7xK8tkU3gWt1sjFAtKs1XUKSclakKIBcANRvbuKQtuT+k3MSXCE0pDLBs/4rxRT8gxtZzOAFKdmyMZPARYaWOvsd1caysUjOiT15anfU2ttfr4VffqkJ2XoS59i1KqRss+36zqisaUOBZfhke9h7ozGqipMeTaOlGJauW8ctcCulQZhSURYgFoGyNV+oLNKT94p92fUIwxYUlNsWp//FED63ILsh7nlAaQ6twMsFydjoiEfvDu4+I6MvNnrFdDTTOFlTTn/bWKRtz7TPYf2Tml6jP73dQJafoO7yRfpjsv0fjivTUKNaf2GoQNNc0qX1vjSltlvQpTqjaEWAD2lJX+9vCSG1P+9c+J8if2mI7CGnfi4H/KmCZOawCpzM0AK1XWpcH36z20g7w+995e+cV7qynqdvU1TVo5f6tr7fXbu1NKXauWzt6UMsczcLR7a5TNnb42LT4fm9e4E2B16JafcrUhxAKwBxp9XnNvOhxoQgRYxphmSTFbMOPYc0duzcrxPsd5DSClL+gu3uyGQwRY6aDf3u6N6qmrDGjlvHKK+g3zP3RvIe7uA4rleFJjau+qBVvV1BBKiWMxRhq4jzsBVn11k9Yt2ZYWn40ta90KsPJSsj6EWAB289vo4UdmT9qaDkeaSHdC9bFsfOSBPe8zRmFObgApe0F3cdofI7DSQ89Bpa61NfeDda6+SCAVLPhovWvTCL0+j0rKclOiLktmbkyZPu7Yo0AFpdmutLXwkw1p8xlyawphfkm2Mv3elKwRIRaA1t62e6z+nDbPOwm0LwFJMXtiOuu6g9Zk+r0vc34DSNkLuoujMxxumNPifOnUs8C19hZ+vIGifkdjbbM2LK9yrb1UWe9nRQqN1OvWr9i1ttJpBGNtpTsvITcmNacRfokQC8CuWKOnHps/aUXa3L8myo4YY6xivBbW4P16/FlGDCsAkJoXdBdvcD0+3kKY6jp0y3Nt4elQc0Trlm6jqDuwaqF7I/o79Uz+B/VgIKyt61Ln5dBuvh1yzcKKtPlc1Fe797KH/BJ/SteKEAvA94gY2TvT6nknwfanQVLMxk6ff8shy7L8PkZhAUhJoaB7b67yeAiwUl1Z70LX2lo1v5xppzuxZoF7oUTnFBiBtXbptpSaJufW52jbpnrXRiUlg8Za9wKs7NyMlK8XIRaAHbFGT02ee/WSdDrmhHpCMcZEJTXGchsD9u3xJ0ZhAUhFbi68npXjo6Aprksf90aOLJ+zhYLuxOpFW2WtO4GNm1M+28v6FBqpZ4xxLcDauLIqrT4X4ZB7f3DJzstMi5oRYgH4jrQbfSUl3ggsKcbTCC+67eClGX7fq5zvAFJNqNm991T40+Av2unOzRFYaxZVUNCdaGoIadsmd95Tk1eUlfT12LI2daYPduiWp4wsdxYQr9hQx4dlT7+v8tLn+4oQC8A3PJNuo6+kBAywjDFhSU2x3MaQ0V3vZhQWgFQTbCLAQusVd3bnjXbWWm1x6Y1iqcqtcMLr8yT9G9cqN9enTL+Wds1z7xzZmF4BlnVxFmm6fV8RYgGQFInI+XU6Hnii3gXVS4rZnxkvuHXikuuPfey15kD4GM59AKmisS7oWlupvigupJwCd6bdVG9tVKg5QkG/x9b1dRo02q1+y1JzIHlDoFQKsPKLs11ra/zxAzXykF7f+jeP11Fmlvu36hl+r+vrHBrHtFu4mpHlVbr5MsSqr2mSTaE15QC08porPfv0vCsXp+OxJ+QV3xgTtNaGJMVsEZbB+3X74xfTVv9AVqxUDCAlNNS4tyiuL8Oj7PxMVxfaReLIyvHJl+HOGwgZfbVrFRvcmzaXU5CZtCFQU2PI1aC9veUVu/e31i59Cvmg7KFoJD0nVRBiAel72ZPRb9P14BM5vInp3dkFt05ckun3vc75DyBVNNS4O/u6sEM2RU1RuQXuPXhvXcfaPbtSudm95T1z8pN3wepUC8RTYU2yVBCJpG94w3RCIA1Z/euJuVfNT9fDT9gAyxgTkBSO5TYG7tv5j6yFBSBV1FW5G2B16pFPUVNUrosP3vXVTRR0FwIN7o068ucm7xtCmxpCKdWv+cVMtU4EkXB638oTYgFpJWqN85t0LkCiT5+L6Sisi247YnFmVsabfA4ApIKqLe6+xLWsdxFFTVF5he4FWA1MM90lN6fN2SQebBKoD6ZUv+YWMgIrEdgof4smxALSgzFmypPzrpyXzjVI9AArICmmK8P2G9HpbklMHAeQ9La5vC5OGWuypCw3Fz1urCPA2uXNjIsjsJJ5rRs335Saap8jtOUzQQ0kQiwgLS531tyZ7kVI6ADLGGMlNcRyG5feecSCDL+PUVgAkl7ttoDCIfcy/y69i2S4D07NL3+Pex2bSotyx0qoKSzr0tCpZB6BlWoXFK6PCdIPvI7pK4RYQEpL+9FXkpLiDXwNUmzXqRo4susfWAsLQLKz1qpio3ujsLJyfCrskENhU/HL3+Pe138kFKGgu/xsSpI7D5TJPALL402tpMGQYCXGeeUhwfomQiwgJUU8TuSXlCEJAqx4jMK6+FcTF2Zm+V7idACQ7LasqXG1PaYRpqaoiyGIcXh43OXNlsdxbbROJBJN4jqk2AM1+UBinFderkHfRYgFpBhrnnxszrULKERyjMCSWgKsmP7Jce+Dev9eRmFOCQDJbPPqalfb6zO0I0VNQSEX1yLyeHhA2mWNvC7WKImnEKZagGVIsBLk80WAtSOEWEDq3LZFTeQOyrD9XiIpbhCMiSrGo7DOuf7AVVk5mc9wSgBIZm4HWAP3LaOoKSgccm8Uj8P0nV3XiAdIIHafL0L0nSLEAlKB+ftT865ZSR22X/OTaF9jPgrrgOMH3S1jApwWAJLVuqWVri0WLUnFnXNV2jWPwqaYqIvT0FhAedd41TF30Ygd1sD6foRYQFJr8EY9d1KGJPzqNcZEJDXGchvHX7jvltyCjEc5LQAkq0B9UBUb6lxtc+A+jMJKOS4+x0QjxDO7YqlRSvIQCCTGwwwB1i4RYgHJegNh7nl0wRWbKcQ3rvlJtr/1ivEfMo+6YP975aiGUwNAslq9sMLV9gYQYOF7RKOEM7vi5pRNJNBNNMFJQmANrNYhxAKSTnWzDf+RMnznuzeZdnb7KKyYTvGbcEz/mvzi3L9zagBIVmsWbXW1vd57dVCG30thU4gx7j3AMAJr16y1rk7tRYLcRLP2Ev2QZAixgKS6W7tryoJrK6nDd65jSbjPdZL8iuHLi8++et9//P22aefbSLQDpwiAZLP8iy2yVnIro/B4HQ0f312fvb2K4qYIwpQ434IaufaZDAUjFDRBuLn20sevLteiTzZQ1D3QWB+kCLvz8Lc9xKqvaZJlBC2QqDZlZ2TeSxl2cA1LvptAE7HWBiRlx2obQ8b2bSwsmXVvVXndLzlFACSbuqombV5VpbI+Ra61OfqIvgRYqcTFZxZ/ro967kJGlte1NxHWVTVR0ES5J3VxFEvFxjotn7OFoiI+D4CEWECCf8GYXz0469JGCvG/knXSeH2sN/Dj3xzxuMfjrOEUAZCMls52d73HbgOKXQ3E0L4a69wbsZCTn0lBd8Gfl+FaW7WVvCw5UQRcHPlDiIB4YzohkJistLo5UvkQldixpAywjDFhxXgtrLLehaHiznl/5hQBkIwWf7rR9Tb3PawXhU0RdVXufYXmFBBg7Yo/150aRcJRBeqYLpUoGmqb3by7paCIO0IsIPEYmV9MWXA7X/Y7kcyv7aiL9Qau+PMxzztezxJOEwDJZt3Sbare6u7I470P7iVfhofipgA3R/HkFGRR0F3IdmkEVn11E+uXJZBGFwMsr4836aF9EGIBCWV+v3mVT1OGnUvab8t4jMIqLvZHuvQt/i2nCYBkY6204KP1rraZle3T8Ak9KG4KCDVH1BwIu9JWSVkuBd2FUpdqVF/N+leJpKHOvQArp5CRjGg/hFhAgjC6/nbdHqUQO5fsf+6J+SisG+47/i1vlmc6pwqAZDN/xjrX2zz41MHyeBkpkArqXBqF1blnAcXchdKu+a60s3VDHcVMIG6OwMorZCQj2hchFtDe7NTJc696nTp8v6R+Ctk+Civmq/MPHtX9lzIiCQWQVNYu2aat62tdbbO4c65GHtyT4qYAt6aYlpTlMrV0F0q75rnSzsYVVRQzgdRVuRdg5RJgIQEQYgHtJmLluZoy7Foq/Bm9Tq6+EPx/XfyriQuzsjOe53QBkGw+f2e1620eeuZe8voILJLdxpXuhCGOx3EtoElVHbq5U59NK6spZgIpX1fjWltFnXIoKBICIRbQDqweeXLelfMoRCvuO5P9AIwxEcVhFNaEY/vfJcc0csoASCafv7takbC7A0gLSrO1z2G9KW6ScyvAkqSegztQ0J3ILchSYYe2hxPWuttnaLvyte6NcC0py1VGlpeiIiEQYgFxVa9I9FbK0DpOynR6jEdhHXvJmM25hZkPcsoASKqLY3WTFn260fV2Dz51MNPGktyG5e6FIf1GdKSgO9F7aAcZF54BKzfXq6kxREETSOXmeoWaI660ZYxRxx75FBUJgxALiA8j87vJi67ZRCVaJyUCrHiNwjr9yrH3OR6nnNMGQDL58KWlrreZX+LXgScNorhJrGpLvZoa3AlE+gzvxOL+O9FriDuj0zYsr6SYCSYata4urF/Wq5CiIqEQYgExt0Gm+U+UofVS6W4z5mth7T2hT0NRp5zfc9oASCZrFlVo/VL3H34PPm2wOnZnxECycnNKWqbfq+4DSijqDvQcUupKO8vnbKGYCah8rXvrYPXai6m4SDyEWEAMGfvzJ+Ze30AhWi9lAixjTFRSzDv/ynuOe9bxOos5dQAkkxkxGIXl8To68fJ9ZQw3tclqxVz3BhUPGdOVgn5HQWm2OrswqsZaq6WzmF2QiNYt3eZaWwNGduZ6ioREiAXEgNEX/eZWT6YQuyfVxvvXS4rGcgPFxf5I78EdWWQNQFKZP2Odtq6vdb3dnoNLtd+RfShwklo807310UYc1INphN+tyYE9XFn/asOyKtVVNVHQBLT8C/dGxmXnZ6pL3yKKioREiAW4y7Hm+tt1e5RK7GbdUulgto/Cqo/1dq768zEzfFnedzl9ACSLaNTqvSmLYtL2kT8aoYLSbIqchDavrlZ1uTtLSOYWZGnAqM4U9RuGHdjDlXYWf7aRYiaoio11qt7q3jKsg/Yto6hIWIRYgDus9J/H5016m0rsvlT8U2mDpEisNzJ0TI87jFGYUwhAspg7fW1MRmFl+r068bJ9xMyX5LT4sw2utTXq0N4UdLuSslx16VPoTh/NJMBKZG6uTzby0F5cS5HQCLGANgsran5OGfZMygVYxhirOIzCOv+WQ5Zl5mQ+wykEIFlEo1ZvP7UgJm0P2KdM408YSJGT0OKZ7q2tNGh0mYo65lBUSfse4c7U2srN9dq8upqCJrAVLgZYRR1z1HMIi7kjsRFiAW1hHnhywaSF1GHPpORiFcaYBin2o6N+8MNRd8mjKk4jAMliwUfrtGZRRUzaPuLcYeo+kDfRJZtV87eqsS7ozk2Fx9GEUwalfU19mR6NPtydAGvmmytlLedpIls+Z4uiEfeWMdn3MEYyIvERYgG7z0iVTsi5nUq04V4zhY+tLtYbOOSUIVVFpbl/5DQCkCyslV7+x+eyMXgi9ngdnXPjONbDSjLhUESz313tWnujDu2l/BJ/Wtd0n4m95c/NaHM7kXBUn7+zmpM0wTXWNmv5HPfe6Dl0fHflFmRRWCQ8Qixg90Rlb3p88U+2UYk9l7IBljEmICkY6+1c9dfjH3d8DkMAASSNjSurNef9tTFpO6/Yr7NvHCdfhodCJ5FPXlvu2igfr8+jA09M31FYxhiNObqfK23N/3C96mt4+2AycDME9mV4NP6EARQVSYEQC2j1HcLnwUFdHqYObZPq77uO+Sis4mJ/pM+QLj+XxAB/AEnjtUfmKFAfm4y/W/9inXr1fnI8DoVOEts21WvFXPfW8dn/B33VoVt+WtZyxEE9XDv2T19fwcmZJBZ9skFNDSHX2ht7TH/lFGRSWCQFQixgl6yMrp4y5fQIpWiblH66MMY0S2qO9XYm3X3kzKxs7384nQAki/qaJr3+2NyYtT90XHed8dP9CbGSiJthicfr6NiLR6bfQ5zPo8PPHuZKW1vW1Gj1wq2cmEkiFIxo/kfrXWvPl+nR+OMZhYUkuv4RYgE7ZWUfmzx30nQq0Xbp8GRRG4+NHHzKiDuMY+o4pQAki1lvr9SqBbF7QB46rrtOu3o/ebyEWMlg0acbVVPR6Fp7/UZ00tBx3dOqhmOO7qfCju6sAffuv1idINl88d5qV9sbf/wAlXbNo7BIGoRYwA7VmbD9OWVwR8o/VRhjQpICsd7O0eftXV5QnH0vpxSAZGGt9Pw9n6o5ELuXtg4/sId+dMuByvB7KXiCi0aimvrMAne/Gy8Y4cpi5skgOz9TB5822JW2Nq6s1vwP13FSJplV87dq48pq98IAn0fHXTKKwiKpEGIB32Zkb5u86JpNVMId6fJn8VrFYY2qy+466kHH67BgBYCkUVXeoFcemh3TbfQd0UkX3nGw8or9FDzBfT51tbaud2/gckFptk66Yt+0qN1xF490Lax784m5sqysmZSm/3uxq+31G9FJww/oQWGRVAixgK8s9Gf4/0oZ3JMWAZYxJiKpIdbbKetdGOrWv+QXnFYAksmst1dp4ScbYrqNbgOKdfnvD1PXfkUUPIFFo1bvPO3uKKy9xnbT/j/ol9J1G7xfFw0/0J2QYc2iCi2bvZmTMUnNn7FOFRvdXVHiuEtGqqA0O21rmi6jOFMNIRYgGcde++CsS0NUwj3ptDBJnaRorDdy3V+Pn5bh973BqQUgmbxw70xVlzfGdBv5JX5d/JtDtf9RfSl4K/kyPPF/AP9wnTauqHK1zR+cP0JlvQtTso+y8zJ0wmXujTJ74/G5nPhJLBq1mv6Cu6OwsvMzddb1Y9NuPUGvz6NjLxqpccf258RK1j4kxEJaM1OemHM1uYDL0uab0Bhj1RJixdw+B/e8Q07s334IAG4J1Af15O9mKBSM7dt9fRkeHf/jfXT2jeP4q/r38HgdjTm6v664+/C4b9ta90MUX4ZHP7rlwJRbkNrr8+j0a8coryjLlfZmv7taaxZV8AFIcrPfW6Pqre7+QaD7wBJNPHOvtKlhYcdsXfTrgzX22P5iNm2SXycJsZCmt9ZeT+QGyuC+tPpTjjGmQVI41ts567qD1uQWZt3P6QUgmWxcUaVXHvoiLtvaa2w3XfWXIzVkTFcK/+3vKQ0/sIeu/utROu6SkcrOy2yX/Vg+Z4s+n7ra1Tbziv26+M5D1LF7fkr0lcfr6Mzrx6r/yM6utFdX1RS3zx9iKxKOxuQtkhNOGaQxx6T2dFxjpFGH9tKke45S94ElnEwpghALaXc/J/ObR7+4ZjWVcF86vtu8Nh4bOf/WA+/1eJw1nGIAksnMN1bo41eXx2VbecV+nXPTeJ11w7i0Xt9FkhzHaNgB3XXFHw/TGT8do+LOuZIk244reb/y0GzVVrr7Et/cwiydf8dB6tSjIKn7y+N1dNb1YzV4vy6utfnfB2YpUB/kIpQiZr29SuuXVrr7QGSMjrt4lI69aKSMSb0goKQsV+fdfpBOmbSfMnlzbcohxELasFrmqcv7A4WI0T1zuh2wMaZJiv30vv7DejR1HVj8c04xAMnmlYe+iOsi0kPHddM1f/uBJp61l3yZnrSqdYbfq3HH9tdPHzhGZ143VmV9vr3IfTTafgFWU0NIL973mevt5hf79eP/m6ih47olZZ9l52fqvNsmaPD+7o0enDt9bcxfpIA4P79Yq5f+8XlMQuixx/bXqVfvlzLXS1+GRxPP2kuT/nKk+o3oxMmTwgixkA4cYy5/dPX5TVQiNjzpeNC33357SFJOrLcz7uhBq6dOmd8vEo4O4lQDkEwPXos+3aBBo7sotzArLtv0eB31HtpR+x7eRzZqtXl1taKR1F35pLRrng48eZDOuGaMhozpqqwc3w5/LtAQ0of/Xdpu+7ltY71KynLVuVeh6/09dFx3GUdavSB51nzq0qdQF/36EFcXpK+vadITd36gUHMkYY/brbWXqsobNNvlqamJrLYyoIIOOerSx/23r3buVai9xnbTmsXbVF+VnM9JHq+jvQ/qoTOvH6shY7rJ8ez47+qr5m/Vqvlb+XJOlYd7x8ib4WlZc5MFzpByN9Hm8SfmT7qbQsTwGpKOB22MCUtqiMe2Djpz2G1yVMOpBiCZNAfCeuT297V1fW1ct5tbmKWjL9hbP33gGB186mBl56XOQu/+3AyNObqffvy7ibrmbz/QhJMG7TS4+kq0/ff75X/MVlW5+1+ZxkiHnrGXLv5N4q+LZYzRmGP66ZK7Jro63TUaierZP3yshhre+5Kq3nxibsymhnbolq9L7zpU447tn1RTCh2Po30m9tY19/1Ap161/1dTppE+GImFlMwYpErj+K6nErHlSdcD3z4KK7vlXIudAcPLGme+sby2sT54GKcbgGQSbApr/ofrNWBUZ+UWZMV125l+r/oO76Sxx/ZXUcccNdYFVVPRmHQ1zCnI1F5ju2nimUN1wmX7aPB+XXcrAAnUB/Xhy8va9RjCwYhWztuqUYf0ksfr/t+9Cjtka/QRfZSR5dWahRXtOm1yRzr3LNC5Pxuv0Uf0lcfj7vG/8vAXmvfBuoQ/jxmBtedCzRHVVTXF7IUVHo+jAaPKNHi/LqrYUB+TsNkt2fmZGnt0f5161X4adWgv+XNa9wcKRmClJkZiIdVYa34yed5PPqASsWXS+ySzOZJivpJsoDLg3HzOv/4dDob35ZQDkGxyC7J03m0H/s/6TPG2dX2t5n2wTgs+Wq/NaxJzYKsxRp17FWjgvl00aN8ydRtQ3KaREds21evuy15NiGMbOq67zrx+rGI50KO6vFHvP79Is95ZpUi4fYef5Zf4NeGkQdrvqL4xCe5mv7tGz93zSVJcA+588XRX2lk5v1wP/eK9tLyOnn7tGI2Y0CPm25n/4Xq9N2WhNq2qTphj7zm4VPv/oJ/2GttVXt/u/+38nWcWaOozC/gyTlHhcFT1NU2yUVIsJLXpk+dNOkgynMgxltav+DDGNFhrsyX5Yrkdf7E/OmRM2Y1zp697Q1a8VgVAUqmvadI/bn5XZ980vl0X2O3QLV+HnrmXDj1zL23bVK9lszdpxdxyrZq/td3e3padl6FuA0rUfUCxegwsVbcBxcrKdu8rJRqJJsx5MP/DdXpvSoEOOX1IzLZR2DFbJ1y2jw46bbCmv7BYX7y3Rk2NobgeZ2GHbE04eZD2Oaz3Hj1st8aG5VX6z/2fcXFJIy/e95m69itSaZe8mG5n6LhuGjqum9YsqtBHLy/Tgo/Wx31Uo+MYdR9YokGju2ivsd1UUsYUQXzPw+j26YSEWEhiQRs1Pya8io+0n3hsrc2UVBKPbf381Cd/Xl/VdAWnHYBk5PE6OvnK0dr7oJ4Jdh2Xtm2q04blVdq4skoVG+pUsaFOVeUNrozi8edmKKcgU8WdclTaNU8lZXkq7Zqn0i55KuyQHdNjK19Xq3uufD1xbhqM0Tk3jXP1DXzfJxSMaPHMjfrivTVaNntzzEZlZeX4tNfYbhoxoYf6DOsY0/WEqrc26sGfTU2qKbGMwHJH137FuvSuQ2Myom9naioateDjDVrw0XqtXRSbKbqOx1GnHvnqObiDegwqUf+RnV1dv5ARWOmBkVhIYr+aPO+qWylDnO5FKYFkrS2WFPMFXpbNW5t130/fmRqJRHtSdQBJ+aVhpINOGazDzhmaFIsGN9Q0q766SQ21zYqEozsczZOV7fvWQrIer6Oc/Exl52UoOz9TTjsuMrt5TY3uveqNhKqpL9Ojc39+QNxH4wUDYa1ZXKHVCyu0esFWbVxZpWBTeI/ayvB71WNAiXoMLlXPwaXqNaQ0ZqOtvqm6olH/vPldVW1pSKrPPQGWew48aaCO+tGIdrserl1cofXLq7R+6TZtXlOj+urWv8HQ6/OoqFOOijrlqLhzjkrK8tS5Z4G69S9WRlbsJhgQYKUPQiwk4Z3xcm9d3rBHV5/fRC3ig+lsLWokZSrGgV7/YT2ayvqX3Lx+8dbJlBxAMrJWeu+5Rdqwokpn/HSM/LmJ/ZbAnIJM5RRkJm+9E2gK4ZdCzRFNvvMD/fDWA9VnaMe4bTfD71X/kZ3Vf2Tnr/6tsbZZVeWNqiqvV6Du62mkoVBU4WDkWw/e+SVZKijJVkGHbOUVZcU9gK3e2qiHb30v6cIruGv6v5cotyBLB5w4sF2uh4P37/qtEZSRcFR11U2q3Rb4ViBs1DL6NDPbp4xMT8v/m8VjA2L8YMp0QiTdjVr0csKrOF8nKIFkjIlYaxskxXyS/g1/O/7d64977KXmxvBxVB5Aslo2e7Puu+5tnXndWHXtV0RBYnVflKD376FgRI/dMV2nXbO/ho7r1m77kZ2fqez8zIQ/B7eur9Wjt09TdRK+SRPue+3ROQo2h3XoGXu1+754vI4KS7NVWJpNxyAxHk4JsZA8Jk+ef/VblCG+HErwlTpJkXhs6JBTRtwqx9RScgDJrHJzvR648R2988yCuC8SnC4Sua7hUETP/vFjzXp7FR31PVYt2KoHfzaV8Arf8s7TC/TG43MpBLADX4ZYxmG1GyQmI1Uak/FTKhF/BFhfnoTGWElxCZWOPm/v8tKOub+h6gCSXTQS1dRnFuiRW99XVTlTo9yW6H99jkaieuGvM/Xi/bNitsB6Mpv55ko9ctv7aqwLUgz8j2kvLNbrj82RtfwBAPguQiwk9g2aveGJuZeVU4j4I8D6BmNMQFJzPLZ1/T9Pn+zL8k6j6gBSwcr55brnytf1zjMLCDJclCwj22a+sUL/uPndpHqzXiyFmiN68b7P9OJ9n/F5wPea/u8leuyX0wk5d3YNjES1bWMdhUhThFhITHbqE/Ovepg6tA8CrP9VIynmTwx+v+y4I/reYBzDkAUAKfPQPvWZBXrghre1bsk2CuLGw1sSTc1ct2Sb/vbTt7Ri7pa07rOt62v1wA1va+abKzmB0SrLZm/W3655U+uXVlKMb1i9cKv+9tO3NWfaWoqRxgixkGAaorIXS4ahs+2EAOs7jDFhSXEJlU656oB1BR1y/o+qA0glG1dW6+83vaNn//ixqrcyImfP61ilD/+7NLnu6mqa9ejt0/TG43MVCkbSqr+ikaim/Xux/vbTt7R5TQ0nMHZLdUWj/vmLdwk+JdVXN+m5ez7RP29+V5tXV3NygBALCcMae8NT867hQt2OuArs6MS01kjqKMkT620FKgPOzec++1y4ObI/lQeQanwZHu1/dD8deNJA5RZkUZBdf/9oyWebNOO/S7VyXnIvrdChW75OvHwf9RrSIeX7bcPyKv3ngc+0YXlVSh7fnS+e7ko7K+eX66FfvMcHfRf6juik4y8dpdIueWl13M2BsD56eammv7hETQ0hTgT8j3A4ytsJ0Z7enzxv0iGMvmpfBFg7f4jwS4rLe7mf/t2MPh+9teQtWcvTHYCU5Mv0aP+jtgdZhVzqvitQH9ScaWv10cvLVJFC670YIw07oIeO+tFwFZRmp1y/1dc06a3J8zXr7VUpvRA3AVb8ebyOxh8/QIeeuZd8GZ6UPtZgU1iz3l6l955bpPrqJjof34sQC+2kUdHIiMkLrl1OKdr53pIS7Jy1tkRSZjy2detZz1xWXd7wC6oOIJV5fR4NO6Cbxh8/UGW9C9P9O0Yr5pbri/dWa/6M9Sk95c7r82jkob108GmDVZgCQVYwENbHry3Xe1MWqjkQTvlzlQCr/ZSU5erIHw7XkDFdZUxq3bbXVTVp5psr9OFLyxSoZxF7tB4hFuJ+z2bMNU/OnfRnKtH+CLC+/+HCK6lDPOoUqAw4N5/zr3+Hg+F9qTyAdNBnWEeNPqKPBu/XVb5MT1ocs7VWG5ZVaf5H6zTn/bWqrQykVZ97vI5GHtJLB50ySMWdc5Nu/2srA/r4leX65PXlaTXFiQCr/RV3ztWEkwZq1MTe8niTewnbNYsq9NHLy7Twkw28pRN7jBALcfRx86CyA6ZMOT1CKdofAdauHzbyJMVlEYLH7pzWb9Z7y95UND6jvgAgEWRl+zTsgO4acVBP9RxcKifFFmkNBSNaNa9cCz/dqMUzN6ouzUKrHXE8joaN76Z9JvZWn+EdE3pkSTRqtWLOFs1+d7Xmf7g+LR+4CbASR2HHbB144kDtfXAvZWX7kma/KzbUacFH6zXrnVXatqmejoQrCLEQB802akY9uWDSQkqRGAiwdmH7gu4dJHnjsb1fnPHsVbUV9TdQeQDpKKcgU4NHd9Hg/buq7/BOSTkyKxKOasOKKq1euFWrF2zVqvlbFWwK07k7kV/s19Bx3TR0fHf1HFyaMPtVvq5Ws99drdnvrlZdVXqvy3PFHw93pZ0Nyyv14v2zOOld4PV51G/vTho2vruGjOmqjCxvwu1j+bpazZuxTotnbtTGFVV0GmKCEAuxZW6aPG/S76hDAvUIJdg1a22GpLjcVW/aVOX9v/P/81IkFBlO5QGkM4/XUbf+xeo7vJN6DSlVtwElyvQn1kOatVLVlnptXl2jTaurtXZRhdYsrlComVHme6Jj93z1H9lZvffqoJ6DS5WdH78BycGmsFbN36rlX2zWklmbGCWCpJHh92rw6C7qO6KTeg4qVWnX+L+98Mvgft2SbVq9cKvWLt7GguyIG0IsxMjs7Iys/R+cdSmvRU0gBFitfkixhZLisvLsQ7e9NXjOjLWvy8pL5QFg+xeWaVkHpmu/YpX1LlRx51yVlOWqtEteTEdqWSvVVwVUvbVR1VsbVVPRqIpN9dq8ulpb1tQwuiqG/d2xe4F67dVB3QcUq0O3fJV2zXNl2lRjbbO2rKtVxfpabVxZrXVLt2nL2lpFI6zHg+SXU5CpHoNK1WNgiTp0y1dhqV8FHXKUnZfR5raDTWFt21SvbZvqVLGxXhUbarV1Q522rKkhuEe7IsSC26eU45j9Hp8zaTalSLD7Q0rQ2gcY60jqKCkuK2fefNpT19VVBq6h8gCwa9n5mcotyFRuQZZyi7KUme2Tx2N2a1pNsCmipsagmgNhNTeG1NQYUmNts+qrmxUO8WCWMH2dl6G8Yr8KSvzKzPYpKydDGZmeHS5sHQpGFGwKKxgIq7EuqNrKgGoqGgkdkZZ8GR4Vdsz5KvD3ZXjky/j+8D/YHFGgPqimhqAa64Isuo7EThwIseDWs7/MbU/Om/RLKpF4CLB250S2NltSYTy2tWlTlff35734n3A4ujeVBwAAAIDvR4iFtjLSLH9G1limDiYmhxLsxslsTKOk5nhsq6ysKDxiQt+rZAyvqwIAAACAXfB6HeUWZMk4jNPAHmm0xp5DeJW4CLB2X42kuET6P7p5wvLCDrm/oeQAAAAAsGuEWNhjxlw3ee7VSyhEAncRJdh91to8SXF5xUsgIHPLqY8+HmyKHErlAQAAAGDXmE6I3fTW5HmTjpQMJ0wCYwTWHjDG1EmKy7BCv1/24BMGXW8cU03lAQAAAGDXGImF3VBtjbmA8CrxEWC14SRXnKYSHnvJmM0duxXeTMkBAAAAoHUIsdAa1tofPzl30noqkfgIsPaQMSYkqSFe27v5kZNfzPT7/kPlAQAAAKB1CLGwC5OfnH/1s5QhORBgtU2dpHC8NnbypDE3OR5nI2UHAAAAgNYhxMJObIjKN4kyJA8CrDYwxli1TCWMi7FHDKjtMbDDtYrT1EUAAAAASAWEWPiOqDHOD5+ad3kVpUgeBFhtZIwJKo5TCa+999jp2XmZj1J5AAAAAGg9Qix8wz1PzL1yKmVILgRY7qiVFInXxi775eG/cryeJZQdAAAAAFqPEAuSFjXnRnhJWhIiwHJBvKcS9hzeqXngyC7XqGUheQAAAABAKxFipbVmxzHnTPno2gClSD4EWC4xxjRLaozX9i6764g5hR2yf0flAQAAAGD3EGKlJ2vMTY/PmTSbSiQnPq1ufhisNZI6SvLEY3uBgMwtpz3+aDAQOozqAwAAAMDuCYejqq9pko3ynqw0eGJ/bfK8q46RDJ2dpBiB5aJ4TyX0+2UPO2fUTx2PU071AQAAAGD3MBIrbWyJWJ1PeJXcCLBctn0qYdzeSnjUWUMreg3qcIWMolQfAAAAAHYPIVbKizoy5z49/+otlCK5EWDFRq2kcLw2dvVfjv0wtyDz75QdAAAAAHYfIVYKs+aux+dNeptCJD8CrBjYPpWwJp7bvPKvx9zl9XlmUX0AAAAA2H2EWCn4bG71aXZm5u1UIjUQYMXqgxLnqYRlZUXh0Yf1vtIY1VF9AAAAANh9hFgppVqOc+aDsy4NUYrUQIAVW3GdSnjWdQetKetZdB1lBwAAAIA9Q4iVIoy5/Im5V66iEKmDACumn5f4vpVQkm566OSXM3N8/6L6AAAAALBnCLGS/Flc5h+T5056mkqkFgKsWH9wjAlK8Z3Wd/7Pxt/s8TrLqT4AAAAA7BlCrKS10J+ReTVlSD0EWHFgjKmTFIzX9oaM7du417iel8pRM9UHAAAAgD1DiJV0mhU1Zz8469JGSpF6CLDip1qSjdfGLrrt0MVFnfLuoOwAAAAAsOcIsZKHlb1y8oJJc6hEauITGM8Pk7U5kgriuc3rj5t8T3Nj86lUHwAAAAD2XDgcVX1Nk2zUUowEZKSnnph31TlUInUxAiueHyhjGiQ1xXOb5/987M8cr2cJ1QcAAACAPcdIrIQ235+RdTFlSG0EWPFXIykar40NGdu3cf9D+19kHFNH6QEAAABgzxFiJaR6Y6Ons+5V6iPAijNjTEQt62HFzVk3jl/ZsVvBDVQfAAAAANqGECuxWGPOf2L+NYuoROojwGoHxpgmSXFNh29+5JT/ZudlPEr1AQAAAKBtCLESxp+enDvpOcqQHgiw2k+NpHA8N3jj/afd5s3wfkbpAQAAAKBtCLHa3cfN0aqbKEP6IMBqJ8YYK6lKUtxeYVFUlhUef0y/y4xjKukBAAAAAGgbQqx2ep6WKqNhz5lTFtwepBrpgwCrPT90xoQkxXVx9VN+Mn5jz0EdL5dRhB4AAAAAgLYhxIq7qBx79lOLfrKGUqQXAqx2Zoypl9QUz21ee++x03OLsu6l+gAAAADQdoRYcXX7E3OufoMypB8CrMRQLSkazw3e8veT/+jL8rxP6QEAAACg7Qix4uKd5kFlv6EM6YkAKwEYY6JqWQ8rbvzF/ujh5+47yfE4G+kBAAAAAGg7QqxYPjhrTSQjdOaUKaezHE6aIsBKlM+iMc2SGuK5zaPOGloxZP9u58uYAD0AAAAAAG1HiBUTgajVKU/Puq6CUqQvAqzEUispFM8NXvKrw+d37Jp/I6UHAAAAAHcQYrnMmAufmnfVLAqR3giwEuozaaxaphLGdT2sXzx26vO5eVn/oAcAAAAAwB2EWO6w0v9NnjvpaSoBAqwEY4wJS6qJ93ave/jkX/myvO/SAwAAAADgDkKstrHS28FBZT+nEpAIsBKSaVmTKq7rYRUX+yNHXzL6J8Zj1tADAAAAAOAOQqw9Y6XV0YzQWSzaji8RYCWuuK+HNfGEIdXDx3a/UI5ppPwAAAAA4A5CrN1WLznHs2g7vokAK0G113pYF95x+KIuPQuvkmTpBQAAAABwByFWq1lZXfjkvCvnUQp8EwFWAmuv9bBu+ufJr+YWZd1HDwAAAACAewixds3K3jl5/lX/ohL4LgKsBNce62FJ0i0PnnyXN8szlR4AAAAAAPcQYu2cteaN4KAut1MJ7AgBVnKI+3pY/mJ/9MTLx//E8ZhVlB8AAAAA3EOItUNLfd7ImSzajp0hwEoC29fDqlSc18OacEz/muEH9LxQjqmnFwAAAADAPYRY31JrbPTER7+4pppSYGcIsJKEMSailkXd4+qCWycu6Tag9MfGKEwvAAAAAIB7CLEkSRFr7TlPzL9mEWcEvg8BVhIxxjRLqov3dm/42/HvFnTM/RU9AAAAAADuIsSyVz85/+qXOROwKwRYScYYUyepOd7b/eVTZ/zTn5v5GD0AAAAAAO5K1xDLSPdOnnf1XzkD0BoEWMmpSlLcF7a78ZFTbvH5ve9QfgAAAABwV7qFWNaaN9aVVF1Lz6O1CLCSkDEmqpZF3W08t1tc7I+c/JMxVzhez2J6AQAAAADclUYh1kKfN3Lme+/dzlrLaDUCrCRljAlJqo33dscfNbDuwKP7nWccU0EvAAAAAIC7Uj7EsqrwWHM8bxzE7iLASmLGmAZJjfHe7ilXHbCu77CuF8kxQXoBAAAAANyVwiFWk2Oixz82f9IKehm7iwAr+dVIinuQNOnuI2d26lZwleI8jREAAAAA0kEKhlhWMhc9Pu+aj+hd7AkCrCRnjLFqp0Xdb37klP/mFmXdSy8AAAAAgPtSKsSyumPyvElP0qvYU4YSpAZrbYakknj3aSAgc9vpj/21qTF8Ir0AAAAAAO4Lh6Oqr2mSjSbrBBgzZfK8K8+QDDN4sMcYgZUijDFBtcOi7n6/7MW/OeSnXp8zm14AAAAAAPcl+UisD711eT8kvEJbEWClkPZa1L3/sB5NR126zw8dj1lJLwAAAACA+5IzxDLLjck46dHV5zfRg2grAqzU0y6Luh9x0vDK/Y/oe67xOFvpAgAAAABwX5KFWFsVDf/gibmXldNzcAMBVorZvqh7pdphUfezrjtozaBRXX9kHNNATwAAAACA+5IkxKqTiR41ecG1y+kxuIUAKwUZY6JqeTNh3OcYX3bXEXO69y/9sTEK0xMAAAAA4L4ED7FCMjp98txrPqen4CYCrBS1fVH36vbY9nX3HT+1pHPeTfQCAAAAAMRGgoZYVtKlk+de9To9BLcRYKUwY0xAUn17bPvWyac/nVuSfTe9AAAAAACxkWghlpG5dfK8qx6hZxCb8wspz1pbLCmrPbZ94wmTfxOob/4RvQAAAAAAsREOR1Vf0yQbte22D0bmH0/Mm3QJvYFYYQRWeqiSFGqPDd/4yCm3ZPh9b9AFAAAAABAbCTAS65V1JZWX0xOIJQKsNPCNNxNG473t4mJ/5Md3HHKF1+eZRU8AAAAAQGy0Y4g105jgGe+9dzsv8kJMEWClCWNMRC0hVtzHlPbbp3vgqEtHned4zEp6AgAAAABiox1CrBURa497Yu71DVQfsUaAlUa2v5mwpj22fcRJwytHH97/h8YxFfQEAAAAAMRGHEOszR5rjnx6/tVbqDrigQArzRhjGtVObyY85/oDVw07oNcZctonRAMAAACAdBCHEKvGcczRj82ftIJqI14IsNKQMaZWUqA9tn3RbYcuHjiy+7lyTCM9AQAAAACxEcMQq1HGHPf4nEmzqTLiiQArfVVLCrbHhq/4vyM+7zGw9EI5Jkg3AAAAAEBsxCDEClk5p06eO2k61UW8EWClqW+8mbBd3hRx3V+Pn9alZ+EVMorQGwAAAAAQGy6GWBFr7f97ct6Vr1FVtAcCrDRmjImqJcSKtsf2b/rnya926FJwndrhzYgAAAAAkC5cCLGslb3syflXP0s10V4IsNKcMSaslhCrXUKkWx4/9V+FJdm/oycAAAAAIHbaEmIZ6aYn5139D6qI9kSABRljglL7vRnwl/86696cwqz76AkAAAAAiJ09CbGs0W+fmHfV/1E9tDcCLEiSjDGNkuraa/u3Tj7nN/7czCfpCQAAAACInd0JsazRA0/OvernVA2JgAALXzHG1ElqbI9t+/2yNz5yys+ysn3/pScAAAAAIHZaE2JZY18IDiz7CdVCoiDAwnfVSGpujw0XF/sj1/zl+Em+LM/7dAMAAAAAxM73h1j2tRyf/8wpU07nrfFIGARY+BZjjFXLou7B9th+We/C0GW/nHihL8vzIb0BAAAAALGzwxDL6gNjQqc9OOvSEBVCIjGUADtirXUkdZDkaY/tL5+1zn//LVMnh5rDY+gNAAAAAIidcDiq+uqArNWHzVHvkVMWXFFPVZBoGIGFHTLGRCVtkxRtj+3326d74ORJY87z+pzZ9AYAAAAAxI6NWlmrjzOCTUcRXiFRMQIL338hs9YnqbS9zpUZ767Ke/537z8TDkX2pjcAAAAAwF2hUEQNNc2zI9Y78al5l1dRESQqRmDhexljQpLa7SI2/pDedaddO+4sj88zl94AAAAAAPeEw1E11DXPMUHncMIrJDoCLOySMaZJUnV7bX/sEQNqj7lwn3Mdr2cxvQEAAAAAbReJRNVQ07Q4HI4e+fjin2yjIkh0BFhoFWNMo6Ta9tr+YacN23bUefue4fF5ltIbAAAAALDnotaqoaZpWTQYOfTp+VdvoSJIBgRYaDVjTL2kdlvQ76izhlZMPHfE6R6vs5zeAAAAAIDdZyXV1zSvaDbm4MmLrtlERZAsCLCwW4wxtZIa22v7x547cutBJw450+Nx1tAbAAAAANB6VlJDbdM6Ew0d9szsKzdSESQTAizsNmNMtaSm9tr+iZftv+nAYwae5nicdfQGAAAAALROoL55fThoD3r0i2tWUw0kGwIs7KkqScH22vjJV43bMP6IgWc4HmcDXQEAAAAA3y9QH1wbCAQPemLulauoBpKRoQTYU9ZaI6lUkq+99uGFez7s+v4ri6fYiO1JjwAAAADA/2oKhNY21Dcd8tS8a1ZSDSQrRmBhjxljrKRtksLttQ8nXzVuw4TjB57qeAx/RQAAAACA72gOhFc0NoTGE14h2TECC21mrfWoZSSWp7324dVHv+j45tNfPBMNRwbSIwAAAAAgBYORZYG6hkMen3MtS68g6RFgwRXWWq+kErVjiPX60/NLX3905rPRcHQQPQIAAAAgnYVD0aV1FQ0HT150zSaqgVRAgAXXbA+xStWOU1OnvbKs4MV7P3g6HIqOoEcAAAAApKNoxM6rrK859OlZ11VQDaQKAiy4ylrrU8tIrHYLsT56c2n+lD/OeDocju5NjwAAAABIJ5GInRuuj058cNalhFdIKQRYcJ21NkMtIVa7nV8z3l2V9/zv3nsqHIqOokcAAAAApIOotV/UNTQf9vinP9lGNZBqCLAQE9baTEnF7XmOLfxoRfY/f/XB4+Hm8Fh6BAAAAEBqP4Ppk2Bt5MgHZ11aQzWQihxKgFgwxjRLqpJk22sfhozt23jRLQf80JvpmUGPAAAAAEjhB7CPcjyEV0htBFiI4TXUNKklxGo3Q8b2bbz8VxN/5MvyvE+PAAAAAEi5h3rHvJPZxXf4794mvEJqYwohYs5a65dU1J77sGlVte/uSf+5t7kxfBw9AgAAACAVeLzOaz0Kck+5dsrpAaqBVEeAhbhIhBCrsjLg+d35z/82UN98Dj0CAAAAIJn5sryPn33C0Iv2vXTfENVAOiDAQtxYa7MlFbbnPgQCMr8898mfN1Q3XU6PAAAAAEhG/lzfX39wzQ+vOeQQE6YaSBcEWIirRAixJOnWM565orqi4Wd8BgAAAAAk0yNVXqH/13c+f/YdxpgI5UA64eEd8b/iJkiI9ctz/vX/KrbU/UaWlxkAAAAASPin90hBSfaNv3r2rD8TXiE9PwJAO7DW5kgqaO/9+O0Fz5+waW31X2TlpVcAAAAAJOaTuwmVdim44tbHT3mY8App+zGgBGgviRJi/eHy/x66dmnFg2pZaB4AAAAAEuip3QS69C648KZ/nPIvwiuk9UeBEqA9Jcp0wvtvemPk4lkbJtuoLaRXAAAAACQEx9T2GNDx3Ov+duyrhFdIdwRYaHeJEmL98443B83/YP1T0ajtRK8AAAAAaNeHdY+zte+wsrMm/fGo9wivAAIsJAjbMn2vqL3348nfT+/92VvLn4xEoj3pFQAAAADtwfE6q/c5oNeZ/++WQz4jvAJaEGAhYSRKiPXu8wuLXvrnzEfDwfC+9AoAAACAePL6PF8cdMaIc044f+QSwivgawRYSCiJEmIt/GhF9sN3zrg/GAgdRq8AAAAAiAdfluf9sy7f54J9jxm2hvAK+DYCLCSc7SFWYXufn5WVAc9d50/5TVN96Fx6BQAAAEAsZeVkPHvFvT+4pmfP0i3GmCgVAb6NAAsJyVqbpZaRWO1+jt56xjNXVFc0/IzPCwAAAIBYPP7klmT/6Tf/OusuSdsIr4Ad44EciXsVtzZTUnEinKe/+uFzp2/dWPN7WXnpGQAAAACuPJAbhQvLcn9+xxNnPKKW8MpSFWAnnxdKgERmrc1QS4jltPe+/OEn/52wdknFPxS1ufQMAAAAgDZxTGOP/qWXXnff8a9JqiS8Ar4fARYSnrXWJ6lECRBi3X/TmyMWf77hMRuJdqBnAAAAAOwJx+OUD9iny48u/+2Rn0qqIrwCdo0AC0nBWutVS4jlae99efbuGT0+emPp5Gg42peeAQAAALBbD+Ees2a/w/ufc871By6UVE14BbTys0MJkCwSKcR6e8q8klcf+uzRcCg6ip4BAAAA0BreDO9nx100+rxDThmywRhTTUWA1iPAQlKx1nrUEmK1+2LqmxdXZ/zxhpf+2NwQPJmeAQAAAPB9MrJ9L1/6m4Ov6j+sR4UxppaKALuHAAtJx1rrqCXE8rX3vgQCMr8975nLqysafsbnCQAAAMCOHmFyi7Luu+WJc37r96uO8ArYMzxwIzm/Aaw1ank7YWYi7M9vL3jhuE1rq/8sa7PoHQAAAACSJMcEO3bJv+4Xj536vKQaY0wDRQH2DAEWktb2EKtIUkKERvdd/9o+S+Zsfog3FAIAAAAwjqnsO6zjRZPuPvZjtSzWHqAqQBs+U5QAyc5aWygpOxH25dm7Z/T4+M1lj0VCkQH0DAAAAJCeHK9n8YFH9zvvlKsOWCup0hjTTFWAtiHAQkqw1uZLyk2Effn0ncW5z/7pk/tCgfBEegYAAABIL74sz/snX3fQpeMP6V2jlvAqSFWAtiPAQsqw1uZKyk+EfamsDHh+f+ELtzfUNl1AzwAAAADpISs3c/I1Dxxzc1lZUbNawqsQVQHcQYCFlGKtzZZUmCj7c8e5/zq3cnPdndbKS+8AAAAAKftkHSnqkHfHHU+f/pCksKRtxpgIhQHc/JgBKcZam6mWNxQmxPn9+yteOmj9kvK/W6s8egcAAABIsYdqxzR06Vty+Y0PnPC2pKBaRl5FqQzg8meNEiAVWWt9kkokOYmwP0//bkafT6YuezgajvSndwAAAIDU4Hid1cPH97jgglsnLpHUJKnKGGOpDOA+AiykLGutRy0hVkJM35vx+pK8f//1k3uCgdCR9A4AAACQ3DKyPFNPuWrcFWOPGFArqdEYU01VgNghwEJKs9Y6aplOmJEI+xMIyPzqR09fW7+t8Ro+fwAAAEByPmbkFmXdd8uDJ9/lL/ZHJdUbY2opCxBbPEAj9b9drDVqCbEyE2WffnvBC8dtWld9t6I2mx4CAAAAkuQB2jENnXsUXfOzh056Zfs/VRtjGqkMEIfPHyVAurDWFkpKmMDoodveGjzvo/UPRyPRHvQOAAAAkOAPzx6zZtj4XhdcdNuhiyVZtax31URlgDh9BikB0om1Nk9KnLcBvvv8wqKXHv70/nBT5EB6BwAAAEhM3kzvR0efP+rSw04btk1SRC1vGgxRGSB+CLCQdqy1fkmFiXL+V1YGPH+45IUb66uarqB3AAAAgMSSlZs5+ZoHjrm5rKwoLCksaZsxJkJlgPgiwEJastZmqGVdLCdR9unO8184ccu66j+oJWADAAAA0J4cNXfskn/jLx47bcr2f2lWy7TBKMUB4o8AC2nLWutVS4jlTZR9+vvNb+61aOaGh6KRaHd6CAAAAGgfjsdsGjiq24WX3XXEnO3/1CipxhhjqQ7QPgiwkNastY5aQqyMRNmnN/89t/j1f8y+N9wcPpgeAgAAAOLLm+mZcejZI6449tyRW7f/U50xpo7KAO2LAAtpz1pr1LImVsJM3QsEZH573jOXV29ruEk2caY5AgAAAKn8aJBblHXfLQ+efJe/2B9Vy5sGq40xAUoDtD8CLODLb6sEe0OhJN1z9SvjVy4s/5uNRDvQQwAAAECMHowdU9l9UMmV1917wnvb/ymqljcNBqkOkCCfU0oAfC3R3lAoSS/e/0nZtP8s+ns4FNmHHgIAAADc5fU5c8b/oP+lp1x1wLrt/xRSS3jFmwaBBEKABXxHIr6hcNOmKu+9V756Q31V0xX0EAAAAOCOrNzMydf8+dhflPUuDG3/p2a1hFcs1g4kGAIsYAestR61hFi+RNqv3178wg82r6r6k7WJNdURAAAASCqOqe/UreD6mx855b/f+NcGY0wNxQESEwEWsBPbF3cvkpSVSPv19O9m9Plk6tJ/RMPRQfQSAAAAsHs8Xmf5sPE9Lrng1olLvrz1l1RjjGmkOkDiIsACdiERF3dfNm9t1j9/8f6dgfrgmfQQAAAA0DpZOZnPn/ezsTcNGdv3y7CKxdqBJEGABbRCIi7uLkl3nDvlh9u21N6uqDLpJQAAAGAnHDUXdc695Y4nznjyG//KYu1AEiHAAlpp++LuRZI8ibRfD//ynYFzZ6y9jymFAAAAwP/yeJ3lQ/brcdnFv5q48Bv/HJBUzWLtQPIgwAJ2w/bF3YskZSTSfi2btzbroVun/byxtvlCegkAAABokZmb+dz5N4392TemDEpSnTGmjuoAyYUAC9hN2xd3L5CUnWj79tsLnz9m09rq3yuqAnoKAAAAafug65i6jt0Kb7r5kZNf/OatvKQqY0wTFQKS8HNNCYA9Y63NVkuQlVCfoyl/+qjbx28u+WsoGBlNLwEAACDdeL3OF2MPH3j5adeNW/ONfw6rZb2rMBUCkhMBFtAGibou1qZNVd57r3r9qvrKxqtl5dBTAAAASIfb8+z8zIdvvO/UXxaVZX0zqGpSy3pXUUoEJC8CLKCt35IJui6WJN1z9SvjVy3Ycm80ajvRUwAAAEjZB1uPs7X7wOKrr7v3hPe+859Y7wpIlc85JQDaLpHXxXp7yryS1x77/E+hQHgiPQUAAIBU48vyTpt42oirjj5v7/Jv/HNULaOuWO8KSBEEWICLEnVdrEBA5rcXPnthdXnDL2Stj54CAABACjzNhnOLs/9yywMn/slf7P/m9MCQWhZrZ70rIKU+8gBcZVsComIl2LpYknT/TW+OWDp7w18i4Wg/egoAAADJyuPzLB08uuuVl/zq8Pnf+U8BtYy8slQJSC0EWEAMWGsdtayLlZlo+7Zm7pbMv//y7Z/WVzddxgLvAAAASLZb7azczCcvufWg2/vt0z3wnf9Wa4ypp0RAaiLAAmL57WptrqT8RNy3u698+cC1S8r/FI3YMnoKAAAAic7xOOXd+pX89Lr7jp/6nf8UUcuUwSBVAlIXARYQY9baTLWMxkq40U4z3l2V9+KfZ/y6ub75VHoKAAAAiSoj2/fyDy7a98aJJwyp/s5/alZLeBWlSkBqI8AC4sBa61HLulgJuYD6XRe+cOzGdVV3KaIiegsAAAAJwzG1Hbvk/+IXj536/A7+a50xpo4iAemBAAuIE2utUct0wpxE3L9XH/2i4zvPzflDKBCeSG8BAACgvfmyvNMOOWHgNcdeMmbzd/5TVC2jrpqpEpA+CLCAOLPWZkkqVAJOKQwEZP7v4n+ds21L/W2K2mx6CwAAAPF/SjVNhSXZd//s/hPu9xf7vzs1MKiW8CpCoYA0uzRQAiD+tk8pLJKUkYj79/Qf3u/52Tur7gkFI6PpLQAAAMSL1+f5YtRBvSed+7ODVuzgPzeo5U2DlkoB6YcAC2gniT6lcNOmKu+9V71+VX1l4yRZeekxAAAAxO7J1ITyiv1//sk9R/21rKwo/J3/GpVUbYxpolBAGl8mKAHQvhJ5SqEk/fOOqYMWfrT2j+FQZG96CwAAAG5zfM7CQfuUXfvjO4+at4P/HJJUyZRBAARYQAKw1nrVMqUwId9SuGlTlff+q9+4tLqy8TpFbQY9BgAAgDZz1JxblP236+856Z6isqzwDn6iXi1vGmTKIAACLCBRbJ9SmCspL1H38ZnfTes18/1Vfww1h8fQYwAAANhTXp/z+bDxva49/5ZDlu3gP/OWQQD/gwALSDDW2ky1TCn0JOL+BSoDzv9Neuls3lQIAACA3X8CbXnD4NX3n/BAcbF/R9MCm9USXkUpFoBvXT4oAZB4rLWOWkKsrETdx6f/8H7Pz95d9YdQU2QcPQYAAIBd8WV4Zo6c0PunO3nDoFXLdMF6KgVgRwiwgARmrc1Ry5sKE/KzGgjI/N/F/zpn25b6WxS1ufQYAAAA/vep0wQKS7L/9LP7T7jfX+zf0ciqsFpGXYUoFoCdXkooAZDYti/wXizJm6j7+Pw9H3Sf8eby34ebIgfSYwAAAPiSL9P78eiDev/0zBsnrN7JjwQkVbNQO4BdIcACksD2Bd4LJCXsmlOBgMxdlzx7dtXmhl8oavPpNQAAgDTmqKa0U96vrv/H6c/4/dpROBWVVGOMCVAsAK1BgAUkEWttllrWxnISdR9fnjy7w/tTFvyiub75VHoMAAAg/WRk+14+7OxRNx911tCKnfxIs1pGXUWoFoDWIsACkkwyLPAuSfdc/dLYVYsqfhcNR/vSawAAAGnwcOkxa7oPLPn5dfee8N7ObmXFQu0A9vQaQwmA5GStzVbLtMKE/Rwvm7c265FfzbiivirwE0VtBr0GAACQkk+V4ey8zMd+eMPYu4aM7du4k59ioXYAbbzUAEha1lqPpCJJCR0OPf27GX1mvr/srnBzZDy9BgAAkDq8Gd5Ph47tdtMFt05c8j0/1iCploXaAbQFARaQ5LYv8J4rKS+R9zMQkLn7sudPKd9Qc5uN2mJ6DgAAIIk5prawQ84ff/bX4x/2F/ujO/mpiFpGXQUpGIC2IsACUoS1NkMta2N5E3k/3/nPwsI3Hv78Z031zedwDQIAAEg+rVikXZIa1fKWQUZdAXAFD49ACtk+GitPLSOyEto9V780dvWiirsi4Wg/eg4AACAJHh49Zk23/h1+dv3fjnv/e34sqpY3DDZRMQCuXoMoAZB6kmU01rJ5a7Me/eWMy+uqAlfI2ix6DgAAIBGfGk0gvyTn3otvPviBnsM7NX/PTwbUMuoqStEAuH4pogRAakqm0Vgv3v9J2YzXl93UXN98Kj0HAACQODL8vrfHHt7nF6dcdcC67/kxRl0BiDkCLCDFWWsz1TIay5Po+/rnSS+PW72k4tfRcGQgPQcAANB+HI9Z2aV/6a03/O34d3fxo4y6AhAXBFhAGtg+GqtAUnai72vVpibvn376n/NqtjZcZ6M2j94DAACII8c05hb5H7jydz/4S1nvwtD3/GRULcFVgKIBiAcCLCCNJNNorFcf/aLje/+e/9OmhuazZeXQewAAALG9VczMzXz+kJOG3nn0eXuX7+JnGXUFIO4IsIB0uzNJorWxJOlvN7y+94q5m34dDkVH0nsAAADuc7zO/D57dfnFpLuPnLmLH2WtKwDthgALSFPJ8qZCSQpUBpy7r3315C0bam5V1JbQewAAAC48DDqmuqBDzp+u/uvxjxQX+yO7uiUTo64AtOc1ixIA6Wv7aKzc7f9L+OvBu88vLHrt8Vk3NDcEz7Y28YM3AACABH0KDGfnZj5x+Pmj/jDxhCHVu/jpiFpGXTVTOADte+kCkPastT61jMbyJcP+Tv7t+32/+HDNDcHG0LH0HgAAQOt5szzTh+zX5faLbjticSt+vFEto64slQPQ3giwAHzFWpurlvWxkuLacM/Vr4xfvXjrbZFQZC96DwAAYOccr2dJWd/iX9943/FTW/HjYbWMugpSOQCJggALwLdYaz1qGY2VmQz7G6gMOPdc/9rRm9dX3xIN2270IAAAwNccx2wp6pR795V/Oe7pVqxzZSXVS6pn1BWAREOABWDHdy/W+iUVSHKSYX+Xz1rnf/z/ZlxQXdk4SVGbSw8CAID0ftIzgdzCzIdPvGyfv+w3cVB9K34jqJZRV2GKByAhL2uUAMDOWGsdtUwpzEmWff7vQ591+uC/i69tamg+S1YeehEAAKTZE140MyfzhUNOGnrn0eftXd6K34hKqjXGNFI8AIl9eQOAXbDWZqhlWmHSvPnvn3e8N2Dhp6tvCTdFDqUHAQBAOvBlej8YMLLsl5feecSCVv5KQC2LtEepHoBER4AFoFWstUZS7vb/Jc214/8ue2nixpXbfh4NRwbRiwAAIBU5XmdxWd+SO1u5QLvEIu0AkhABFoDdYq31qmVtrMxk2eevF3qv+Vk0HO1FLwIAgFTgeM36og6597ZygXapZZH2OkkNLNIOINkQYAHYI9baLLUEWUmzzlTVpibvX67/75lV5Q0/jUaiHelFAACQlByzrbA4+++X33HUPzoPKmztKKomtUwXjFBAAMmIAAvAHkvWaYVfv7Gw4QpFVUBPAgCApOCoJrco+6ETLx3591a+WVBqmS5YY4xppoAAkhkBFoA2S8ZphZI07ZVlBa8/9tlF9VWBSxS1ufQkAABIzKc2E8gtzHz4qPP3+9uEY/rXtPYWTVK9pHqmCwJIiUshJQDgFmutX1K+kmhaoSS9PWVeydRn515aX9N8saI2g54EAAAJ8rQWzsrJfObgk4b+8ejz9i7fjd9kuiCAFLwkAoCLtk8rzJOUk2zXmBfu+bDrx1NXTmpqaD5LNrlCOAAAkFJPadEMv+/V/Q/q95vTrhu3Zjd+k+mCAFL40ggAMWCt9ahlNJY/2fb9n3dMHbTks/U/bW4M/YDrJAAAiOPTWTTD73t1yOiud19w68Qlu/GbUbVMF+TtggBS+BIJADFkrc1US5DlS7Z9f/iX7wxcNGvT5c0NzScxIgsAAMTwqSyakeWbOmBk2e8v+dXh83fztwNqGXUVpZAAUvtSCQBxYK3NVkuQ5STbvhNkAQCAGD2NtSW4CkqqNcYEKSSA9LhkAkCcWGsdfb0+VtL55x3vDVjy+forCLIAAEAbn8KiGVm+qf1HdP6/S+88YsFu/nZELcFVgEICSK9LJwDEmbXWp5bRWJnJuP8EWQAAYA+fvqIZft+rw8b0+v2Pbp6wfHdvodSyzlU961wBSM9LKAC0k2ReH0uSnv7D+z1nT193eXND85nWykuPAgCAnTx1tSW4kljnCgAIsAC0v2ReH0uSHrtzWr8Fn6yd1NTYfCIjsgAAwFcPW0bhjJzMF0eN633PWTeOX7kHTTSrZbpgiGoCSPtrKiUAkAistUYta2PlJeu16fl7Pug+873VFzfWBc+WtX56FQCANOWYYGZ2xn/bEFyFJdWxzhUAfI0AC0BCsdZ61BJiZSfrMbw9ZV7J1Cnzz2uoClxgo7aQXgUAIE0erhxT58/N+NeEE4b+9ejz9i7fgyaiahlx1Ug1AeA711hKACARJftC75L0xbSVOS88MPOs2oqGH0cjtoxeBQAgRR+qPM7WnMKsJ465bMyD4w/pXbcntz5igXYA+P5rLSUAkMistRlqCbIykvUYNq2q9j18xzsnbN1U95NoONKfXgUAIEUepjxmTUFpzsMX3nTwEz2Hd2rek1sdtSzQXssC7QCwi2suJQCQDLa/sbBASt63/QUqA869v3hr4uaVlVeGQ5F96FUAAJKTx+uZV1qW98/L7j7638XF/sie3hqoZZ2rMBUFgF0jwAKQVLa/sTBPSu63/f31utf2W7146xXBQGgi12IAAJKDL8Mzs1Pv4r/dcN/xb7WhGd4sCAB7gIcmAEnnG28szJXkJPOxTP7t+33nf7ruR7y5EACABLX9jYIDR3W5/6LbDl3chpaCagmughQVAHYfARaApGWtddQSYuUk+/Xs7SnzSqY9t+DM2qrG81nwHQCABHhQ2r4w+8Fn7fXIEScNr2xDUyG1TBVsoqoA0IbrMiUAkOxSKcjatKra99ivpx5ZvqHm0nAoOoreBQAgvhyvM7+oQ84T591w0JQ9XJj9S2G1BFcBqgoAbUeABSBlpFKQJUn3/eyN4asWbr0w2NB8orXJu3g9AABJ8FQUzcjyTe3Su/if19577PQ2thZRS3DVSGEBwM1LNQCkGGutRy1BVnYqXOeevXtGjzkfrj63oab5HBu1hfQwAAAuPQw5ps6fm/Gv0Qf3+scpVx2wro3NEVwBQCyv2ZQAQKqy1nr1dZCV9D59Z3Huy/+ce3rttvoLohHbmx4GAGDPOB6zqqA056GTfjz6X3tP6NPQxuYikuolNRpjLNUFgNggwAKQ8raPyMpTigRZgYDM/Te8fMDG1ZXnBgOho8T0QgAAWvPkE/VmemZ07ln80JV/PP5tv19tDZsIrgAgrpdxAEgTqTa1UJJeffSLjh+/tvi02urGH0bDthu9DADAtzkepzw7P2PKvgf2fuzkq8ZtcKFJgisAaAcEWADSTioGWYHKgHP/be+M3z4q6wey8tDTAIA0fsqJejM9Mzp2zp/8o18f8npZWVHYhVZZ4woA2vXSDgBpKhWDLEma8ocPe87+eNU59TXNZypqS+hpAEDacFSTnZv53Ijx3R8667qD1rjUalgtwVWAAgNA+yHAApD2tgdZOdv/lzLXxU2rqn2P/XrqkeWba88NN0UO4JoPAEhVHp9nbmFp9pNn3zjmuf7DejS51GxILcFVExUGgPbHwwwAbGetNWoZjZUrpdYUvH/e8eag5V+Unx2oD55ko7aY3gYAJD3HbMvNyXyhz8iuT11028FLXWw5KKme4AoAEgsBFgB8x/Ygy6+WICul3vC3aVW174nfTzu4fF31qbzBEACQhE8vX69t9YtD3yjrXRhysfVmtYy4ClJoAEjErwAAwA6lcpAlbX+D4ZtLjq/d1nhmNBwdTI8DABKV43VWZBdk/Wff8T2fcelNgt/UpJbgKkSlASBxEWABQCtYa7PUEmRlpOLx3fezN4avXbz11EB98BQbtYX0OACg3R9UHFOXkZ3xRlmPwucu+79jP/D7Zd38apfUqJapghGqDQBJ8L1ACQBgN+52rfWpJcjyp+LxrZm7JfPpe2YczsLvAIB2ejqJ+nyeWfkl2c+dcMm+/957Qp8Gl7cQldQgqcEYE6XgAJBMXxEAgN22/c2FuWpZ9D0lr6VP/+H9nvM/2XBaY03zyZFItCe9DgCIFcfrrM4uyHphxJgeU864dvzaGGwirJbgqtEYY6k4ACQfAiwAaINUfnPhNz38y3cGLp+7+ZTG2uBp0Ui0Iz0PAGgzj6qy/Jmv9Ohf8vyFv/rBTJenCH6JNwoCQIogwAIAF6T6gu9fClQGnId+896+a5dtO6W5MXiCjdo8eh8A0OqHD6O6jJzMNzp0zX/54luOeLeoLCsci69lSQG1TBNkYXYASJXvEEoAAC7fNVubISlHKbpO1pfWzN2S+ewDn0zYuqH22OaG4DGy1k/vAwD+h2OCGZneaUWlOS+ddOnerw4Z27cxRluKqmVh9gYWZgeA1EOABQAxsn2drBy1TDF0UvlYP3pzaf7Up+YdUVXRcFyoKXSwtak7Cg0A0KqnjKjP55mVU+R/+YDTBr9wxEnDK2O4tZBa1rcKsL4VAKTyVwsAIKbSZXrhl15+8OPOM99dfVxddfOx4VB4lGxqh3cAgK+eLKJen/ez3KKsV8YcMfC/R5+3d3mMt9ikltFWzRQfANLhawYAEDfW2ky1jMrKSofjfXvKvJJPXll6SFVFw3HBptDBYmQWAKTa00TE5/N8nlPkf3nfiX1fOv7CfbfEeIsRtUwTbGSaIACk21cOACDutk8vzFZLmJUWI5TefX5h0YcvLZrYEmaFD5K1Ps4EAEjKJ4ivQqs4jbSSmCYIAHz9UAIAaD/bpxdmqSXMykyX4572yrKC6VPmHl61reHwYFP4UEVtNmcDACQwR80Zmb7peYVZb40/YfBrh502bFs8vibF2wQBANsRYAFAgrDWetUSZKX8ou/ftHzWOv8LD80+YOuG2mObG4NHKWpzORsAIBGeFExTRpb3g6LSnJcOPnPoG+OPGlgXpy2H1TLaqpHRVgCAr76WKAEAJJZvLPqeIymtptmtmbsl8/l/zNyvfH314U0NoR9EI9EunBEAEMeHA4+zNcPve7+kNPuto36097t7T+jTEK+vP7WMtmo0xgTpCQDA/3xHUQIASFzpOirrSw//8p2BqxdsPay+vunASHNkrGUReABw+2kg6vF65vvzM9/u1rf4rfNvPXKe3694jnoK6+tF2aN0CABg519ZAICEl65rZX3Tm/+eW/z5y8vHbatoPDzY0HyktcrjzACAPXkCMIGMLO+MvMKst0YfNuDNOC3C/q2vNbG2FQBgd7++KAEAJJd0H5UlSZWVAc9Tv3lvn42rKw9rrAsdEQ1H+nNmAMDOOR5nbYbfN620a/7bP5w04f3OgwrbY5peUC2jrXiTIABgtxFgAUCS2j4qK1MtQVZWOtfisTun9Vs+f+MhDbVNE8LB6Bjeaggg7W/yHdPgy/R+lJOXNa3/8E7vnfuzg1a0065E9HVoFaZn36VInwAACCtJREFUAAB7/N1GCQAg+VlrHX09xTAjnWuxaVOV999/+XTI5pVVB9bXNx0Ybo6MFWtnAUj9u/qIx+tZ4M/1TS8tK5h+9hUHfNJOo6yklimCTWoJrZroHACAO191AICUwhTDb/ti2sqcqVMWjtr+ZsPDo5FoD84SAKnA43HW+Py+6cWl2dNHHz/og4knDKlu510K6evRVizIDgBwFQEWAKQwa22WJL9aRmdxzZf09B/e77n0iy0H1tU0HRhsCh2oqAqoCoCkuHF3TIMnw/k8Nzdreuc+RdMv/+2RcxNgt8JqWZCdKYIAgNh+D1ICAEh935hi6FeavsVwRzZtqvK+eM+nwzavqtq/oSE4Ntgc3k9Rm09lACQERzW+DO+nOXkZH3XqU/rJWdcdMK+42B9JgD2L6uvQKkhHAQDigQALANIM62XtXKAy4Dz91w/7r1u6bXR9XXB0KBAcH43YMioDIC4csy0j0zs7Oyfj0859iqaff/2E+f5if6JMxftqXStJzbxFEAAQbwRYAJDGtq+X5d/+PxY634Gn//B+z5XzK0bXVAVGB5uCB0fDthtVAeAGx+OUezM9n2bnZc7s3LPw0/NvPXKe369ECoaspGa1hFZNhFYAgPZEgAUAaHlKsdanr8MsDxXZsSd/P733ijmbxtTVBMeEgqGR0XC0D9+nAFpzmfV4nRW+TO/s3MLMjwbs1fmTM2+csDoR91NSUF+HVizGDgBICNxwAwD+9+mFkVmtNuP1JXmz3145uHxdzejGhuB+oebwKBu1xVQGSPObbMfUeb3O4swc36eFHfNm7n14r1lHnDS8MoF3+cvQijcIAgAS87uVEgAAvg8js3bffx/6rNPCD9eOrq5s3C/UFB4eCkX3VksdAaTmHXXE4/Ws8GZ65+bmZczsPqBk5lk/Gbcsgdav2plvTg8ktAIAJPjXLQAArfSNMCtLjMxqtYUfrch+818LhldtahjV2BAaFWqOjIhGol2oDJCcHI+zwZfpmePPzfi8uHP27GPPHTmn3z7dA8lwGVdLaNUkQisAQJIhwAIA7NlTkLUetQRZfvE2w902491VebNfWTy4fGPt8EBDaFi4OTw8Eo70lWWUG5BIHI9T7s3wzM3I9s0tLM2ZO2Rc9y+OPXfk1mS6XOvr0CrAQuwAgGRFgAUAaPvT0ddhVpZawiy+X/bAplXVvteemNVn08rqYXU1geHbpx8Ok7VZVAeI+V1x2OP1rPRmeuf6c3zzOnbJn3voKQPmDxnbtzEJjyaq7aOsJDUTWgEAUuOrGgAAF1lrHUmZ+jrQ4rumDao2NXlfeGB6/02rq4c21gT3agqFBkVDdmA0Eu1IdYA94zhmi5PhLM3y+RbnFGbN79wzf8HRP953WVlZUTiJDyusr6cGBullAECq4aECABBT1toMtQRZmZJYyNwlM95dlTfnzaW9qzbVD2iobxoQbIoMjAQj/SORaA++34HtHNX4vJ6lngzvkqwc37LCkpwlA/bvujjJpgB+n6C+Dq3CdDgAIJVxgwsAiBtrrVdfh1lMNYwBgi2kpR0EVUPG9Vp01FlDK1LsSL+cGtisltCKqYEAgLTBjSwAoF1Ya42+nmqYKbF4eSx9FWxtru/V1Bjq1RwI9QqHI72iYdub6YhIBo5jtnh8nlUer7Mm0+9ZnZ2TtaqgU86aEQf1WjX+qIF1KXzoQX0dWIU4EwAA6YoACwCQELYvBP/NQIvvqDjZvLg6492X55RtWlPXo66qsWegITggGAwPsCHbIxKNduPNiIgbRzUej2eNN9O71J/lXZqdm7Emv2PO2n0P67lyv4mD6tOkClG1BFZfhlZRTgwAAHg4AAAkoO2jszL0daDlpSrtY/Pi6ozXpszuua28tmtDdXOXYFO4S7A53DUatl0ikWhZNGK78pZEtO6u0zQ5HrPB8ZqNHo+zyZflW5+V4dmYXZS5qUPnovVHnjJ8bedBhem4+LjV16OsmhllBQDATm4lKAEAIOGf7r4enfXl2lmMCEogb0+ZV7Jy7uayyoqGLo3VwW6hYKgsEgx3iYRt10jEdola20FRm0GlUphjgo4xWx2Ps8HrNRs8GZ5NGZnejf6CzA3FpTkbe43qtPGIk4ZXUqivfBlYBSUFWcsKAIBdI8ACACSd7wRamZIcqpLYls1bm7Xo0/KC9cu3daqvae4UagwVNAdCnYLBcKdIVAWRcLiTjaiTjdrCaCTagXuUBOCo2TFOjXHMZo/XKTcep9rnM1u8/7+dO1iNIgjCAFxVPdOTSbI9QTYRUUQETyHgE3gQfADf15NPEPQoehAkuBKcbd3J7nR3lYckxl3xoKIQ/T8YmMPMHIo5FEX97atZ46u+nTTv9/bb2fR21z95evihvdEi6vZjha5igSvEAgEAAH4emkMAALj2zKymq+0snJ91zb16+Xbr+Nm76ezk08FisezSkLucSihj7lLRULIFVd1T1Y6KBTXqTC2QWTBD3HSt0WPKxBxZOApzz+7iXqR3FcfaSXS+mnsvc9fWcTJp+pu3JrOjx3dOHxzdXaKCvyzT+oZVQUkAAAB+s69BCQAA4F9jZp7Oh1mXFza0/hPHz9/svH5x0n08XYVlHHfHMberlLY5Wb0ac2All7OGrOTJSqvZttWoJtVgxq5YCWTkTam9/KaqdrLRMhWzXSLbGJZx+11UUngksrON57JjXjuQXMlIROZfXxMejC05dpHZColEYUpS8cAig2NOVSXRhErjq2g1p6auB++rs63gP08Pdub3Dvfjw0f3F/gr/opvB1bYsAIAAPgDvgBWMohTNo+exAAAACV0RVh0ZGF0ZTpjcmVhdGUAMjAyMS0wMy0yOFQwOTowMzoxMiswMDowMChaK08AAAAldEVYdGRhdGU6bW9kaWZ5ADIwMjEtMDMtMjhUMDk6MDM6MTIrMDA6MDBZB5PzAAAAAElFTkSuQmCC;" vertex="1" parent="1">
          <mxGeometry x="110" y="320" width="70" height="70" as="geometry" />
        </mxCell>
        <mxCell id="5WwUB0t59IE9ERpQd4V4-67" style="edgeStyle=orthogonalEdgeStyle;rounded=0;orthogonalLoop=1;jettySize=auto;html=1;fontSize=12;" edge="1" parent="1" source="5WwUB0t59IE9ERpQd4V4-60" target="5WwUB0t59IE9ERpQd4V4-1">
          <mxGeometry relative="1" as="geometry" />
        </mxCell>
        <mxCell id="5WwUB0t59IE9ERpQd4V4-116" style="edgeStyle=orthogonalEdgeStyle;rounded=0;orthogonalLoop=1;jettySize=auto;html=1;fontSize=12;fillColor=#dae8fc;strokeColor=#6c8ebf;dashed=1;" edge="1" parent="1" source="5WwUB0t59IE9ERpQd4V4-99" target="5WwUB0t59IE9ERpQd4V4-1">
          <mxGeometry relative="1" as="geometry" />
        </mxCell>
        <mxCell id="5WwUB0t59IE9ERpQd4V4-99" value="All data is written to a splunk index in a consistent format.&amp;nbsp;&amp;nbsp;" style="whiteSpace=wrap;html=1;verticalAlign=top;shadow=0;dashed=0;labelBackgroundColor=default;spacingTop=0;fillColor=#dae8fc;strokeColor=#6c8ebf;" vertex="1" parent="1">
          <mxGeometry x="975" y="354" width="120" height="60" as="geometry" />
        </mxCell>
        <mxCell id="5WwUB0t59IE9ERpQd4V4-103" style="edgeStyle=orthogonalEdgeStyle;rounded=0;orthogonalLoop=1;jettySize=auto;html=1;entryX=0.1;entryY=0.2;entryDx=0;entryDy=0;entryPerimeter=0;fontSize=12;fillColor=#dae8fc;strokeColor=#6c8ebf;dashed=1;" edge="1" parent="1" source="5WwUB0t59IE9ERpQd4V4-101" target="5WwUB0t59IE9ERpQd4V4-38">
          <mxGeometry relative="1" as="geometry" />
        </mxCell>
        <mxCell id="5WwUB0t59IE9ERpQd4V4-109" style="edgeStyle=orthogonalEdgeStyle;rounded=0;orthogonalLoop=1;jettySize=auto;html=1;entryX=0.5;entryY=0;entryDx=0;entryDy=0;entryPerimeter=0;fontSize=12;fillColor=#dae8fc;strokeColor=#6c8ebf;dashed=1;" edge="1" parent="1" source="5WwUB0t59IE9ERpQd4V4-107" target="5WwUB0t59IE9ERpQd4V4-37">
          <mxGeometry relative="1" as="geometry">
            <Array as="points">
              <mxPoint x="460" y="370" />
              <mxPoint x="435" y="370" />
            </Array>
          </mxGeometry>
        </mxCell>
        <mxCell id="5WwUB0t59IE9ERpQd4V4-114" style="edgeStyle=orthogonalEdgeStyle;rounded=0;orthogonalLoop=1;jettySize=auto;html=1;fontSize=12;fillColor=#dae8fc;strokeColor=#6c8ebf;dashed=1;" edge="1" parent="1" source="5WwUB0t59IE9ERpQd4V4-113">
          <mxGeometry relative="1" as="geometry">
            <mxPoint x="730" y="460" as="targetPoint" />
            <Array as="points">
              <mxPoint x="910" y="460" />
              <mxPoint x="730" y="460" />
            </Array>
          </mxGeometry>
        </mxCell>
        <mxCell id="5WwUB0t59IE9ERpQd4V4-113" value="All data can be streamed through kafka. This adds resilience as well as the option to include &quot;real time&quot; metrics and analytics at this point&amp;nbsp;" style="whiteSpace=wrap;html=1;verticalAlign=top;shadow=0;dashed=0;labelBackgroundColor=default;spacingTop=0;fillColor=#dae8fc;strokeColor=#6c8ebf;" vertex="1" parent="1">
          <mxGeometry x="890" y="220" width="210" height="70" as="geometry" />
        </mxCell>
        <mxCell id="5WwUB0t59IE9ERpQd4V4-115" value="5" style="ellipse;whiteSpace=wrap;html=1;aspect=fixed;rounded=0;strokeColor=none;strokeWidth=7;fillColor=#939598;fontSize=14;align=center;fontColor=#FFFFFF;" vertex="1" parent="1">
          <mxGeometry x="880" y="210" width="21" height="21" as="geometry" />
        </mxCell>
        <mxCell id="5WwUB0t59IE9ERpQd4V4-117" value="6" style="ellipse;whiteSpace=wrap;html=1;aspect=fixed;rounded=0;strokeColor=none;strokeWidth=7;fillColor=#939598;fontSize=14;align=center;fontColor=#FFFFFF;direction=south;" vertex="1" parent="1">
          <mxGeometry x="960" y="340" width="21" height="21" as="geometry" />
        </mxCell>
        <mxCell id="5WwUB0t59IE9ERpQd4V4-121" value="" style="group" vertex="1" connectable="0" parent="1">
          <mxGeometry x="100" y="210" width="140" height="80" as="geometry" />
        </mxCell>
        <mxCell id="5WwUB0t59IE9ERpQd4V4-95" value="This logging solution is designed to be language agnostic and platform independent." style="whiteSpace=wrap;html=1;verticalAlign=top;shadow=0;dashed=0;labelBackgroundColor=default;spacingTop=0;fillColor=#dae8fc;strokeColor=#6c8ebf;" vertex="1" parent="5WwUB0t59IE9ERpQd4V4-121">
          <mxGeometry x="10" y="10" width="130" height="70" as="geometry" />
        </mxCell>
        <mxCell id="5WwUB0t59IE9ERpQd4V4-97" value="1" style="ellipse;whiteSpace=wrap;html=1;aspect=fixed;rounded=0;strokeColor=none;strokeWidth=7;fillColor=#939598;fontSize=14;align=center;fontColor=#FFFFFF;" vertex="1" parent="5WwUB0t59IE9ERpQd4V4-121">
          <mxGeometry width="21" height="21" as="geometry" />
        </mxCell>
        <mxCell id="5WwUB0t59IE9ERpQd4V4-96" style="edgeStyle=orthogonalEdgeStyle;rounded=0;orthogonalLoop=1;jettySize=auto;html=1;exitX=0.5;exitY=1;exitDx=0;exitDy=0;fontSize=12;" edge="1" parent="5WwUB0t59IE9ERpQd4V4-121" source="5WwUB0t59IE9ERpQd4V4-95" target="5WwUB0t59IE9ERpQd4V4-95">
          <mxGeometry relative="1" as="geometry" />
        </mxCell>
        <mxCell id="5WwUB0t59IE9ERpQd4V4-122" value="" style="group" vertex="1" connectable="0" parent="1">
          <mxGeometry x="270" y="210" width="130" height="80" as="geometry" />
        </mxCell>
        <mxCell id="5WwUB0t59IE9ERpQd4V4-101" value="API Gateway can accept logging data in multiple formats. Raw/protobuf/grpc.." style="whiteSpace=wrap;html=1;fontSize=12;fillColor=#dae8fc;strokeColor=#6c8ebf;sketch=0;dashed=0;labelBackgroundColor=default;" vertex="1" parent="5WwUB0t59IE9ERpQd4V4-122">
          <mxGeometry x="10" y="10" width="120" height="70" as="geometry" />
        </mxCell>
        <mxCell id="5WwUB0t59IE9ERpQd4V4-104" value="2" style="ellipse;whiteSpace=wrap;html=1;aspect=fixed;rounded=0;strokeColor=none;strokeWidth=7;fillColor=#939598;fontSize=14;align=center;fontColor=#FFFFFF;" vertex="1" parent="5WwUB0t59IE9ERpQd4V4-122">
          <mxGeometry width="21" height="21" as="geometry" />
        </mxCell>
        <mxCell id="5WwUB0t59IE9ERpQd4V4-123" value="" style="group" vertex="1" connectable="0" parent="1">
          <mxGeometry x="430" y="210" width="240" height="80" as="geometry" />
        </mxCell>
        <mxCell id="5WwUB0t59IE9ERpQd4V4-107" value="API Nodes can scale to meet demand.&lt;br&gt;&lt;br&gt;This layer is responsible for filtering out noise and invalid data.&amp;nbsp;" style="whiteSpace=wrap;html=1;fontSize=12;fillColor=#dae8fc;strokeColor=#6c8ebf;sketch=0;dashed=0;labelBackgroundColor=default;" vertex="1" parent="5WwUB0t59IE9ERpQd4V4-123">
          <mxGeometry x="10" y="10" width="230" height="70" as="geometry" />
        </mxCell>
        <mxCell id="5WwUB0t59IE9ERpQd4V4-108" value="3" style="ellipse;whiteSpace=wrap;html=1;aspect=fixed;rounded=0;strokeColor=none;strokeWidth=7;fillColor=#939598;fontSize=14;align=center;fontColor=#FFFFFF;" vertex="1" parent="5WwUB0t59IE9ERpQd4V4-123">
          <mxGeometry width="21" height="21" as="geometry" />
        </mxCell>
        <mxCell id="5WwUB0t59IE9ERpQd4V4-38" value="" style="sketch=0;html=1;dashed=0;whitespace=wrap;fillColor=#2875E2;strokeColor=#ffffff;points=[[0.005,0.63,0],[0.1,0.2,0],[0.9,0.2,0],[0.5,0,0],[0.995,0.63,0],[0.72,0.99,0],[0.5,1,0],[0.28,0.99,0]];shape=mxgraph.kubernetes.icon;prIcon=ing;fontSize=15;" vertex="1" parent="1">
          <mxGeometry x="330" y="470" width="50" height="48" as="geometry" />
        </mxCell>
        <mxCell id="5WwUB0t59IE9ERpQd4V4-126" value="" style="group" vertex="1" connectable="0" parent="1">
          <mxGeometry x="710" y="200" width="140" height="99" as="geometry" />
        </mxCell>
        <mxCell id="5WwUB0t59IE9ERpQd4V4-93" value="Web Application allows management of filtering, based on application, log level etc.&amp;nbsp;" style="whiteSpace=wrap;html=1;verticalAlign=top;shadow=0;dashed=0;labelBackgroundColor=default;spacingTop=0;fillColor=#dae8fc;strokeColor=#6c8ebf;" vertex="1" parent="5WwUB0t59IE9ERpQd4V4-126">
          <mxGeometry x="10" y="9" width="130" height="90" as="geometry" />
        </mxCell>
        <mxCell id="5WwUB0t59IE9ERpQd4V4-112" value="4" style="ellipse;whiteSpace=wrap;html=1;aspect=fixed;rounded=0;strokeColor=none;strokeWidth=7;fillColor=#939598;fontSize=14;align=center;fontColor=#FFFFFF;" vertex="1" parent="5WwUB0t59IE9ERpQd4V4-126">
          <mxGeometry width="21" height="21" as="geometry" />
        </mxCell>
        <mxCell id="5WwUB0t59IE9ERpQd4V4-127" style="edgeStyle=orthogonalEdgeStyle;rounded=0;orthogonalLoop=1;jettySize=auto;html=1;fontSize=12;fillColor=#dae8fc;strokeColor=#6c8ebf;dashed=1;" edge="1" parent="1" source="5WwUB0t59IE9ERpQd4V4-93">
          <mxGeometry relative="1" as="geometry">
            <mxPoint x="815" y="360" as="targetPoint" />
            <Array as="points">
              <mxPoint x="815" y="320" />
              <mxPoint x="815" y="320" />
            </Array>
          </mxGeometry>
        </mxCell>
        <mxCell id="5WwUB0t59IE9ERpQd4V4-132" style="edgeStyle=orthogonalEdgeStyle;rounded=0;orthogonalLoop=1;jettySize=auto;html=1;entryX=0.483;entryY=-0.057;entryDx=0;entryDy=0;entryPerimeter=0;shadow=0;fontSize=12;fillColor=#dae8fc;strokeColor=#6c8ebf;dashed=1;" edge="1" parent="1" source="5WwUB0t59IE9ERpQd4V4-93" target="5WwUB0t59IE9ERpQd4V4-90">
          <mxGeometry relative="1" as="geometry">
            <Array as="points">
              <mxPoint x="734" y="340" />
              <mxPoint x="734" y="340" />
            </Array>
          </mxGeometry>
        </mxCell>
      </root>
    </mxGraphModel>
  </diagram>
</mxfile>
